<?xml version="1.0" encoding="utf-8" standalone="no"?>
<!DOCTYPE svg PUBLIC "-//W3C//DTD SVG 1.1//EN"
  "http://www.w3.org/Graphics/SVG/1.1/DTD/svg11.dtd">
<svg xmlns:xlink="http://www.w3.org/1999/xlink" width="252.283465pt" height="212.598425pt" viewBox="0 0 252.283465 212.598425" xmlns="http://www.w3.org/2000/svg" version="1.1">
 <metadata>
  <rdf:RDF xmlns:dc="http://purl.org/dc/elements/1.1/" xmlns:cc="http://creativecommons.org/ns#" xmlns:rdf="http://www.w3.org/1999/02/22-rdf-syntax-ns#">
   <cc:Work>
    <dc:type rdf:resource="http://purl.org/dc/dcmitype/StillImage"/>
    <dc:date>2023-03-13T12:02:22.960432</dc:date>
    <dc:format>image/svg+xml</dc:format>
    <dc:creator>
     <cc:Agent>
      <dc:title>Matplotlib v3.5.2, https://matplotlib.org/</dc:title>
     </cc:Agent>
    </dc:creator>
   </cc:Work>
  </rdf:RDF>
 </metadata>
 <defs>
  <style type="text/css">*{stroke-linejoin: round; stroke-linecap: butt}</style>
 </defs>
 <g id="figure_1">
  <g id="patch_1">
   <path d="M 0 212.598425 
L 252.283465 212.598425 
L 252.283465 0 
L 0 0 
z
" style="fill: #ffffff"/>
  </g>
  <g id="axes_1">
   <g id="patch_2">
    <path d="M 56.73 169.026425 
L 239.323465 169.026425 
L 239.323465 16.92 
L 56.73 16.92 
z
" style="fill: #ffffff"/>
   </g>
   <g id="matplotlib.axis_1">
    <g id="xtick_1">
     <g id="line2d_1">
      <defs>
       <path id="m5736ffd0b9" d="M 0 0 
L 0 -3.5 
" style="stroke: #000000; stroke-width: 0.8"/>
      </defs>
      <g>
       <use xlink:href="#m5736ffd0b9" x="74.989346" y="169.026425" style="stroke: #000000; stroke-width: 0.8"/>
      </g>
     </g>
     <g id="line2d_2">
      <defs>
       <path id="m5775ac54dd" d="M 0 0 
L 0 3.5 
" style="stroke: #000000; stroke-width: 0.8"/>
      </defs>
      <g>
       <use xlink:href="#m5775ac54dd" x="74.989346" y="16.92" style="stroke: #000000; stroke-width: 0.8"/>
      </g>
     </g>
     <g id="text_1">
      <!-- −0.8 -->
      <g transform="translate(62.84794 180.124863)scale(0.1 -0.1)">
       <defs>
        <path id="DejaVuSerif-2212" d="M 678 2259 
L 4684 2259 
L 4684 1753 
L 678 1753 
L 678 2259 
z
" transform="scale(0.015625)"/>
        <path id="DejaVuSerif-30" d="M 2034 219 
Q 2513 219 2750 744 
Q 2988 1269 2988 2328 
Q 2988 3391 2750 3916 
Q 2513 4441 2034 4441 
Q 1556 4441 1318 3916 
Q 1081 3391 1081 2328 
Q 1081 1269 1318 744 
Q 1556 219 2034 219 
z
M 2034 -91 
Q 1275 -91 848 546 
Q 422 1184 422 2328 
Q 422 3475 848 4112 
Q 1275 4750 2034 4750 
Q 2797 4750 3222 4112 
Q 3647 3475 3647 2328 
Q 3647 1184 3222 546 
Q 2797 -91 2034 -91 
z
" transform="scale(0.015625)"/>
        <path id="DejaVuSerif-2e" d="M 603 325 
Q 603 500 722 622 
Q 841 744 1019 744 
Q 1191 744 1312 622 
Q 1434 500 1434 325 
Q 1434 153 1312 31 
Q 1191 -91 1019 -91 
Q 841 -91 722 29 
Q 603 150 603 325 
z
" transform="scale(0.015625)"/>
        <path id="DejaVuSerif-38" d="M 2981 1275 
Q 2981 1775 2732 2051 
Q 2484 2328 2034 2328 
Q 1584 2328 1336 2051 
Q 1088 1775 1088 1275 
Q 1088 772 1336 495 
Q 1584 219 2034 219 
Q 2484 219 2732 495 
Q 2981 772 2981 1275 
z
M 2853 3541 
Q 2853 3966 2637 4203 
Q 2422 4441 2034 4441 
Q 1650 4441 1433 4203 
Q 1216 3966 1216 3541 
Q 1216 3113 1433 2875 
Q 1650 2638 2034 2638 
Q 2422 2638 2637 2875 
Q 2853 3113 2853 3541 
z
M 2516 2484 
Q 3047 2413 3344 2092 
Q 3641 1772 3641 1275 
Q 3641 619 3225 264 
Q 2809 -91 2034 -91 
Q 1263 -91 845 264 
Q 428 619 428 1275 
Q 428 1772 725 2092 
Q 1022 2413 1556 2484 
Q 1084 2569 832 2842 
Q 581 3116 581 3541 
Q 581 4103 968 4426 
Q 1356 4750 2034 4750 
Q 2713 4750 3100 4426 
Q 3488 4103 3488 3541 
Q 3488 3116 3236 2842 
Q 2984 2569 2516 2484 
z
" transform="scale(0.015625)"/>
       </defs>
       <use xlink:href="#DejaVuSerif-2212"/>
       <use xlink:href="#DejaVuSerif-30" x="83.789062"/>
       <use xlink:href="#DejaVuSerif-2e" x="147.412109"/>
       <use xlink:href="#DejaVuSerif-38" x="179.199219"/>
      </g>
     </g>
    </g>
    <g id="xtick_2">
     <g id="line2d_3">
      <g>
       <use xlink:href="#m5736ffd0b9" x="111.508039" y="169.026425" style="stroke: #000000; stroke-width: 0.8"/>
      </g>
     </g>
     <g id="line2d_4">
      <g>
       <use xlink:href="#m5775ac54dd" x="111.508039" y="16.92" style="stroke: #000000; stroke-width: 0.8"/>
      </g>
     </g>
     <g id="text_2">
      <!-- −0.4 -->
      <g transform="translate(99.366633 180.124863)scale(0.1 -0.1)">
       <defs>
        <path id="DejaVuSerif-34" d="M 2234 1581 
L 2234 4063 
L 641 1581 
L 2234 1581 
z
M 3609 0 
L 1484 0 
L 1484 331 
L 2234 331 
L 2234 1247 
L 197 1247 
L 197 1588 
L 2241 4750 
L 2859 4750 
L 2859 1581 
L 3750 1581 
L 3750 1247 
L 2859 1247 
L 2859 331 
L 3609 331 
L 3609 0 
z
" transform="scale(0.015625)"/>
       </defs>
       <use xlink:href="#DejaVuSerif-2212"/>
       <use xlink:href="#DejaVuSerif-30" x="83.789062"/>
       <use xlink:href="#DejaVuSerif-2e" x="147.412109"/>
       <use xlink:href="#DejaVuSerif-34" x="179.199219"/>
      </g>
     </g>
    </g>
    <g id="xtick_3">
     <g id="line2d_5">
      <g>
       <use xlink:href="#m5736ffd0b9" x="148.026732" y="169.026425" style="stroke: #000000; stroke-width: 0.8"/>
      </g>
     </g>
     <g id="line2d_6">
      <g>
       <use xlink:href="#m5775ac54dd" x="148.026732" y="16.92" style="stroke: #000000; stroke-width: 0.8"/>
      </g>
     </g>
     <g id="text_3">
      <!-- 0.0 -->
      <g transform="translate(140.07517 180.124863)scale(0.1 -0.1)">
       <use xlink:href="#DejaVuSerif-30"/>
       <use xlink:href="#DejaVuSerif-2e" x="63.623047"/>
       <use xlink:href="#DejaVuSerif-30" x="95.410156"/>
      </g>
     </g>
    </g>
    <g id="xtick_4">
     <g id="line2d_7">
      <g>
       <use xlink:href="#m5736ffd0b9" x="184.545425" y="169.026425" style="stroke: #000000; stroke-width: 0.8"/>
      </g>
     </g>
     <g id="line2d_8">
      <g>
       <use xlink:href="#m5775ac54dd" x="184.545425" y="16.92" style="stroke: #000000; stroke-width: 0.8"/>
      </g>
     </g>
     <g id="text_4">
      <!-- 0.4 -->
      <g transform="translate(176.593863 180.124863)scale(0.1 -0.1)">
       <use xlink:href="#DejaVuSerif-30"/>
       <use xlink:href="#DejaVuSerif-2e" x="63.623047"/>
       <use xlink:href="#DejaVuSerif-34" x="95.410156"/>
      </g>
     </g>
    </g>
    <g id="xtick_5">
     <g id="line2d_9">
      <g>
       <use xlink:href="#m5736ffd0b9" x="221.064118" y="169.026425" style="stroke: #000000; stroke-width: 0.8"/>
      </g>
     </g>
     <g id="line2d_10">
      <g>
       <use xlink:href="#m5775ac54dd" x="221.064118" y="16.92" style="stroke: #000000; stroke-width: 0.8"/>
      </g>
     </g>
     <g id="text_5">
      <!-- 0.8 -->
      <g transform="translate(213.112556 180.124863)scale(0.1 -0.1)">
       <use xlink:href="#DejaVuSerif-30"/>
       <use xlink:href="#DejaVuSerif-2e" x="63.623047"/>
       <use xlink:href="#DejaVuSerif-38" x="95.410156"/>
      </g>
     </g>
    </g>
    <g id="xtick_6">
     <g id="line2d_11">
      <defs>
       <path id="m1dc0b35e88" d="M 0 0 
L 0 -2 
" style="stroke: #000000; stroke-width: 0.6"/>
      </defs>
      <g>
       <use xlink:href="#m1dc0b35e88" x="56.73" y="169.026425" style="stroke: #000000; stroke-width: 0.6"/>
      </g>
     </g>
     <g id="line2d_12">
      <defs>
       <path id="m8f24368448" d="M 0 0 
L 0 2 
" style="stroke: #000000; stroke-width: 0.6"/>
      </defs>
      <g>
       <use xlink:href="#m8f24368448" x="56.73" y="16.92" style="stroke: #000000; stroke-width: 0.6"/>
      </g>
     </g>
    </g>
    <g id="xtick_7">
     <g id="line2d_13">
      <g>
       <use xlink:href="#m1dc0b35e88" x="93.248693" y="169.026425" style="stroke: #000000; stroke-width: 0.6"/>
      </g>
     </g>
     <g id="line2d_14">
      <g>
       <use xlink:href="#m8f24368448" x="93.248693" y="16.92" style="stroke: #000000; stroke-width: 0.6"/>
      </g>
     </g>
    </g>
    <g id="xtick_8">
     <g id="line2d_15">
      <g>
       <use xlink:href="#m1dc0b35e88" x="129.767386" y="169.026425" style="stroke: #000000; stroke-width: 0.6"/>
      </g>
     </g>
     <g id="line2d_16">
      <g>
       <use xlink:href="#m8f24368448" x="129.767386" y="16.92" style="stroke: #000000; stroke-width: 0.6"/>
      </g>
     </g>
    </g>
    <g id="xtick_9">
     <g id="line2d_17">
      <g>
       <use xlink:href="#m1dc0b35e88" x="166.286079" y="169.026425" style="stroke: #000000; stroke-width: 0.6"/>
      </g>
     </g>
     <g id="line2d_18">
      <g>
       <use xlink:href="#m8f24368448" x="166.286079" y="16.92" style="stroke: #000000; stroke-width: 0.6"/>
      </g>
     </g>
    </g>
    <g id="xtick_10">
     <g id="line2d_19">
      <g>
       <use xlink:href="#m1dc0b35e88" x="202.804772" y="169.026425" style="stroke: #000000; stroke-width: 0.6"/>
      </g>
     </g>
     <g id="line2d_20">
      <g>
       <use xlink:href="#m8f24368448" x="202.804772" y="16.92" style="stroke: #000000; stroke-width: 0.6"/>
      </g>
     </g>
    </g>
    <g id="xtick_11">
     <g id="line2d_21">
      <g>
       <use xlink:href="#m1dc0b35e88" x="239.323465" y="169.026425" style="stroke: #000000; stroke-width: 0.6"/>
      </g>
     </g>
     <g id="line2d_22">
      <g>
       <use xlink:href="#m8f24368448" x="239.323465" y="16.92" style="stroke: #000000; stroke-width: 0.6"/>
      </g>
     </g>
    </g>
    <g id="text_6">
     <!-- $\epsilon_{x} \%$ -->
     <g transform="translate(138.726732 195.322675)scale(0.12 -0.12)">
      <defs>
       <path id="STIXGeneral-Italic-3b5" d="M 2304 627 
L 2406 563 
Q 1907 -70 1133 -70 
Q 192 -70 192 640 
Q 192 928 403 1158 
Q 614 1389 934 1472 
Q 774 1498 684 1616 
Q 595 1734 595 1882 
Q 602 2266 995 2544 
Q 1389 2822 2029 2822 
Q 2336 2822 2528 2672 
Q 2720 2522 2720 2291 
Q 2720 2163 2617 2080 
Q 2515 1997 2413 1997 
Q 2298 1997 2230 2067 
Q 2163 2138 2163 2253 
Q 2163 2317 2211 2409 
Q 2259 2502 2259 2560 
Q 2259 2688 2022 2688 
Q 1683 2688 1401 2496 
Q 1120 2304 1120 1907 
Q 1120 1741 1251 1654 
Q 1382 1568 1594 1568 
Q 1613 1568 1728 1590 
Q 1843 1613 1932 1613 
Q 2022 1613 2086 1574 
Q 2150 1536 2150 1478 
Q 2150 1306 1862 1306 
Q 1805 1306 1721 1334 
Q 1638 1363 1568 1363 
Q 1286 1363 1014 1184 
Q 742 1005 742 678 
Q 742 410 908 285 
Q 1075 160 1312 160 
Q 1869 160 2304 627 
z
" transform="scale(0.015625)"/>
       <path id="STIXGeneral-Italic-78" d="M 1555 2272 
L 1632 1907 
Q 1971 2426 2179 2624 
Q 2387 2822 2598 2822 
Q 2714 2822 2787 2755 
Q 2861 2688 2861 2585 
Q 2861 2483 2800 2419 
Q 2739 2355 2643 2355 
Q 2586 2355 2490 2409 
Q 2394 2464 2310 2464 
Q 2125 2464 1683 1690 
Q 1683 1606 1734 1402 
L 1939 544 
Q 2003 282 2131 282 
Q 2234 282 2432 538 
Q 2451 563 2476 598 
Q 2502 634 2521 662 
Q 2541 691 2566 717 
L 2662 659 
Q 2387 230 2227 80 
Q 2067 -70 1882 -70 
Q 1728 -70 1645 26 
Q 1562 122 1504 365 
L 1318 1126 
L 755 365 
Q 557 96 432 13 
Q 307 -70 147 -70 
Q 0 -70 -86 0 
Q -173 70 -173 198 
Q -173 294 -112 361 
Q -51 429 45 429 
Q 122 429 250 358 
Q 346 301 416 301 
Q 525 301 742 614 
L 1267 1357 
L 1088 2150 
Q 1024 2432 969 2509 
Q 915 2586 794 2586 
Q 717 2586 544 2541 
L 429 2509 
L 410 2611 
L 480 2637 
Q 992 2822 1229 2822 
Q 1350 2822 1420 2707 
Q 1491 2592 1555 2272 
z
" transform="scale(0.015625)"/>
       <path id="STIXGeneral-Regular-25" d="M 4390 1363 
Q 4390 781 4070 329 
Q 3750 -122 3341 -122 
Q 3014 -122 2790 134 
Q 2566 390 2566 762 
Q 2566 1274 2940 1693 
Q 3315 2112 3776 2112 
Q 4070 2112 4230 1917 
Q 4390 1722 4390 1363 
z
M 4243 1376 
Q 4243 1626 4131 1779 
Q 4019 1933 3840 1933 
Q 3654 1933 3526 1786 
Q 3315 1562 3171 1187 
Q 3027 813 3027 486 
Q 3027 301 3129 176 
Q 3232 51 3386 51 
Q 3718 51 3980 457 
Q 4243 864 4243 1376 
z
M 3974 4518 
L 1222 -115 
L 922 -115 
L 3443 4096 
Q 3264 3891 3094 3811 
Q 2925 3731 2669 3731 
Q 2445 3731 2182 3821 
Q 2208 3674 2208 3539 
Q 2208 3206 2067 2873 
Q 1926 2541 1696 2323 
Q 1453 2086 1146 2086 
Q 826 2086 608 2339 
Q 390 2592 390 2963 
Q 390 3507 761 3916 
Q 1133 4326 1626 4326 
Q 1792 4326 2010 4147 
Q 2310 3898 2624 3898 
Q 2918 3898 3084 3994 
Q 3251 4090 3693 4518 
L 3974 4518 
z
M 2054 3642 
Q 2054 3782 2025 3833 
Q 1997 3885 1894 3936 
Q 1747 4006 1613 4154 
Q 1414 4058 1331 3984 
Q 1248 3910 1152 3750 
Q 845 3264 845 2707 
Q 845 2509 944 2384 
Q 1043 2259 1210 2259 
Q 1549 2259 1801 2675 
Q 2054 3091 2054 3642 
z
" transform="scale(0.015625)"/>
      </defs>
      <use xlink:href="#STIXGeneral-Italic-3b5" transform="translate(0 0.40625)"/>
      <use xlink:href="#STIXGeneral-Italic-78" transform="translate(44.399994 -12.821875)scale(0.7)"/>
      <use xlink:href="#STIXGeneral-Regular-25" transform="translate(79.889365 0.40625)"/>
     </g>
    </g>
   </g>
   <g id="matplotlib.axis_2">
    <g id="ytick_1">
     <g id="line2d_23">
      <defs>
       <path id="mbdbc8b0f1e" d="M 0 0 
L 3.5 0 
" style="stroke: #000000; stroke-width: 0.8"/>
      </defs>
      <g>
       <use xlink:href="#mbdbc8b0f1e" x="56.73" y="169.026425" style="stroke: #000000; stroke-width: 0.8"/>
      </g>
     </g>
     <g id="line2d_24">
      <defs>
       <path id="m3e7ae8a32e" d="M 0 0 
L -3.5 0 
" style="stroke: #000000; stroke-width: 0.8"/>
      </defs>
      <g>
       <use xlink:href="#m3e7ae8a32e" x="239.323465" y="169.026425" style="stroke: #000000; stroke-width: 0.8"/>
      </g>
     </g>
     <g id="text_7">
      <!-- −60 -->
      <g transform="translate(32.125313 172.825644)scale(0.1 -0.1)">
       <defs>
        <path id="DejaVuSerif-36" d="M 2094 219 
Q 2534 219 2771 542 
Q 3009 866 3009 1472 
Q 3009 2078 2771 2401 
Q 2534 2725 2094 2725 
Q 1647 2725 1412 2412 
Q 1178 2100 1178 1509 
Q 1178 888 1415 553 
Q 1653 219 2094 219 
z
M 1075 2569 
Q 1288 2803 1556 2918 
Q 1825 3034 2163 3034 
Q 2859 3034 3264 2615 
Q 3669 2197 3669 1472 
Q 3669 763 3233 336 
Q 2797 -91 2069 -91 
Q 1278 -91 853 498 
Q 428 1088 428 2181 
Q 428 3406 931 4078 
Q 1434 4750 2350 4750 
Q 2597 4750 2869 4703 
Q 3141 4656 3425 4563 
L 3425 3794 
L 3072 3794 
Q 3034 4109 2831 4275 
Q 2628 4441 2284 4441 
Q 1678 4441 1381 3981 
Q 1084 3522 1075 2569 
z
" transform="scale(0.015625)"/>
       </defs>
       <use xlink:href="#DejaVuSerif-2212"/>
       <use xlink:href="#DejaVuSerif-36" x="83.789062"/>
       <use xlink:href="#DejaVuSerif-30" x="147.412109"/>
      </g>
     </g>
    </g>
    <g id="ytick_2">
     <g id="line2d_25">
      <g>
       <use xlink:href="#mbdbc8b0f1e" x="56.73" y="143.675354" style="stroke: #000000; stroke-width: 0.8"/>
      </g>
     </g>
     <g id="line2d_26">
      <g>
       <use xlink:href="#m3e7ae8a32e" x="239.323465" y="143.675354" style="stroke: #000000; stroke-width: 0.8"/>
      </g>
     </g>
     <g id="text_8">
      <!-- −40 -->
      <g transform="translate(32.125313 147.474573)scale(0.1 -0.1)">
       <use xlink:href="#DejaVuSerif-2212"/>
       <use xlink:href="#DejaVuSerif-34" x="83.789062"/>
       <use xlink:href="#DejaVuSerif-30" x="147.412109"/>
      </g>
     </g>
    </g>
    <g id="ytick_3">
     <g id="line2d_27">
      <g>
       <use xlink:href="#mbdbc8b0f1e" x="56.73" y="118.324283" style="stroke: #000000; stroke-width: 0.8"/>
      </g>
     </g>
     <g id="line2d_28">
      <g>
       <use xlink:href="#m3e7ae8a32e" x="239.323465" y="118.324283" style="stroke: #000000; stroke-width: 0.8"/>
      </g>
     </g>
     <g id="text_9">
      <!-- −20 -->
      <g transform="translate(32.125313 122.123502)scale(0.1 -0.1)">
       <defs>
        <path id="DejaVuSerif-32" d="M 819 3553 
L 469 3553 
L 469 4384 
Q 803 4563 1142 4656 
Q 1481 4750 1806 4750 
Q 2534 4750 2956 4397 
Q 3378 4044 3378 3438 
Q 3378 2753 2422 1800 
Q 2347 1728 2309 1691 
L 1131 513 
L 3078 513 
L 3078 1088 
L 3444 1088 
L 3444 0 
L 434 0 
L 434 341 
L 1850 1753 
Q 2319 2222 2519 2614 
Q 2719 3006 2719 3438 
Q 2719 3909 2473 4175 
Q 2228 4441 1797 4441 
Q 1350 4441 1106 4219 
Q 863 3997 819 3553 
z
" transform="scale(0.015625)"/>
       </defs>
       <use xlink:href="#DejaVuSerif-2212"/>
       <use xlink:href="#DejaVuSerif-32" x="83.789062"/>
       <use xlink:href="#DejaVuSerif-30" x="147.412109"/>
      </g>
     </g>
    </g>
    <g id="ytick_4">
     <g id="line2d_29">
      <g>
       <use xlink:href="#mbdbc8b0f1e" x="56.73" y="92.973213" style="stroke: #000000; stroke-width: 0.8"/>
      </g>
     </g>
     <g id="line2d_30">
      <g>
       <use xlink:href="#m3e7ae8a32e" x="239.323465" y="92.973213" style="stroke: #000000; stroke-width: 0.8"/>
      </g>
     </g>
     <g id="text_10">
      <!-- 0 -->
      <g transform="translate(46.8675 96.772431)scale(0.1 -0.1)">
       <use xlink:href="#DejaVuSerif-30"/>
      </g>
     </g>
    </g>
    <g id="ytick_5">
     <g id="line2d_31">
      <g>
       <use xlink:href="#mbdbc8b0f1e" x="56.73" y="67.622142" style="stroke: #000000; stroke-width: 0.8"/>
      </g>
     </g>
     <g id="line2d_32">
      <g>
       <use xlink:href="#m3e7ae8a32e" x="239.323465" y="67.622142" style="stroke: #000000; stroke-width: 0.8"/>
      </g>
     </g>
     <g id="text_11">
      <!-- 20 -->
      <g transform="translate(40.505 71.42136)scale(0.1 -0.1)">
       <use xlink:href="#DejaVuSerif-32"/>
       <use xlink:href="#DejaVuSerif-30" x="63.623047"/>
      </g>
     </g>
    </g>
    <g id="ytick_6">
     <g id="line2d_33">
      <g>
       <use xlink:href="#mbdbc8b0f1e" x="56.73" y="42.271071" style="stroke: #000000; stroke-width: 0.8"/>
      </g>
     </g>
     <g id="line2d_34">
      <g>
       <use xlink:href="#m3e7ae8a32e" x="239.323465" y="42.271071" style="stroke: #000000; stroke-width: 0.8"/>
      </g>
     </g>
     <g id="text_12">
      <!-- 40 -->
      <g transform="translate(40.505 46.07029)scale(0.1 -0.1)">
       <use xlink:href="#DejaVuSerif-34"/>
       <use xlink:href="#DejaVuSerif-30" x="63.623047"/>
      </g>
     </g>
    </g>
    <g id="ytick_7">
     <g id="line2d_35">
      <g>
       <use xlink:href="#mbdbc8b0f1e" x="56.73" y="16.92" style="stroke: #000000; stroke-width: 0.8"/>
      </g>
     </g>
     <g id="line2d_36">
      <g>
       <use xlink:href="#m3e7ae8a32e" x="239.323465" y="16.92" style="stroke: #000000; stroke-width: 0.8"/>
      </g>
     </g>
     <g id="text_13">
      <!-- 60 -->
      <g transform="translate(40.505 20.719219)scale(0.1 -0.1)">
       <use xlink:href="#DejaVuSerif-36"/>
       <use xlink:href="#DejaVuSerif-30" x="63.623047"/>
      </g>
     </g>
    </g>
    <g id="ytick_8">
     <g id="line2d_37">
      <defs>
       <path id="m2949e7070f" d="M 0 0 
L 2 0 
" style="stroke: #000000; stroke-width: 0.6"/>
      </defs>
      <g>
       <use xlink:href="#m2949e7070f" x="56.73" y="156.35089" style="stroke: #000000; stroke-width: 0.6"/>
      </g>
     </g>
     <g id="line2d_38">
      <defs>
       <path id="m0435a83c4c" d="M 0 0 
L -2 0 
" style="stroke: #000000; stroke-width: 0.6"/>
      </defs>
      <g>
       <use xlink:href="#m0435a83c4c" x="239.323465" y="156.35089" style="stroke: #000000; stroke-width: 0.6"/>
      </g>
     </g>
    </g>
    <g id="ytick_9">
     <g id="line2d_39">
      <g>
       <use xlink:href="#m2949e7070f" x="56.73" y="130.999819" style="stroke: #000000; stroke-width: 0.6"/>
      </g>
     </g>
     <g id="line2d_40">
      <g>
       <use xlink:href="#m0435a83c4c" x="239.323465" y="130.999819" style="stroke: #000000; stroke-width: 0.6"/>
      </g>
     </g>
    </g>
    <g id="ytick_10">
     <g id="line2d_41">
      <g>
       <use xlink:href="#m2949e7070f" x="56.73" y="105.648748" style="stroke: #000000; stroke-width: 0.6"/>
      </g>
     </g>
     <g id="line2d_42">
      <g>
       <use xlink:href="#m0435a83c4c" x="239.323465" y="105.648748" style="stroke: #000000; stroke-width: 0.6"/>
      </g>
     </g>
    </g>
    <g id="ytick_11">
     <g id="line2d_43">
      <g>
       <use xlink:href="#m2949e7070f" x="56.73" y="80.297677" style="stroke: #000000; stroke-width: 0.6"/>
      </g>
     </g>
     <g id="line2d_44">
      <g>
       <use xlink:href="#m0435a83c4c" x="239.323465" y="80.297677" style="stroke: #000000; stroke-width: 0.6"/>
      </g>
     </g>
    </g>
    <g id="ytick_12">
     <g id="line2d_45">
      <g>
       <use xlink:href="#m2949e7070f" x="56.73" y="54.946606" style="stroke: #000000; stroke-width: 0.6"/>
      </g>
     </g>
     <g id="line2d_46">
      <g>
       <use xlink:href="#m0435a83c4c" x="239.323465" y="54.946606" style="stroke: #000000; stroke-width: 0.6"/>
      </g>
     </g>
    </g>
    <g id="ytick_13">
     <g id="line2d_47">
      <g>
       <use xlink:href="#m2949e7070f" x="56.73" y="29.595535" style="stroke: #000000; stroke-width: 0.6"/>
      </g>
     </g>
     <g id="line2d_48">
      <g>
       <use xlink:href="#m0435a83c4c" x="239.323465" y="29.595535" style="stroke: #000000; stroke-width: 0.6"/>
      </g>
     </g>
    </g>
    <g id="text_14">
     <!-- $\Delta$ Polarization(2D) (pC/m) -->
     <g transform="translate(25.605313 171.753213)rotate(-90)scale(0.12 -0.12)">
      <defs>
       <path id="STIXGeneral-Regular-394" d="M 4320 0 
L 307 0 
L 2221 4314 
L 2349 4314 
L 4320 0 
z
M 3354 589 
L 2118 3405 
L 870 589 
L 3354 589 
z
" transform="scale(0.015625)"/>
       <path id="DejaVuSerif-20" transform="scale(0.015625)"/>
       <path id="DejaVuSerif-50" d="M 1581 2375 
L 2406 2375 
Q 2872 2375 3115 2626 
Q 3359 2878 3359 3353 
Q 3359 3831 3115 4081 
Q 2872 4331 2406 4331 
L 1581 4331 
L 1581 2375 
z
M 353 0 
L 353 331 
L 947 331 
L 947 4331 
L 353 4331 
L 353 4666 
L 2559 4666 
Q 3259 4666 3668 4311 
Q 4078 3956 4078 3353 
Q 4078 2753 3668 2397 
Q 3259 2041 2559 2041 
L 1581 2041 
L 1581 331 
L 2303 331 
L 2303 0 
L 353 0 
z
" transform="scale(0.015625)"/>
       <path id="DejaVuSerif-6f" d="M 1925 219 
Q 2388 219 2623 584 
Q 2859 950 2859 1663 
Q 2859 2375 2623 2739 
Q 2388 3103 1925 3103 
Q 1463 3103 1227 2739 
Q 991 2375 991 1663 
Q 991 950 1228 584 
Q 1466 219 1925 219 
z
M 1925 -91 
Q 1200 -91 759 389 
Q 319 869 319 1663 
Q 319 2456 758 2934 
Q 1197 3413 1925 3413 
Q 2653 3413 3092 2934 
Q 3531 2456 3531 1663 
Q 3531 869 3092 389 
Q 2653 -91 1925 -91 
z
" transform="scale(0.015625)"/>
       <path id="DejaVuSerif-6c" d="M 1313 331 
L 1856 331 
L 1856 0 
L 184 0 
L 184 331 
L 738 331 
L 738 4531 
L 184 4531 
L 184 4863 
L 1313 4863 
L 1313 331 
z
" transform="scale(0.015625)"/>
       <path id="DejaVuSerif-61" d="M 2547 1044 
L 2547 1747 
L 1806 1747 
Q 1378 1747 1168 1562 
Q 959 1378 959 997 
Q 959 650 1171 447 
Q 1384 244 1747 244 
Q 2106 244 2326 466 
Q 2547 688 2547 1044 
z
M 3122 2075 
L 3122 331 
L 3634 331 
L 3634 0 
L 2547 0 
L 2547 359 
Q 2356 128 2106 18 
Q 1856 -91 1522 -91 
Q 969 -91 644 203 
Q 319 497 319 997 
Q 319 1513 691 1797 
Q 1063 2081 1741 2081 
L 2547 2081 
L 2547 2309 
Q 2547 2688 2317 2895 
Q 2088 3103 1672 3103 
Q 1328 3103 1125 2947 
Q 922 2791 872 2484 
L 575 2484 
L 575 3156 
Q 875 3284 1158 3348 
Q 1441 3413 1709 3413 
Q 2400 3413 2761 3070 
Q 3122 2728 3122 2075 
z
" transform="scale(0.015625)"/>
       <path id="DejaVuSerif-72" d="M 3059 3328 
L 3059 2497 
L 2728 2497 
Q 2713 2744 2591 2866 
Q 2469 2988 2234 2988 
Q 1809 2988 1582 2694 
Q 1356 2400 1356 1850 
L 1356 331 
L 2022 331 
L 2022 0 
L 263 0 
L 263 331 
L 781 331 
L 781 2994 
L 231 2994 
L 231 3322 
L 1356 3322 
L 1356 2731 
Q 1525 3078 1790 3245 
Q 2056 3413 2438 3413 
Q 2578 3413 2733 3391 
Q 2888 3369 3059 3328 
z
" transform="scale(0.015625)"/>
       <path id="DejaVuSerif-69" d="M 622 4353 
Q 622 4497 726 4603 
Q 831 4709 978 4709 
Q 1122 4709 1226 4603 
Q 1331 4497 1331 4353 
Q 1331 4206 1228 4103 
Q 1125 4000 978 4000 
Q 831 4000 726 4103 
Q 622 4206 622 4353 
z
M 1356 331 
L 1900 331 
L 1900 0 
L 231 0 
L 231 331 
L 781 331 
L 781 2988 
L 231 2988 
L 231 3322 
L 1356 3322 
L 1356 331 
z
" transform="scale(0.015625)"/>
       <path id="DejaVuSerif-7a" d="M 256 0 
L 256 269 
L 2338 2988 
L 691 2988 
L 691 2413 
L 359 2413 
L 359 3322 
L 3078 3322 
L 3078 3053 
L 997 331 
L 2803 331 
L 2803 934 
L 3138 934 
L 3138 0 
L 256 0 
z
" transform="scale(0.015625)"/>
       <path id="DejaVuSerif-74" d="M 691 2988 
L 184 2988 
L 184 3322 
L 691 3322 
L 691 4353 
L 1269 4353 
L 1269 3322 
L 2350 3322 
L 2350 2988 
L 1269 2988 
L 1269 878 
Q 1269 456 1350 337 
Q 1431 219 1650 219 
Q 1875 219 1978 351 
Q 2081 484 2088 781 
L 2522 781 
Q 2497 328 2275 118 
Q 2053 -91 1600 -91 
Q 1103 -91 897 129 
Q 691 350 691 878 
L 691 2988 
z
" transform="scale(0.015625)"/>
       <path id="DejaVuSerif-6e" d="M 263 0 
L 263 331 
L 781 331 
L 781 2988 
L 231 2988 
L 231 3322 
L 1356 3322 
L 1356 2731 
Q 1516 3069 1770 3241 
Q 2025 3413 2363 3413 
Q 2913 3413 3172 3097 
Q 3431 2781 3431 2113 
L 3431 331 
L 3944 331 
L 3944 0 
L 2356 0 
L 2356 331 
L 2853 331 
L 2853 1931 
Q 2853 2541 2703 2767 
Q 2553 2994 2175 2994 
Q 1775 2994 1565 2701 
Q 1356 2409 1356 1850 
L 1356 331 
L 1856 331 
L 1856 0 
L 263 0 
z
" transform="scale(0.015625)"/>
       <path id="DejaVuSerif-28" d="M 2041 -997 
Q 1281 -656 893 83 
Q 506 822 506 1931 
Q 506 3044 893 3783 
Q 1281 4522 2041 4863 
L 2041 4556 
Q 1559 4225 1350 3623 
Q 1141 3022 1141 1931 
Q 1141 844 1350 242 
Q 1559 -359 2041 -691 
L 2041 -997 
z
" transform="scale(0.015625)"/>
       <path id="DejaVuSerif-44" d="M 1581 331 
L 2163 331 
Q 3072 331 3558 850 
Q 4044 1369 4044 2338 
Q 4044 3306 3559 3818 
Q 3075 4331 2163 4331 
L 1581 4331 
L 1581 331 
z
M 353 0 
L 353 331 
L 947 331 
L 947 4331 
L 353 4331 
L 353 4666 
L 2209 4666 
Q 3416 4666 4089 4050 
Q 4763 3434 4763 2338 
Q 4763 1238 4088 619 
Q 3413 0 2209 0 
L 353 0 
z
" transform="scale(0.015625)"/>
       <path id="DejaVuSerif-29" d="M 453 -997 
L 453 -691 
Q 934 -359 1145 242 
Q 1356 844 1356 1931 
Q 1356 3022 1145 3623 
Q 934 4225 453 4556 
L 453 4863 
Q 1216 4522 1603 3783 
Q 1991 3044 1991 1931 
Q 1991 822 1603 83 
Q 1216 -656 453 -997 
z
" transform="scale(0.015625)"/>
       <path id="DejaVuSerif-70" d="M 1313 1825 
L 1313 1497 
Q 1313 897 1542 583 
Q 1772 269 2209 269 
Q 2650 269 2876 622 
Q 3103 975 3103 1663 
Q 3103 2353 2876 2703 
Q 2650 3053 2209 3053 
Q 1772 3053 1542 2737 
Q 1313 2422 1313 1825 
z
M 738 2988 
L 184 2988 
L 184 3322 
L 1313 3322 
L 1313 2803 
Q 1481 3116 1742 3264 
Q 2003 3413 2388 3413 
Q 3000 3413 3387 2928 
Q 3775 2444 3775 1663 
Q 3775 881 3387 395 
Q 3000 -91 2388 -91 
Q 2003 -91 1742 57 
Q 1481 206 1313 519 
L 1313 -997 
L 1856 -997 
L 1856 -1331 
L 184 -1331 
L 184 -997 
L 738 -997 
L 738 2988 
z
" transform="scale(0.015625)"/>
       <path id="DejaVuSerif-43" d="M 4513 1234 
Q 4306 581 3820 245 
Q 3334 -91 2591 -91 
Q 2134 -91 1743 65 
Q 1353 222 1050 525 
Q 700 875 529 1320 
Q 359 1766 359 2328 
Q 359 3416 987 4083 
Q 1616 4750 2644 4750 
Q 3025 4750 3456 4650 
Q 3888 4550 4384 4347 
L 4384 3272 
L 4031 3272 
Q 3916 3859 3567 4137 
Q 3219 4416 2591 4416 
Q 1844 4416 1459 3886 
Q 1075 3356 1075 2328 
Q 1075 1303 1459 773 
Q 1844 244 2591 244 
Q 3113 244 3450 492 
Q 3788 741 3938 1234 
L 4513 1234 
z
" transform="scale(0.015625)"/>
       <path id="DejaVuSerif-2f" d="M 1656 4666 
L 2156 4666 
L 500 -594 
L 0 -594 
L 1656 4666 
z
" transform="scale(0.015625)"/>
       <path id="DejaVuSerif-6d" d="M 3316 2675 
Q 3481 3041 3739 3227 
Q 3997 3413 4341 3413 
Q 4863 3413 5119 3089 
Q 5375 2766 5375 2113 
L 5375 331 
L 5894 331 
L 5894 0 
L 4300 0 
L 4300 331 
L 4800 331 
L 4800 2047 
Q 4800 2556 4650 2772 
Q 4500 2988 4153 2988 
Q 3769 2988 3567 2697 
Q 3366 2406 3366 1850 
L 3366 331 
L 3866 331 
L 3866 0 
L 2291 0 
L 2291 331 
L 2791 331 
L 2791 2069 
Q 2791 2566 2641 2777 
Q 2491 2988 2144 2988 
Q 1759 2988 1557 2697 
Q 1356 2406 1356 1850 
L 1356 331 
L 1856 331 
L 1856 0 
L 263 0 
L 263 331 
L 781 331 
L 781 2994 
L 231 2994 
L 231 3322 
L 1356 3322 
L 1356 2731 
Q 1516 3063 1762 3238 
Q 2009 3413 2322 3413 
Q 2709 3413 2968 3220 
Q 3228 3028 3316 2675 
z
" transform="scale(0.015625)"/>
      </defs>
      <use xlink:href="#STIXGeneral-Regular-394" transform="translate(0 0.015625)"/>
      <use xlink:href="#DejaVuSerif-20" transform="translate(72.199982 0.015625)"/>
      <use xlink:href="#DejaVuSerif-50" transform="translate(103.987091 0.015625)"/>
      <use xlink:href="#DejaVuSerif-6f" transform="translate(171.272247 0.015625)"/>
      <use xlink:href="#DejaVuSerif-6c" transform="translate(231.477325 0.015625)"/>
      <use xlink:href="#DejaVuSerif-61" transform="translate(263.459747 0.015625)"/>
      <use xlink:href="#DejaVuSerif-72" transform="translate(323.078888 0.015625)"/>
      <use xlink:href="#DejaVuSerif-69" transform="translate(370.881622 0.015625)"/>
      <use xlink:href="#DejaVuSerif-7a" transform="translate(402.864044 0.015625)"/>
      <use xlink:href="#DejaVuSerif-61" transform="translate(455.549591 0.015625)"/>
      <use xlink:href="#DejaVuSerif-74" transform="translate(515.168732 0.015625)"/>
      <use xlink:href="#DejaVuSerif-69" transform="translate(555.354279 0.015625)"/>
      <use xlink:href="#DejaVuSerif-6f" transform="translate(587.3367 0.015625)"/>
      <use xlink:href="#DejaVuSerif-6e" transform="translate(647.541779 0.015625)"/>
      <use xlink:href="#DejaVuSerif-28" transform="translate(711.946075 0.015625)"/>
      <use xlink:href="#DejaVuSerif-32" transform="translate(750.959747 0.015625)"/>
      <use xlink:href="#DejaVuSerif-44" transform="translate(814.582794 0.015625)"/>
      <use xlink:href="#DejaVuSerif-29" transform="translate(894.758575 0.015625)"/>
      <use xlink:href="#DejaVuSerif-20" transform="translate(933.772247 0.015625)"/>
      <use xlink:href="#DejaVuSerif-28" transform="translate(965.559357 0.015625)"/>
      <use xlink:href="#DejaVuSerif-70" transform="translate(1004.573029 0.015625)"/>
      <use xlink:href="#DejaVuSerif-43" transform="translate(1068.5867 0.015625)"/>
      <use xlink:href="#DejaVuSerif-2f" transform="translate(1145.100372 0.015625)"/>
      <use xlink:href="#DejaVuSerif-6d" transform="translate(1178.791779 0.015625)"/>
      <use xlink:href="#DejaVuSerif-29" transform="translate(1273.615997 0.015625)"/>
     </g>
    </g>
   </g>
   <g id="line2d_49">
    <defs>
     <path id="m9581409ac0" d="M 0 3 
C 0.795609 3 1.55874 2.683901 2.12132 2.12132 
C 2.683901 1.55874 3 0.795609 3 0 
C 3 -0.795609 2.683901 -1.55874 2.12132 -2.12132 
C 1.55874 -2.683901 0.795609 -3 0 -3 
C -0.795609 -3 -1.55874 -2.683901 -2.12132 -2.12132 
C -2.683901 -1.55874 -3 -0.795609 -3 0 
C -3 0.795609 -2.683901 1.55874 -2.12132 2.12132 
C -1.55874 2.683901 -0.795609 3 0 3 
z
" style="stroke: #1f77b4"/>
    </defs>
    <g clip-path="url(#pc459b72d34)">
     <use xlink:href="#m9581409ac0" x="56.73" y="139.385821" style="fill-opacity: 0; stroke: #1f77b4"/>
     <use xlink:href="#m9581409ac0" x="74.989346" y="129.719741" style="fill-opacity: 0; stroke: #1f77b4"/>
     <use xlink:href="#m9581409ac0" x="93.248693" y="120.31329" style="fill-opacity: 0; stroke: #1f77b4"/>
     <use xlink:href="#m9581409ac0" x="111.508039" y="111.125925" style="fill-opacity: 0; stroke: #1f77b4"/>
     <use xlink:href="#m9581409ac0" x="129.767386" y="101.281716" style="fill-opacity: 0; stroke: #1f77b4"/>
     <use xlink:href="#m9581409ac0" x="148.026732" y="92.973213" style="fill-opacity: 0; stroke: #1f77b4"/>
     <use xlink:href="#m9581409ac0" x="166.286079" y="86.075539" style="fill-opacity: 0; stroke: #1f77b4"/>
     <use xlink:href="#m9581409ac0" x="184.545425" y="78.800109" style="fill-opacity: 0; stroke: #1f77b4"/>
     <use xlink:href="#m9581409ac0" x="202.804772" y="71.943611" style="fill-opacity: 0; stroke: #1f77b4"/>
     <use xlink:href="#m9581409ac0" x="221.064118" y="64.277821" style="fill-opacity: 0; stroke: #1f77b4"/>
     <use xlink:href="#m9581409ac0" x="239.323465" y="57.870053" style="fill-opacity: 0; stroke: #1f77b4"/>
    </g>
   </g>
   <g id="line2d_50">
    <path d="M 56.73 136.447593 
L 74.989346 128.317472 
L 93.248693 120.18735 
L 111.508039 112.057229 
L 129.767386 103.927107 
L 148.026732 95.796985 
L 166.286079 87.666864 
L 184.545425 79.536742 
L 202.804772 71.406621 
L 221.064118 63.276499 
L 239.323465 55.146378 
" clip-path="url(#pc459b72d34)" style="fill: none; stroke-dasharray: 5.55,2.4; stroke-dashoffset: 0; stroke: #1f77b4; stroke-width: 1.5"/>
   </g>
   <g id="patch_3">
    <path d="M 56.73 169.026425 
L 56.73 16.92 
" style="fill: none; stroke: #000000; stroke-width: 0.8; stroke-linejoin: miter; stroke-linecap: square"/>
   </g>
   <g id="patch_4">
    <path d="M 239.323465 169.026425 
L 239.323465 16.92 
" style="fill: none; stroke: #000000; stroke-width: 0.8; stroke-linejoin: miter; stroke-linecap: square"/>
   </g>
   <g id="patch_5">
    <path d="M 56.73 169.026425 
L 239.323465 169.026425 
" style="fill: none; stroke: #000000; stroke-width: 0.8; stroke-linejoin: miter; stroke-linecap: square"/>
   </g>
   <g id="patch_6">
    <path d="M 56.73 16.92 
L 239.323465 16.92 
" style="fill: none; stroke: #000000; stroke-width: 0.8; stroke-linejoin: miter; stroke-linecap: square"/>
   </g>
   <g id="text_15">
    <!-- e11=32.07 ÅC/m -->
    <g transform="translate(111.508039 143.675354)scale(0.12 -0.12)">
     <defs>
      <path id="DejaVuSerif-65" d="M 3469 1600 
L 991 1600 
L 991 1575 
Q 991 903 1244 561 
Q 1497 219 1991 219 
Q 2369 219 2611 417 
Q 2853 616 2950 1006 
L 3413 1006 
Q 3275 459 2904 184 
Q 2534 -91 1931 -91 
Q 1203 -91 761 389 
Q 319 869 319 1663 
Q 319 2450 753 2931 
Q 1188 3413 1894 3413 
Q 2647 3413 3050 2948 
Q 3453 2484 3469 1600 
z
M 2791 1931 
Q 2772 2513 2545 2808 
Q 2319 3103 1894 3103 
Q 1497 3103 1269 2806 
Q 1041 2509 991 1931 
L 2791 1931 
z
" transform="scale(0.015625)"/>
      <path id="DejaVuSerif-31" d="M 909 0 
L 909 331 
L 1722 331 
L 1722 4213 
L 781 3603 
L 781 4013 
L 1919 4750 
L 2350 4750 
L 2350 331 
L 3163 331 
L 3163 0 
L 909 0 
z
" transform="scale(0.015625)"/>
      <path id="DejaVuSerif-3d" d="M 678 2894 
L 4684 2894 
L 4684 2394 
L 678 2394 
L 678 2894 
z
M 678 1619 
L 4684 1619 
L 4684 1119 
L 678 1119 
L 678 1619 
z
" transform="scale(0.015625)"/>
      <path id="DejaVuSerif-33" d="M 622 4469 
Q 988 4606 1323 4678 
Q 1659 4750 1953 4750 
Q 2638 4750 3022 4454 
Q 3406 4159 3406 3634 
Q 3406 3213 3140 2930 
Q 2875 2647 2388 2547 
Q 2963 2466 3280 2130 
Q 3597 1794 3597 1259 
Q 3597 606 3158 257 
Q 2719 -91 1894 -91 
Q 1528 -91 1179 -12 
Q 831 66 488 225 
L 488 1131 
L 838 1131 
Q 869 681 1141 450 
Q 1413 219 1906 219 
Q 2384 219 2661 495 
Q 2938 772 2938 1253 
Q 2938 1803 2653 2086 
Q 2369 2369 1819 2369 
L 1522 2369 
L 1522 2688 
L 1678 2688 
Q 2225 2688 2498 2914 
Q 2772 3141 2772 3597 
Q 2772 4006 2547 4223 
Q 2322 4441 1900 4441 
Q 1478 4441 1245 4241 
Q 1013 4041 972 3647 
L 622 3647 
L 622 4469 
z
" transform="scale(0.015625)"/>
      <path id="DejaVuSerif-37" d="M 3609 4347 
L 1784 0 
L 1319 0 
L 3059 4153 
L 903 4153 
L 903 3578 
L 538 3578 
L 538 4666 
L 3609 4666 
L 3609 4347 
z
" transform="scale(0.015625)"/>
      <path id="DejaVuSerif-c5" d="M 2772 5081 
Q 2772 5278 2633 5417 
Q 2494 5556 2297 5556 
Q 2097 5556 1961 5420 
Q 1825 5284 1825 5081 
Q 1825 4884 1961 4746 
Q 2097 4609 2297 4609 
Q 2494 4609 2633 4746 
Q 2772 4884 2772 5081 
z
M 1281 1691 
L 2988 1691 
L 2138 3909 
L 1281 1691 
z
M -38 0 
L -38 331 
L 372 331 
L 1900 4325 
Q 1675 4441 1558 4631 
Q 1441 4822 1441 5081 
Q 1441 5438 1691 5689 
Q 1941 5941 2297 5941 
Q 2653 5941 2904 5689 
Q 3156 5438 3156 5081 
Q 3156 4831 3034 4632 
Q 2913 4434 2688 4325 
L 4225 331 
L 4684 331 
L 4684 0 
L 2988 0 
L 2988 331 
L 3506 331 
L 3116 1356 
L 1153 1356 
L 763 331 
L 1275 331 
L 1275 0 
L -38 0 
z
" transform="scale(0.015625)"/>
     </defs>
     <use xlink:href="#DejaVuSerif-65"/>
     <use xlink:href="#DejaVuSerif-31" x="59.179688"/>
     <use xlink:href="#DejaVuSerif-31" x="122.802734"/>
     <use xlink:href="#DejaVuSerif-3d" x="186.425781"/>
     <use xlink:href="#DejaVuSerif-33" x="270.214844"/>
     <use xlink:href="#DejaVuSerif-32" x="333.837891"/>
     <use xlink:href="#DejaVuSerif-2e" x="397.460938"/>
     <use xlink:href="#DejaVuSerif-30" x="429.248047"/>
     <use xlink:href="#DejaVuSerif-37" x="492.871094"/>
     <use xlink:href="#DejaVuSerif-20" x="556.494141"/>
     <use xlink:href="#DejaVuSerif-c5" x="588.28125"/>
     <use xlink:href="#DejaVuSerif-43" x="660.498047"/>
     <use xlink:href="#DejaVuSerif-2f" x="737.011719"/>
     <use xlink:href="#DejaVuSerif-6d" x="770.703125"/>
    </g>
   </g>
   <g id="legend_1">
    <g id="patch_7">
     <path d="M 180.065652 46.77625 
L 232.323465 46.77625 
Q 234.323465 46.77625 234.323465 44.77625 
L 234.323465 23.92 
Q 234.323465 21.92 232.323465 21.92 
L 180.065652 21.92 
Q 178.065652 21.92 178.065652 23.92 
L 178.065652 44.77625 
Q 178.065652 46.77625 180.065652 46.77625 
z
" style="fill: #ffffff; opacity: 0.8; stroke: #cccccc; stroke-linejoin: miter"/>
    </g>
    <g id="line2d_51">
     <g>
      <use xlink:href="#m9581409ac0" x="190.065652" y="28.018437" style="fill-opacity: 0; stroke: #1f77b4"/>
     </g>
    </g>
    <g id="text_16">
     <!-- SnSe -->
     <g transform="translate(205.065652 31.518437)scale(0.1 -0.1)">
      <defs>
       <path id="DejaVuSerif-53" d="M 594 225 
L 594 1288 
L 953 1284 
Q 969 753 1261 498 
Q 1553 244 2150 244 
Q 2706 244 2998 464 
Q 3291 684 3291 1106 
Q 3291 1444 3114 1625 
Q 2938 1806 2369 1978 
L 1753 2163 
Q 1084 2366 811 2669 
Q 538 2972 538 3500 
Q 538 4094 959 4422 
Q 1381 4750 2144 4750 
Q 2469 4750 2856 4679 
Q 3244 4609 3681 4475 
L 3681 3481 
L 3328 3481 
Q 3275 3975 2998 4195 
Q 2722 4416 2156 4416 
Q 1663 4416 1405 4214 
Q 1147 4013 1147 3628 
Q 1147 3294 1340 3103 
Q 1534 2913 2163 2725 
L 2741 2553 
Q 3375 2363 3645 2067 
Q 3916 1772 3916 1275 
Q 3916 597 3481 253 
Q 3047 -91 2188 -91 
Q 1803 -91 1404 -12 
Q 1006 66 594 225 
z
" transform="scale(0.015625)"/>
      </defs>
      <use xlink:href="#DejaVuSerif-53"/>
      <use xlink:href="#DejaVuSerif-6e" x="68.505859"/>
      <use xlink:href="#DejaVuSerif-53" x="132.910156"/>
      <use xlink:href="#DejaVuSerif-65" x="201.416016"/>
     </g>
    </g>
    <g id="line2d_52">
     <path d="M 180.065652 39.196562 
L 190.065652 39.196562 
L 200.065652 39.196562 
" style="fill: none; stroke-dasharray: 5.55,2.4; stroke-dashoffset: 0; stroke: #1f77b4; stroke-width: 1.5"/>
    </g>
    <g id="text_17">
     <!-- fitted -->
     <g transform="translate(205.065652 42.696562)scale(0.1 -0.1)">
      <defs>
       <path id="DejaVuSerif-66" d="M 2753 4078 
L 2450 4078 
Q 2447 4313 2317 4434 
Q 2188 4556 1941 4556 
Q 1619 4556 1487 4379 
Q 1356 4203 1356 3750 
L 1356 3322 
L 2284 3322 
L 2284 2988 
L 1356 2988 
L 1356 331 
L 2094 331 
L 2094 0 
L 231 0 
L 231 331 
L 781 331 
L 781 2988 
L 231 2988 
L 231 3322 
L 781 3322 
L 781 3738 
Q 781 4294 1070 4578 
Q 1359 4863 1919 4863 
Q 2128 4863 2337 4825 
Q 2547 4788 2753 4709 
L 2753 4078 
z
" transform="scale(0.015625)"/>
       <path id="DejaVuSerif-64" d="M 3359 331 
L 3909 331 
L 3909 0 
L 2784 0 
L 2784 519 
Q 2616 206 2355 57 
Q 2094 -91 1709 -91 
Q 1097 -91 708 395 
Q 319 881 319 1663 
Q 319 2444 706 2928 
Q 1094 3413 1709 3413 
Q 2094 3413 2355 3264 
Q 2616 3116 2784 2803 
L 2784 4531 
L 2241 4531 
L 2241 4863 
L 3359 4863 
L 3359 331 
z
M 2784 1497 
L 2784 1825 
Q 2784 2422 2554 2737 
Q 2325 3053 1888 3053 
Q 1444 3053 1217 2703 
Q 991 2353 991 1663 
Q 991 975 1217 622 
Q 1444 269 1888 269 
Q 2325 269 2554 583 
Q 2784 897 2784 1497 
z
" transform="scale(0.015625)"/>
      </defs>
      <use xlink:href="#DejaVuSerif-66"/>
      <use xlink:href="#DejaVuSerif-69" x="37.011719"/>
      <use xlink:href="#DejaVuSerif-74" x="68.994141"/>
      <use xlink:href="#DejaVuSerif-74" x="109.179688"/>
      <use xlink:href="#DejaVuSerif-65" x="149.365234"/>
      <use xlink:href="#DejaVuSerif-64" x="208.544922"/>
     </g>
    </g>
   </g>
  </g>
 </g>
 <defs>
  <clipPath id="pc459b72d34">
   <rect x="56.73" y="16.92" width="182.593465" height="152.106425"/>
  </clipPath>
 </defs>
</svg>
