<?xml version="1.0" encoding="utf-8" standalone="no"?>
<!DOCTYPE svg PUBLIC "-//W3C//DTD SVG 1.1//EN"
  "http://www.w3.org/Graphics/SVG/1.1/DTD/svg11.dtd">
<svg xmlns:xlink="http://www.w3.org/1999/xlink" width="240.944882pt" height="240.944882pt" viewBox="0 0 240.944882 240.944882" xmlns="http://www.w3.org/2000/svg" version="1.1">
 <metadata>
  <rdf:RDF xmlns:dc="http://purl.org/dc/elements/1.1/" xmlns:cc="http://creativecommons.org/ns#" xmlns:rdf="http://www.w3.org/1999/02/22-rdf-syntax-ns#">
   <cc:Work>
    <dc:type rdf:resource="http://purl.org/dc/dcmitype/StillImage"/>
    <dc:date>2023-04-12T17:28:26.043452</dc:date>
    <dc:format>image/svg+xml</dc:format>
    <dc:creator>
     <cc:Agent>
      <dc:title>Matplotlib v3.5.2, https://matplotlib.org/</dc:title>
     </cc:Agent>
    </dc:creator>
   </cc:Work>
  </rdf:RDF>
 </metadata>
 <defs>
  <style type="text/css">*{stroke-linejoin: round; stroke-linecap: butt}</style>
 </defs>
 <g id="figure_1">
  <g id="patch_1">
   <path d="M 0 240.944882 
L 240.944882 240.944882 
L 240.944882 0 
L 0 0 
z
" style="fill: #ffffff"/>
  </g>
  <g id="axes_1">
   <g id="patch_2">
    <path d="M 45.03 207.536132 
L 236.118632 207.536132 
L 236.118632 16.04625 
L 45.03 16.04625 
z
" style="fill: #ffffff"/>
   </g>
   <g id="matplotlib.axis_1">
    <g id="xtick_1">
     <g id="line2d_1">
      <defs>
       <path id="m14d64d33bb" d="M 0 0 
L 0 -3.5 
" style="stroke: #000000; stroke-width: 0.8"/>
      </defs>
      <g>
       <use xlink:href="#m14d64d33bb" x="45.03" y="207.536132" style="stroke: #000000; stroke-width: 0.8"/>
      </g>
     </g>
     <g id="line2d_2">
      <defs>
       <path id="mb1b0ecf71b" d="M 0 0 
L 0 3.5 
" style="stroke: #000000; stroke-width: 0.8"/>
      </defs>
      <g>
       <use xlink:href="#mb1b0ecf71b" x="45.03" y="16.04625" style="stroke: #000000; stroke-width: 0.8"/>
      </g>
     </g>
     <g id="text_1">
      <!-- $\Gamma$ -->
      <g transform="translate(40.62 220.753007)scale(0.14 -0.14)">
       <defs>
        <path id="Cmr10-a1" d="M 197 0 
L 197 225 
Q 856 225 856 428 
L 856 3944 
Q 856 4147 197 4147 
L 197 4372 
L 3547 4372 
L 3725 2906 
L 3541 2906 
Q 3494 3313 3433 3534 
Q 3372 3756 3247 3892 
Q 3122 4028 2897 4087 
Q 2672 4147 2272 4147 
L 1778 4147 
Q 1663 4147 1598 4137 
Q 1534 4128 1493 4083 
Q 1453 4038 1453 3944 
L 1453 428 
Q 1453 225 2272 225 
L 2272 0 
L 197 0 
z
" transform="scale(0.015625)"/>
       </defs>
       <use xlink:href="#Cmr10-a1" transform="translate(0 0.6875)"/>
      </g>
     </g>
    </g>
    <g id="xtick_2">
     <g id="line2d_3">
      <g>
       <use xlink:href="#m14d64d33bb" x="100.432567" y="207.536132" style="stroke: #000000; stroke-width: 0.8"/>
      </g>
     </g>
     <g id="line2d_4">
      <g>
       <use xlink:href="#mb1b0ecf71b" x="100.432567" y="16.04625" style="stroke: #000000; stroke-width: 0.8"/>
      </g>
     </g>
     <g id="text_2">
      <!-- X -->
      <g transform="translate(94.531786 220.753007)scale(0.14 -0.14)">
       <defs>
        <path id="LMRoman7-Regular-58" d="M 5152 0 
L 5152 230 
L 5024 230 
C 4602 230 4525 294 4410 448 
L 2893 2451 
L 3885 3744 
C 4179 4134 4672 4141 4851 4141 
L 4851 4371 
C 4614 4352 4378 4346 4141 4346 
L 3290 4371 
L 3290 4141 
C 3584 4128 3642 3949 3642 3878 
C 3642 3802 3610 3763 3565 3706 
L 2752 2643 
L 1830 3866 
C 1773 3930 1773 3942 1773 3962 
C 1773 4045 1920 4134 2150 4141 
L 2150 4371 
L 1178 4346 
C 870 4346 378 4371 339 4371 
L 339 4141 
L 467 4141 
C 845 4141 954 4096 1082 3923 
L 2394 2176 
L 1229 653 
C 1101 486 858 230 243 230 
L 243 0 
C 480 19 717 26 954 26 
C 1261 26 1773 0 1805 0 
L 1805 230 
C 1536 243 1453 397 1453 493 
C 1453 512 1453 576 1523 666 
L 2541 1990 
L 3667 499 
C 3680 480 3712 435 3712 410 
C 3712 333 3590 237 3334 230 
L 3334 0 
L 4314 26 
C 4614 26 5114 0 5152 0 
z
" transform="scale(0.015625)"/>
       </defs>
       <use xlink:href="#LMRoman7-Regular-58"/>
      </g>
     </g>
    </g>
    <g id="xtick_3">
     <g id="line2d_5">
      <g>
       <use xlink:href="#m14d64d33bb" x="156.994184" y="207.536132" style="stroke: #000000; stroke-width: 0.8"/>
      </g>
     </g>
     <g id="line2d_6">
      <g>
       <use xlink:href="#mb1b0ecf71b" x="156.994184" y="16.04625" style="stroke: #000000; stroke-width: 0.8"/>
      </g>
     </g>
     <g id="text_3">
      <!-- M -->
      <g transform="translate(149.798403 220.753007)scale(0.14 -0.14)">
       <defs>
        <path id="LMRoman7-Regular-4d" d="M 6176 0 
L 6176 230 
L 6022 230 
C 5530 230 5517 294 5517 518 
L 5517 3853 
C 5517 4070 5530 4141 6022 4141 
L 6176 4141 
L 6176 4371 
L 5062 4371 
C 4934 4371 4877 4371 4826 4243 
L 3290 614 
L 1760 4230 
C 1702 4371 1651 4371 1517 4371 
L 397 4371 
L 397 4141 
L 550 4141 
C 1043 4141 1056 4077 1056 3853 
L 1056 691 
C 1056 518 1056 230 397 230 
L 397 0 
C 659 19 915 26 1178 26 
C 1440 26 1696 19 1958 0 
L 1958 230 
C 1299 230 1299 518 1299 691 
L 1299 4064 
L 1306 4070 
L 2970 147 
C 3002 70 3034 0 3130 0 
C 3174 0 3232 19 3283 134 
L 4973 4134 
L 4979 4128 
L 4979 518 
C 4979 301 4966 230 4474 230 
L 4320 230 
L 4320 0 
L 5248 26 
L 6176 0 
z
" transform="scale(0.015625)"/>
       </defs>
       <use xlink:href="#LMRoman7-Regular-4d"/>
      </g>
     </g>
    </g>
    <g id="xtick_4">
     <g id="line2d_7">
      <g>
       <use xlink:href="#m14d64d33bb" x="236.118632" y="207.536132" style="stroke: #000000; stroke-width: 0.8"/>
      </g>
     </g>
     <g id="line2d_8">
      <g>
       <use xlink:href="#mb1b0ecf71b" x="236.118632" y="16.04625" style="stroke: #000000; stroke-width: 0.8"/>
      </g>
     </g>
     <g id="text_4">
      <!-- $\Gamma$ -->
      <g transform="translate(231.708632 220.753007)scale(0.14 -0.14)">
       <use xlink:href="#Cmr10-a1" transform="translate(0 0.6875)"/>
      </g>
     </g>
    </g>
    <g id="text_5">
     <!-- K-Path -->
     <g transform="translate(114.863535 237.186757)scale(0.14 -0.14)">
      <defs>
       <path id="LMRoman7-Regular-4b" d="M 5242 0 
L 5242 230 
C 4896 230 4749 243 4506 563 
L 2899 2662 
L 4198 3770 
C 4512 4038 4838 4134 5146 4141 
L 5146 4371 
C 4966 4358 4781 4346 4602 4346 
L 3718 4371 
L 3718 4141 
C 3808 4141 3955 4109 3955 3955 
C 3955 3910 3930 3840 3898 3808 
L 1626 1862 
L 1626 3853 
C 1626 4070 1638 4141 2131 4141 
L 2285 4141 
L 2285 4371 
L 1325 4346 
L 358 4371 
L 358 4141 
L 512 4141 
C 1005 4141 1018 4077 1018 3853 
L 1018 518 
C 1018 301 1005 230 512 230 
L 358 230 
L 358 0 
L 1318 26 
L 2285 0 
L 2285 230 
L 2131 230 
C 1638 230 1626 294 1626 518 
L 1626 1574 
L 2490 2310 
L 3795 608 
C 3834 557 3891 486 3891 403 
C 3891 230 3667 230 3552 230 
L 3552 0 
L 4506 26 
C 4730 26 5152 6 5242 0 
z
" transform="scale(0.015625)"/>
       <path id="LMRoman7-Regular-2d" d="M 2010 1158 
L 2010 1594 
L 128 1594 
L 128 1158 
L 2010 1158 
z
" transform="scale(0.015625)"/>
       <path id="LMRoman7-Regular-50" d="M 4461 3168 
C 4461 3802 3744 4371 2803 4371 
L 371 4371 
L 371 4141 
L 525 4141 
C 1018 4141 1030 4077 1030 3853 
L 1030 518 
C 1030 301 1018 230 525 230 
L 371 230 
L 371 0 
L 1331 26 
L 2298 0 
L 2298 230 
L 2144 230 
C 1651 230 1638 294 1638 518 
L 1638 1984 
L 2803 1984 
C 3731 1984 4461 2522 4461 3168 
z
M 3776 3168 
C 3776 2886 3776 2189 2643 2189 
L 1613 2189 
L 1613 3891 
C 1613 4090 1619 4141 1920 4141 
L 2643 4141 
C 3712 4141 3776 3539 3776 3168 
z
" transform="scale(0.015625)"/>
       <path id="LMRoman7-Regular-61" d="M 3482 576 
L 3482 928 
L 3264 928 
L 3264 582 
C 3264 518 3264 211 3027 211 
C 2790 211 2790 512 2790 595 
L 2790 1715 
C 2790 2054 2790 2298 2496 2534 
C 2234 2752 1926 2854 1549 2854 
C 941 2854 512 2624 512 2234 
C 512 2029 653 1920 819 1920 
C 992 1920 1120 2048 1120 2221 
C 1120 2330 1069 2464 896 2515 
C 1126 2675 1498 2675 1536 2675 
C 1894 2675 2285 2438 2285 1901 
L 2285 1702 
C 1933 1690 1510 1670 1043 1498 
C 467 1286 288 934 288 646 
C 288 96 954 -64 1408 -64 
C 1920 -64 2221 224 2355 474 
C 2381 211 2554 -32 2848 -32 
C 2848 -32 3482 -32 3482 576 
z
M 2285 902 
C 2285 288 1747 115 1459 115 
C 1133 115 826 333 826 646 
C 826 998 1133 1491 2285 1536 
L 2285 902 
z
" transform="scale(0.015625)"/>
       <path id="LMRoman7-Regular-74" d="M 2400 806 
L 2400 1158 
L 2182 1158 
L 2182 813 
C 2182 378 1978 141 1728 141 
C 1286 141 1286 678 1286 794 
L 1286 2528 
L 2285 2528 
L 2285 2758 
L 1286 2758 
L 1286 3936 
L 1069 3936 
C 1062 3360 800 2726 186 2707 
L 186 2528 
L 781 2528 
L 781 800 
C 781 83 1318 -64 1677 -64 
C 2106 -64 2400 301 2400 806 
z
" transform="scale(0.015625)"/>
       <path id="LMRoman7-Regular-68" d="M 3776 0 
L 3776 230 
C 3360 230 3296 230 3296 506 
L 3296 1939 
C 3296 2496 3021 2822 2336 2822 
C 1766 2822 1453 2483 1312 2240 
L 1306 2240 
L 1306 4442 
L 346 4371 
L 346 4141 
C 774 4141 826 4096 826 3782 
L 826 506 
C 826 230 762 230 346 230 
L 346 0 
C 346 0 806 26 1075 26 
C 1312 26 1754 6 1811 0 
L 1811 230 
C 1395 230 1331 230 1331 506 
L 1331 1658 
C 1331 2330 1862 2643 2285 2643 
C 2733 2643 2790 2291 2790 1965 
L 2790 506 
C 2790 230 2726 230 2310 230 
L 2310 0 
C 2310 0 2771 26 3040 26 
C 3277 26 3718 6 3776 0 
z
" transform="scale(0.015625)"/>
      </defs>
      <use xlink:href="#LMRoman7-Regular-4b"/>
      <use xlink:href="#LMRoman7-Regular-2d" x="87.399994"/>
      <use xlink:href="#LMRoman7-Regular-50" x="125.899979"/>
      <use xlink:href="#LMRoman7-Regular-61" x="202.699966"/>
      <use xlink:href="#LMRoman7-Regular-74" x="259.59996"/>
      <use xlink:href="#LMRoman7-Regular-68" x="304.199951"/>
     </g>
    </g>
   </g>
   <g id="matplotlib.axis_2">
    <g id="ytick_1">
     <g id="line2d_9">
      <defs>
       <path id="m996274af99" d="M 0 0 
L 3.5 0 
" style="stroke: #000000; stroke-width: 0.8"/>
      </defs>
      <g>
       <use xlink:href="#m996274af99" x="45.03" y="207.536132" style="stroke: #000000; stroke-width: 0.8"/>
      </g>
     </g>
     <g id="line2d_10">
      <defs>
       <path id="mb472aa2404" d="M 0 0 
L -3.5 0 
" style="stroke: #000000; stroke-width: 0.8"/>
      </defs>
      <g>
       <use xlink:href="#mb472aa2404" x="236.118632" y="207.536132" style="stroke: #000000; stroke-width: 0.8"/>
      </g>
     </g>
     <g id="text_6">
      <!-- −2 -->
      <g transform="translate(21.284688 212.394569)scale(0.14 -0.14)">
       <defs>
        <path id="LMRoman7-Regular-2212" d="M 5158 1606 
C 5158 1760 5005 1760 4922 1760 
L 685 1760 
C 602 1760 448 1760 448 1606 
C 448 1446 595 1446 691 1446 
L 4915 1446 
C 5011 1446 5158 1446 5158 1606 
z
" transform="scale(0.015625)"/>
        <path id="LMRoman7-Regular-32" d="M 3232 1165 
L 3014 1165 
C 2995 1024 2931 646 2848 582 
C 2797 544 2304 544 2214 544 
L 1037 544 
C 1709 1139 1933 1318 2317 1619 
C 2790 1997 3232 2394 3232 3002 
C 3232 3776 2554 4250 1734 4250 
C 941 4250 403 3693 403 3104 
C 403 2778 678 2746 742 2746 
C 896 2746 1082 2854 1082 3085 
C 1082 3200 1037 3424 704 3424 
C 902 3878 1338 4019 1638 4019 
C 2278 4019 2611 3520 2611 3002 
C 2611 2445 2214 2003 2010 1773 
L 467 250 
C 403 192 403 179 403 0 
L 3040 0 
L 3232 1165 
z
" transform="scale(0.015625)"/>
       </defs>
       <use xlink:href="#LMRoman7-Regular-2212"/>
       <use xlink:href="#LMRoman7-Regular-32" x="87.699982"/>
      </g>
     </g>
    </g>
    <g id="ytick_2">
     <g id="line2d_11">
      <g>
       <use xlink:href="#m996274af99" x="45.03" y="159.663661" style="stroke: #000000; stroke-width: 0.8"/>
      </g>
     </g>
     <g id="line2d_12">
      <g>
       <use xlink:href="#mb472aa2404" x="236.118632" y="159.663661" style="stroke: #000000; stroke-width: 0.8"/>
      </g>
     </g>
     <g id="text_7">
      <!-- −1 -->
      <g transform="translate(21.284688 164.522099)scale(0.14 -0.14)">
       <defs>
        <path id="LMRoman7-Regular-31" d="M 3027 0 
L 3027 230 
L 2784 230 
C 2144 230 2144 314 2144 525 
L 2144 4070 
C 2144 4243 2131 4250 1952 4250 
C 1542 3846 960 3840 698 3840 
L 698 3610 
C 851 3610 1274 3610 1626 3789 
L 1626 525 
C 1626 314 1626 230 986 230 
L 742 230 
L 742 0 
L 1882 26 
L 3027 0 
z
" transform="scale(0.015625)"/>
       </defs>
       <use xlink:href="#LMRoman7-Regular-2212"/>
       <use xlink:href="#LMRoman7-Regular-31" x="87.699982"/>
      </g>
     </g>
    </g>
    <g id="ytick_3">
     <g id="line2d_13">
      <g>
       <use xlink:href="#m996274af99" x="45.03" y="111.791191" style="stroke: #000000; stroke-width: 0.8"/>
      </g>
     </g>
     <g id="line2d_14">
      <g>
       <use xlink:href="#mb472aa2404" x="236.118632" y="111.791191" style="stroke: #000000; stroke-width: 0.8"/>
      </g>
     </g>
     <g id="text_8">
      <!-- 0 -->
      <g transform="translate(33.563125 116.649628)scale(0.14 -0.14)">
       <defs>
        <path id="LMRoman7-Regular-30" d="M 3302 2042 
C 3302 2746 3219 3251 2925 3699 
C 2726 3994 2330 4250 1818 4250 
C 333 4250 333 2502 333 2042 
C 333 1581 333 -128 1818 -128 
C 3302 -128 3302 1581 3302 2042 
z
M 2720 2125 
C 2720 1651 2720 1178 2637 774 
C 2509 192 2074 51 1818 51 
C 1523 51 1133 224 1005 749 
C 915 1126 915 1651 915 2125 
C 915 2592 915 3078 1011 3430 
C 1146 3936 1555 4070 1818 4070 
C 2163 4070 2496 3859 2611 3488 
C 2714 3142 2720 2682 2720 2125 
z
" transform="scale(0.015625)"/>
       </defs>
       <use xlink:href="#LMRoman7-Regular-30"/>
      </g>
     </g>
    </g>
    <g id="ytick_4">
     <g id="line2d_15">
      <g>
       <use xlink:href="#m996274af99" x="45.03" y="63.91872" style="stroke: #000000; stroke-width: 0.8"/>
      </g>
     </g>
     <g id="line2d_16">
      <g>
       <use xlink:href="#mb472aa2404" x="236.118632" y="63.91872" style="stroke: #000000; stroke-width: 0.8"/>
      </g>
     </g>
     <g id="text_9">
      <!-- 1 -->
      <g transform="translate(33.563125 68.777158)scale(0.14 -0.14)">
       <use xlink:href="#LMRoman7-Regular-31"/>
      </g>
     </g>
    </g>
    <g id="ytick_5">
     <g id="line2d_17">
      <g>
       <use xlink:href="#m996274af99" x="45.03" y="16.04625" style="stroke: #000000; stroke-width: 0.8"/>
      </g>
     </g>
     <g id="line2d_18">
      <g>
       <use xlink:href="#mb472aa2404" x="236.118632" y="16.04625" style="stroke: #000000; stroke-width: 0.8"/>
      </g>
     </g>
     <g id="text_10">
      <!-- 2 -->
      <g transform="translate(33.563125 20.904687)scale(0.14 -0.14)">
       <use xlink:href="#LMRoman7-Regular-32"/>
      </g>
     </g>
    </g>
    <g id="text_11">
     <!-- E-$\mathrm{E_{VBM}}$ (eV) -->
     <g transform="translate(13.784687 155.471191)rotate(-90)scale(0.14 -0.14)">
      <defs>
       <path id="LMRoman7-Regular-45" d="M 4659 1683 
L 4442 1683 
C 4275 717 4128 230 2944 230 
L 1933 230 
C 1632 230 1626 282 1626 480 
L 1626 2144 
L 2272 2144 
C 2918 2144 3014 1952 3014 1395 
L 3232 1395 
L 3232 3123 
L 3014 3123 
C 3014 2566 2918 2374 2272 2374 
L 1626 2374 
L 1626 3866 
C 1626 4064 1632 4115 1933 4115 
L 2893 4115 
C 3942 4115 4128 3770 4243 2874 
L 4461 2874 
L 4269 4346 
L 358 4346 
L 358 4115 
L 512 4115 
C 1005 4115 1018 4051 1018 3827 
L 1018 518 
C 1018 301 1005 230 512 230 
L 358 230 
L 358 0 
L 4371 0 
L 4659 1683 
z
" transform="scale(0.015625)"/>
       <path id="Cmr10-45" d="M 197 0 
L 197 225 
Q 856 225 856 428 
L 856 3944 
Q 856 4147 197 4147 
L 197 4372 
L 3816 4372 
L 3994 2906 
L 3809 2906 
Q 3741 3459 3617 3709 
Q 3494 3959 3222 4053 
Q 2950 4147 2406 4147 
L 1778 4147 
Q 1663 4147 1598 4137 
Q 1534 4128 1493 4083 
Q 1453 4038 1453 3944 
L 1453 2381 
L 1925 2381 
Q 2250 2381 2411 2436 
Q 2572 2491 2633 2645 
Q 2694 2800 2694 3128 
L 2881 3128 
L 2881 1409 
L 2694 1409 
Q 2694 1734 2633 1890 
Q 2572 2047 2411 2101 
Q 2250 2156 1925 2156 
L 1453 2156 
L 1453 428 
Q 1453 291 1531 258 
Q 1609 225 1778 225 
L 2456 225 
Q 2900 225 3173 295 
Q 3447 366 3598 530 
Q 3750 694 3833 955 
Q 3916 1216 3988 1678 
L 4172 1678 
L 3903 0 
L 197 0 
z
" transform="scale(0.015625)"/>
       <path id="Cmr10-56" d="M 2253 -72 
L 744 3944 
Q 688 4078 528 4112 
Q 369 4147 122 4147 
L 122 4372 
L 1881 4372 
L 1881 4147 
Q 1350 4147 1350 3981 
Q 1353 3972 1354 3964 
Q 1356 3956 1356 3944 
L 2584 678 
L 3744 3769 
Q 3756 3794 3756 3847 
Q 3756 4003 3612 4075 
Q 3469 4147 3291 4147 
L 3291 4372 
L 4672 4372 
L 4672 4147 
Q 4431 4147 4248 4058 
Q 4066 3969 3988 3769 
L 2541 -72 
Q 2522 -141 2438 -141 
L 2356 -141 
Q 2272 -141 2253 -72 
z
" transform="scale(0.015625)"/>
       <path id="Cmr10-42" d="M 219 0 
L 219 225 
Q 878 225 878 428 
L 878 3944 
Q 878 4147 219 4147 
L 219 4372 
L 2572 4372 
Q 2897 4372 3228 4245 
Q 3559 4119 3776 3870 
Q 3994 3622 3994 3284 
Q 3994 2894 3673 2630 
Q 3353 2366 2925 2284 
Q 3203 2284 3497 2131 
Q 3791 1978 3978 1722 
Q 4166 1466 4166 1178 
Q 4166 828 3958 559 
Q 3750 291 3419 145 
Q 3088 0 2753 0 
L 219 0 
z
M 1434 428 
Q 1434 291 1512 258 
Q 1591 225 1759 225 
L 2572 225 
Q 2822 225 3036 356 
Q 3250 488 3375 708 
Q 3500 928 3500 1178 
Q 3500 1422 3397 1655 
Q 3294 1888 3101 2038 
Q 2909 2188 2663 2188 
L 1434 2188 
L 1434 428 
z
M 1434 2356 
L 2394 2356 
Q 2588 2356 2758 2426 
Q 2928 2497 3064 2630 
Q 3200 2763 3273 2930 
Q 3347 3097 3347 3284 
Q 3347 3450 3292 3603 
Q 3238 3756 3131 3881 
Q 3025 4006 2881 4076 
Q 2738 4147 2572 4147 
L 1759 4147 
Q 1644 4147 1580 4137 
Q 1516 4128 1475 4083 
Q 1434 4038 1434 3944 
L 1434 2356 
z
" transform="scale(0.015625)"/>
       <path id="Cmr10-4d" d="M 225 0 
L 225 225 
Q 884 225 884 603 
L 884 3944 
Q 884 4147 225 4147 
L 225 4372 
L 1434 4372 
Q 1513 4372 1538 4300 
L 2931 678 
L 4325 4300 
Q 4350 4372 4428 4372 
L 5638 4372 
L 5638 4147 
Q 4978 4147 4978 3944 
L 4978 428 
Q 4978 225 5638 225 
L 5638 0 
L 3775 0 
L 3775 225 
Q 4434 225 4434 428 
L 4434 4153 
L 2859 72 
Q 2831 0 2753 0 
Q 2672 0 2644 72 
L 1088 4103 
L 1088 603 
Q 1088 225 1747 225 
L 1747 0 
L 225 0 
z
" transform="scale(0.015625)"/>
       <path id="LMRoman7-Regular-20" transform="scale(0.015625)"/>
       <path id="LMRoman7-Regular-28" d="M 2400 -1517 
C 2400 -1478 2381 -1466 2336 -1421 
C 1485 -653 1171 435 1171 1600 
C 1171 3328 1830 4173 2355 4646 
C 2381 4672 2400 4691 2400 4723 
C 2400 4800 2323 4800 2272 4800 
C 1056 3942 736 2586 736 1606 
C 736 704 1005 -698 2272 -1594 
C 2323 -1594 2400 -1594 2400 -1517 
z
" transform="scale(0.015625)"/>
       <path id="LMRoman7-Regular-65" d="M 2995 768 
C 2995 794 2982 858 2886 858 
C 2803 858 2790 819 2771 755 
C 2573 237 2086 141 1856 141 
C 1555 141 1267 275 1075 518 
C 838 819 832 1210 832 1459 
L 2816 1459 
C 2950 1459 2995 1459 2995 1600 
C 2995 2163 2682 2854 1728 2854 
C 890 2854 250 2189 250 1402 
C 250 589 960 -64 1811 -64 
C 2675 -64 2995 627 2995 768 
z
M 2547 1626 
L 838 1626 
C 909 2528 1485 2675 1728 2675 
C 2515 2675 2541 1786 2547 1626 
z
" transform="scale(0.015625)"/>
       <path id="LMRoman7-Regular-56" d="M 5190 4141 
L 5190 4371 
C 5005 4352 4755 4346 4570 4346 
C 4314 4346 3840 4371 3802 4371 
L 3802 4141 
C 4038 4141 4243 4038 4243 3840 
C 4243 3795 4230 3750 4211 3706 
L 2886 614 
L 1504 3859 
C 1466 3936 1466 3949 1466 3968 
C 1466 4141 1798 4141 1971 4141 
L 1971 4371 
L 1018 4346 
C 698 4346 218 4371 198 4371 
L 198 4141 
L 307 4141 
C 653 4141 762 4109 845 3910 
L 2509 19 
C 2554 -83 2573 -128 2694 -128 
C 2758 -128 2822 -128 2880 6 
L 4467 3718 
C 4550 3917 4704 4134 5190 4141 
z
" transform="scale(0.015625)"/>
       <path id="LMRoman7-Regular-29" d="M 2112 1600 
C 2112 2502 1843 3904 576 4800 
C 531 4800 454 4800 454 4723 
C 454 4691 474 4672 512 4627 
C 1062 4122 1677 3258 1677 1606 
C 1677 269 1261 -742 570 -1370 
C 461 -1478 454 -1485 454 -1517 
C 454 -1549 474 -1594 538 -1594 
C 614 -1594 1222 -1171 1645 -371 
C 1926 160 2112 851 2112 1600 
z
" transform="scale(0.015625)"/>
      </defs>
      <use xlink:href="#LMRoman7-Regular-45"/>
      <use xlink:href="#LMRoman7-Regular-2d" transform="translate(76.799988 0)"/>
      <use xlink:href="#Cmr10-45" transform="translate(115.299973 0)"/>
      <use xlink:href="#Cmr10-56" transform="translate(187.885051 -17.4)scale(0.7)"/>
      <use xlink:href="#Cmr10-42" transform="translate(240.385051 -17.4)scale(0.7)"/>
      <use xlink:href="#Cmr10-4d" transform="translate(289.945598 -17.4)scale(0.7)"/>
      <use xlink:href="#LMRoman7-Regular-20" transform="translate(360.591691 0)"/>
      <use xlink:href="#LMRoman7-Regular-28" transform="translate(399.091676 0)"/>
      <use xlink:href="#LMRoman7-Regular-65" transform="translate(443.691667 0)"/>
      <use xlink:href="#LMRoman7-Regular-56" transform="translate(494.491655 0)"/>
      <use xlink:href="#LMRoman7-Regular-29" transform="translate(578.791642 0)"/>
     </g>
    </g>
   </g>
   <g id="line2d_19">
    <path d="M 45.03 111.791191 
L 236.118632 111.791191 
" clip-path="url(#p6b1bb25b54)" style="fill: none; stroke: #808080; stroke-width: 0.5; stroke-linecap: square"/>
   </g>
   <g id="line2d_20">
    <path d="M 45.03 207.536132 
L 45.03 16.04625 
" clip-path="url(#p6b1bb25b54)" style="fill: none; stroke: #808080; stroke-width: 0.5; stroke-linecap: square"/>
   </g>
   <g id="line2d_21">
    <path d="M 100.432567 207.536132 
L 100.432567 16.04625 
" clip-path="url(#p6b1bb25b54)" style="fill: none; stroke: #808080; stroke-width: 0.5; stroke-linecap: square"/>
   </g>
   <g id="line2d_22">
    <path d="M 156.994184 207.536132 
L 156.994184 16.04625 
" clip-path="url(#p6b1bb25b54)" style="fill: none; stroke: #808080; stroke-width: 0.5; stroke-linecap: square"/>
   </g>
   <g id="line2d_23">
    <path d="M 236.118632 207.536132 
L 236.118632 16.04625 
" clip-path="url(#p6b1bb25b54)" style="fill: none; stroke: #808080; stroke-width: 0.5; stroke-linecap: square"/>
   </g>
   <g id="line2d_24">
    <path d="M 92.357671 241.944882 
L 100.422522 228.957722 
L 100.422522 228.957722 
L 103.398961 229.096217 
L 106.375401 229.639091 
L 109.35184 231.139797 
L 112.328279 235.039345 
L 115.10374 241.944882 
M 115.10374 241.944882 
L 112.328279 235.039345 
L 109.35184 231.139749 
L 106.375401 229.639043 
L 103.398961 229.096217 
L 100.422522 228.957722 
L 100.422522 228.957722 
L 97.507126 224.54838 
L 94.59173 220.563955 
L 91.676335 217.263339 
L 88.760939 214.974413 
L 85.845543 219.29294 
L 80.014751 228.795099 
L 77.099355 233.283574 
L 74.183959 237.519809 
L 70.875293 241.944882 
M 64.131457 241.944882 
L 68.353167 234.687626 
L 74.183959 224.760934 
L 77.099355 220.40856 
L 80.014751 216.923397 
L 82.930147 214.704221 
L 85.845543 214.044011 
L 88.760939 214.426034 
L 94.59173 204.936322 
L 97.507126 200.548283 
L 100.422522 196.572283 
L 100.422522 196.572283 
L 103.398961 198.80247 
L 106.375401 204.606193 
L 109.35184 211.958399 
L 112.328279 218.236251 
L 115.304718 221.627489 
L 118.281157 223.192201 
L 121.257597 224.293699 
L 124.234036 225.657681 
L 127.210475 227.808304 
L 130.186914 231.186856 
L 133.163353 235.973002 
L 136.162028 241.944882 
M 195.979355 241.944882 
L 198.639606 238.466152 
L 211.138797 221.65942 
L 215.305193 217.023498 
L 219.47159 230.00115 
L 223.635877 241.944882 
M 236.137177 241.944882 
L 236.137177 202.478836 
L 231.97078 203.380466 
L 227.804383 205.212594 
L 223.637987 208.102511 
L 219.47159 211.928431 
L 215.305193 216.513465 
L 211.138797 204.855609 
L 206.9724 195.930648 
L 202.806003 191.933632 
L 198.639606 192.240399 
L 194.47321 195.332434 
L 190.306813 200.330894 
L 186.140416 207.128498 
L 181.97402 216.096639 
L 177.807623 227.358446 
L 172.985272 241.944882 
M 136.16205 241.944882 
L 136.139792 241.896454 
L 133.163353 235.973002 
L 130.186914 231.186856 
L 127.210475 227.808304 
L 124.234036 225.657681 
L 121.257597 224.293699 
L 118.281157 223.192153 
L 115.304718 221.627489 
L 112.328279 218.236204 
L 109.35184 211.958399 
L 106.375401 204.606193 
L 103.398961 198.80247 
L 100.422522 196.572283 
L 100.422522 196.572283 
L 97.507126 193.139635 
L 94.59173 190.366 
L 91.676335 188.333957 
L 88.760939 187.078262 
L 85.845543 186.578809 
L 82.930147 186.76465 
L 80.014751 187.527306 
L 77.099355 188.738049 
L 74.183959 190.263888 
L 68.353167 193.77093 
L 62.522375 197.219902 
L 59.60698 198.733342 
L 56.691584 200.034085 
L 53.776188 201.083306 
L 50.860792 201.852281 
L 47.945396 202.32124 
L 45.03 202.478836 
L 45.03 202.154261 
L 47.945396 201.297918 
L 50.860792 198.802326 
L 53.776188 194.860411 
L 56.691584 189.725227 
L 59.60698 183.653466 
L 62.522375 176.873479 
L 65.437771 169.574077 
L 68.353167 161.908114 
L 71.268563 154.605313 
L 74.183959 156.661148 
L 77.099355 158.328163 
L 80.014751 159.215958 
L 82.930147 158.884537 
L 85.845543 156.993191 
L 88.760939 153.464607 
L 91.676335 148.495301 
L 94.59173 142.420764 
L 97.507126 135.602 
L 100.422522 128.421321 
L 100.422522 128.421321 
L 106.375401 126.971743 
L 109.35184 128.730865 
L 112.328279 134.160081 
L 115.304718 142.423253 
L 124.234036 171.866594 
L 127.210475 180.396558 
L 130.186914 187.231167 
L 133.163353 192.073611 
L 136.139792 195.087566 
L 139.117004 196.749986 
L 142.093444 197.552568 
L 145.069883 197.860292 
L 151.022761 197.861824 
L 156.975639 197.771728 
L 156.975639 197.771728 
L 161.142036 198.411831 
L 165.308433 200.247788 
L 169.47483 203.02305 
L 173.641226 206.276511 
L 177.807623 209.21028 
L 181.97402 210.302826 
L 186.140416 206.789513 
L 190.306813 196.333782 
L 194.47321 180.701602 
L 198.639606 163.806832 
L 202.806003 149.765693 
L 206.9724 143.222819 
L 211.138797 146.43128 
L 215.305193 156.46827 
L 223.637987 181.665131 
L 227.804383 192.203441 
L 231.97078 199.339216 
L 236.137177 202.154261 
L 236.137177 143.527814 
L 231.97078 143.748842 
L 227.804383 144.383966 
L 219.47159 146.334577 
L 215.305193 146.867781 
L 211.138797 145.891422 
L 206.9724 142.001353 
L 202.806003 135.308446 
L 198.639606 129.969517 
L 194.47321 132.118799 
L 190.306813 142.558971 
L 186.140416 156.512025 
L 181.97402 169.769684 
L 177.807623 180.183861 
L 173.641226 187.47862 
L 169.47483 192.346245 
L 165.308433 195.458769 
L 161.142036 197.206545 
L 156.975639 197.771728 
L 156.975639 197.771728 
L 145.069883 197.860292 
L 142.093444 197.55252 
L 139.117004 196.749986 
L 136.139792 195.087518 
L 133.163353 192.073563 
L 130.186914 187.231119 
L 127.210475 180.39651 
L 124.234036 171.866546 
L 121.257597 162.220913 
L 115.304718 142.423253 
L 112.328279 134.160081 
L 109.35184 128.730865 
L 106.375401 126.971743 
L 100.422522 128.421321 
L 100.422522 128.421321 
L 97.507126 121.383733 
L 94.59173 115.347397 
L 91.676335 111.791191 
L 88.760939 112.205479 
L 85.845543 116.338022 
L 82.930147 122.676242 
L 80.014751 130.071964 
L 74.183959 145.969598 
L 71.268563 154.001832 
L 68.353167 152.449615 
L 65.437771 150.387317 
L 62.522375 148.537142 
L 59.60698 146.963526 
L 56.691584 145.692799 
L 53.776188 144.726733 
L 50.860792 144.053646 
L 47.945396 143.658075 
L 45.03 143.527814 
L 45.03 40.888998 
L 47.945396 40.808429 
L 50.860792 40.558391 
L 53.776188 40.114661 
L 56.691584 39.439564 
L 59.60698 38.485944 
L 62.522375 37.202244 
L 65.437771 35.537861 
L 68.353167 33.448085 
L 71.268563 30.898253 
L 74.183959 27.865771 
L 77.099355 30.49172 
L 80.014751 41.339335 
L 82.930147 51.285941 
L 85.845543 59.699528 
L 88.760939 65.39056 
L 91.676335 66.804473 
L 94.59173 63.645321 
L 97.507126 57.353729 
L 100.422522 49.347681 
L 100.422522 49.347681 
L 103.398961 51.373644 
L 106.375401 54.189503 
L 109.35184 53.523118 
L 112.328279 48.047465 
L 115.304718 38.830578 
L 118.281157 27.5366 
L 121.257597 15.569249 
L 124.234036 4.090388 
L 125.741835 -1 
M 179.965088 -1 
L 181.97402 5.333301 
L 186.140416 19.566217 
L 190.306813 33.017328 
L 194.47321 41.503585 
L 198.639606 40.116289 
L 202.806003 31.588048 
L 206.9724 30.387454 
L 211.138797 32.205746 
L 215.305193 35.217307 
L 219.47159 37.570431 
L 223.637987 39.196467 
L 227.804383 40.201262 
L 231.97078 40.727716 
L 236.137177 40.888998 
L 236.137177 -1 
M 216.341422 -1 
L 215.305193 4.3185 
L 211.138797 21.662744 
L 206.9724 29.381988 
L 202.806003 27.287951 
L 198.639606 14.295314 
L 194.443437 -1 
M 125.741827 -1 
L 124.234036 4.090388 
L 121.257597 15.569249 
L 118.281157 27.536552 
L 115.304718 38.830578 
L 112.328279 48.047465 
L 109.35184 53.523118 
L 106.375401 54.189455 
L 103.398961 51.373644 
L 100.422522 49.347681 
L 100.422522 49.347681 
L 97.507126 40.405486 
L 91.676335 21.152998 
L 88.760939 16.453836 
L 85.845543 13.168061 
L 82.930147 15.866728 
L 80.014751 20.331411 
L 77.099355 24.341496 
L 74.183959 19.084955 
L 69.226929 -1 
M 78.688724 -1 
L 80.014751 2.303069 
L 82.930147 8.403649 
L 85.845543 11.117731 
L 88.760939 11.60019 
L 91.676335 18.164942 
L 94.59173 18.26399 
L 97.507126 16.774534 
L 100.422522 13.774079 
L 100.422522 13.774079 
L 103.398961 9.686967 
L 106.729955 -1 
M 195.739102 -1 
L 198.639606 7.108508 
L 202.806003 9.457849 
L 206.461949 -1 
M 106.729004 -1 
L 106.375401 0.271649 
L 103.398961 9.686871 
L 100.422522 13.774031 
L 97.507126 9.378046 
L 94.59173 3.723397 
L 91.676335 -0.854982 
L 88.760939 4.534979 
L 85.845543 0.364665 
L 85.438079 -1 
L 85.438079 -1 
" clip-path="url(#p6b1bb25b54)" style="fill: none; stroke: #475c6c; stroke-width: 1.5; stroke-linecap: square"/>
   </g>
   <g id="patch_3">
    <path d="M 45.03 207.536132 
L 45.03 16.04625 
" style="fill: none; stroke: #000000; stroke-width: 0.8; stroke-linejoin: miter; stroke-linecap: square"/>
   </g>
   <g id="patch_4">
    <path d="M 236.118632 207.536132 
L 236.118632 16.04625 
" style="fill: none; stroke: #000000; stroke-width: 0.8; stroke-linejoin: miter; stroke-linecap: square"/>
   </g>
   <g id="patch_5">
    <path d="M 45.03 207.536132 
L 236.118632 207.536132 
" style="fill: none; stroke: #000000; stroke-width: 0.8; stroke-linejoin: miter; stroke-linecap: square"/>
   </g>
   <g id="patch_6">
    <path d="M 45.03 16.04625 
L 236.118632 16.04625 
" style="fill: none; stroke: #000000; stroke-width: 0.8; stroke-linejoin: miter; stroke-linecap: square"/>
   </g>
   <g id="text_12">
    <!-- 0.94 eV -->
    <g transform="translate(102.209777 95.035826)scale(0.14 -0.14)">
     <defs>
      <path id="LMRoman7-Regular-2e" d="M 1402 365 
C 1402 589 1222 736 1037 736 
C 813 736 666 557 666 371 
C 666 147 845 0 1030 0 
C 1254 0 1402 179 1402 365 
z
" transform="scale(0.015625)"/>
      <path id="LMRoman7-Regular-39" d="M 3290 2106 
C 3290 3693 2586 4250 1837 4250 
C 1626 4250 1184 4218 819 3859 
C 602 3648 346 3398 346 2822 
C 346 2010 992 1408 1741 1408 
C 2253 1408 2528 1747 2675 2035 
L 2675 1907 
C 2675 320 1888 77 1504 77 
C 1363 77 1024 90 851 288 
C 1114 314 1133 531 1133 589 
C 1133 749 1024 890 832 890 
C 640 890 525 762 525 576 
C 525 141 890 -128 1510 -128 
C 2426 -128 3290 736 3290 2106 
z
M 2656 2752 
C 2656 1920 2176 1587 1773 1587 
C 1523 1587 1286 1670 1107 1965 
C 960 2202 960 2470 960 2822 
C 960 3194 960 3450 1146 3706 
C 1299 3930 1510 4064 1843 4064 
C 2170 4064 2362 3859 2464 3693 
C 2637 3424 2656 2976 2656 2752 
z
" transform="scale(0.015625)"/>
      <path id="LMRoman7-Regular-34" d="M 3386 1050 
L 3386 1280 
L 2675 1280 
L 2675 4134 
C 2675 4269 2675 4314 2534 4314 
C 2458 4314 2432 4314 2368 4224 
L 250 1280 
L 250 1050 
L 2131 1050 
L 2131 525 
C 2131 307 2131 230 1613 230 
L 1440 230 
L 1440 0 
L 2400 26 
L 3366 0 
L 3366 230 
L 3194 230 
C 2675 230 2675 307 2675 525 
L 2675 1050 
L 3386 1050 
z
M 2176 1280 
L 486 1280 
L 2176 3622 
L 2176 1280 
z
" transform="scale(0.015625)"/>
     </defs>
     <use xlink:href="#LMRoman7-Regular-30"/>
     <use xlink:href="#LMRoman7-Regular-2e" x="56.899994"/>
     <use xlink:href="#LMRoman7-Regular-39" x="89.199982"/>
     <use xlink:href="#LMRoman7-Regular-34" x="146.099976"/>
     <use xlink:href="#LMRoman7-Regular-20" x="202.999969"/>
     <use xlink:href="#LMRoman7-Regular-65" x="241.499954"/>
     <use xlink:href="#LMRoman7-Regular-56" x="292.299942"/>
    </g>
   </g>
   <g id="patch_7">
    <path d="M 91.676335 110.673157 
Q 91.676335 89.297832 91.676335 67.922507 
" style="fill: none; stroke: #000000; stroke-linecap: round"/>
    <path d="M 94.476335 105.073157 
L 91.676335 110.673157 
L 88.876335 105.073157 
" style="fill: none; stroke: #000000; stroke-linecap: round"/>
    <path d="M 88.876335 73.522507 
L 91.676335 67.922507 
L 94.476335 73.522507 
" style="fill: none; stroke: #000000; stroke-linecap: round"/>
   </g>
   <g id="text_13">
    <!-- Pristine -->
    <g transform="translate(113.290722 10.04625)scale(0.14 -0.14)">
     <defs>
      <path id="LMRoman7-Regular-72" d="M 2605 2413 
C 2605 2630 2400 2822 2099 2822 
C 1779 2822 1427 2624 1235 2138 
L 1229 2138 
L 1229 2822 
L 314 2752 
L 314 2522 
C 742 2522 794 2477 794 2163 
L 794 506 
C 794 230 730 230 314 230 
L 314 0 
C 346 0 781 26 1043 26 
L 1875 0 
L 1875 230 
L 1747 230 
C 1274 230 1274 301 1274 518 
L 1274 1459 
C 1274 1997 1523 2643 2131 2643 
C 2074 2598 2022 2515 2022 2413 
C 2022 2202 2189 2118 2310 2118 
C 2464 2118 2605 2221 2605 2413 
z
" transform="scale(0.015625)"/>
      <path id="LMRoman7-Regular-69" d="M 1754 0 
L 1754 230 
C 1382 230 1318 230 1318 499 
L 1318 2822 
L 378 2752 
L 378 2522 
C 781 2522 838 2483 838 2170 
L 838 506 
C 838 230 774 230 358 230 
L 358 0 
C 358 0 819 26 1075 26 
C 1299 26 1530 19 1754 0 
z
M 1402 3853 
C 1402 4058 1242 4224 1037 4224 
C 819 4224 672 4045 672 3859 
C 672 3654 832 3488 1037 3488 
C 1254 3488 1402 3667 1402 3853 
z
" transform="scale(0.015625)"/>
      <path id="LMRoman7-Regular-73" d="M 2605 838 
C 2605 1082 2496 1274 2330 1427 
C 2086 1651 1792 1702 1568 1741 
C 1056 1830 640 1907 640 2246 
C 640 2451 813 2701 1421 2701 
C 2163 2701 2195 2182 2208 1997 
C 2214 1926 2291 1926 2317 1926 
C 2426 1926 2426 1971 2426 2093 
L 2426 2688 
C 2426 2797 2426 2854 2336 2854 
C 2304 2854 2291 2854 2208 2778 
C 2195 2771 2131 2714 2093 2682 
C 1901 2816 1658 2854 1421 2854 
C 506 2854 288 2374 288 2054 
C 288 1850 378 1683 531 1555 
C 774 1344 1018 1299 1414 1235 
C 1734 1178 2253 1088 2253 659 
C 2253 410 2080 115 1466 115 
C 851 115 627 518 512 954 
C 493 1037 486 1062 397 1062 
C 288 1062 288 1018 288 890 
L 288 102 
C 288 -6 288 -64 378 -64 
C 435 -64 557 70 685 211 
C 966 -51 1312 -64 1466 -64 
C 2298 -64 2605 384 2605 838 
z
" transform="scale(0.015625)"/>
      <path id="LMRoman7-Regular-6e" d="M 3776 0 
L 3776 230 
C 3360 230 3296 230 3296 506 
L 3296 1939 
C 3296 2496 3021 2822 2336 2822 
C 1811 2822 1472 2534 1293 2202 
L 1286 2202 
L 1286 2822 
L 346 2752 
L 346 2522 
C 774 2522 826 2477 826 2163 
L 826 506 
C 826 230 762 230 346 230 
L 346 0 
C 346 0 806 26 1075 26 
C 1312 26 1754 6 1811 0 
L 1811 230 
C 1395 230 1331 230 1331 506 
L 1331 1658 
C 1331 2330 1862 2643 2285 2643 
C 2733 2643 2790 2291 2790 1965 
L 2790 506 
C 2790 230 2726 230 2310 230 
L 2310 0 
C 2310 0 2771 26 3040 26 
C 3277 26 3718 6 3776 0 
z
" transform="scale(0.015625)"/>
     </defs>
     <use xlink:href="#LMRoman7-Regular-50"/>
     <use xlink:href="#LMRoman7-Regular-72" x="76.799988"/>
     <use xlink:href="#LMRoman7-Regular-69" x="121.399979"/>
     <use xlink:href="#LMRoman7-Regular-73" x="153.699966"/>
     <use xlink:href="#LMRoman7-Regular-74" x="198.999954"/>
     <use xlink:href="#LMRoman7-Regular-69" x="243.599945"/>
     <use xlink:href="#LMRoman7-Regular-6e" x="275.899933"/>
     <use xlink:href="#LMRoman7-Regular-65" x="338.999924"/>
    </g>
   </g>
  </g>
 </g>
 <defs>
  <clipPath id="p6b1bb25b54">
   <rect x="45.03" y="16.04625" width="191.088632" height="191.489882"/>
  </clipPath>
 </defs>
</svg>
