<?xml version="1.0" encoding="utf-8" standalone="no"?>
<!DOCTYPE svg PUBLIC "-//W3C//DTD SVG 1.1//EN"
  "http://www.w3.org/Graphics/SVG/1.1/DTD/svg11.dtd">
<svg xmlns:xlink="http://www.w3.org/1999/xlink" width="255.11811pt" height="255.11811pt" viewBox="0 0 255.11811 255.11811" xmlns="http://www.w3.org/2000/svg" version="1.1">
 <metadata>
  <rdf:RDF xmlns:dc="http://purl.org/dc/elements/1.1/" xmlns:cc="http://creativecommons.org/ns#" xmlns:rdf="http://www.w3.org/1999/02/22-rdf-syntax-ns#">
   <cc:Work>
    <dc:type rdf:resource="http://purl.org/dc/dcmitype/StillImage"/>
    <dc:date>2022-10-11T16:43:17.865229</dc:date>
    <dc:format>image/svg+xml</dc:format>
    <dc:creator>
     <cc:Agent>
      <dc:title>Matplotlib v3.5.2, https://matplotlib.org/</dc:title>
     </cc:Agent>
    </dc:creator>
   </cc:Work>
  </rdf:RDF>
 </metadata>
 <defs>
  <style type="text/css">*{stroke-linejoin: round; stroke-linecap: butt}</style>
 </defs>
 <g id="figure_1">
  <g id="patch_1">
   <path d="M 0 255.11811 
L 255.11811 255.11811 
L 255.11811 0 
L 0 0 
z
" style="fill: #ffffff"/>
  </g>
  <g id="axes_1">
   <g id="patch_2">
    <path d="M 55.36063 228.585827 
L 238.535433 228.585827 
L 238.535433 13.011024 
L 55.36063 13.011024 
z
" style="fill: #ffffff"/>
   </g>
   <g id="matplotlib.axis_1">
    <g id="xtick_1">
     <g id="line2d_1">
      <defs>
       <path id="me51f465d5c" d="M 0 0 
L 0 -3.5 
" style="stroke: #000000; stroke-width: 0.8"/>
      </defs>
      <g>
       <use xlink:href="#me51f465d5c" x="55.36063" y="228.585827" style="stroke: #000000; stroke-width: 0.8"/>
      </g>
     </g>
     <g id="line2d_2">
      <defs>
       <path id="m464c0c1848" d="M 0 0 
L 0 3.5 
" style="stroke: #000000; stroke-width: 0.8"/>
      </defs>
      <g>
       <use xlink:href="#m464c0c1848" x="55.36063" y="13.011024" style="stroke: #000000; stroke-width: 0.8"/>
      </g>
     </g>
     <g id="text_1">
      <!-- $\Gamma$ -->
      <g transform="translate(52.21063 239.684264)scale(0.1 -0.1)">
       <defs>
        <path id="Cmr10-a1" d="M 197 0 
L 197 225 
Q 856 225 856 428 
L 856 3944 
Q 856 4147 197 4147 
L 197 4372 
L 3547 4372 
L 3725 2906 
L 3541 2906 
Q 3494 3313 3433 3534 
Q 3372 3756 3247 3892 
Q 3122 4028 2897 4087 
Q 2672 4147 2272 4147 
L 1778 4147 
Q 1663 4147 1598 4137 
Q 1534 4128 1493 4083 
Q 1453 4038 1453 3944 
L 1453 428 
Q 1453 225 2272 225 
L 2272 0 
L 197 0 
z
" transform="scale(0.015625)"/>
       </defs>
       <use xlink:href="#Cmr10-a1" transform="translate(0 0.6875)"/>
      </g>
     </g>
    </g>
    <g id="xtick_2">
     <g id="line2d_3">
      <g>
       <use xlink:href="#me51f465d5c" x="132.779407" y="228.585827" style="stroke: #000000; stroke-width: 0.8"/>
      </g>
     </g>
     <g id="line2d_4">
      <g>
       <use xlink:href="#m464c0c1848" x="132.779407" y="13.011024" style="stroke: #000000; stroke-width: 0.8"/>
      </g>
     </g>
     <g id="text_2">
      <!-- K -->
      <g transform="translate(129.500501 239.684264)scale(0.1 -0.1)">
       <defs>
        <path id="DejaVuSans-4b" d="M 628 4666 
L 1259 4666 
L 1259 2694 
L 3353 4666 
L 4166 4666 
L 1850 2491 
L 4331 0 
L 3500 0 
L 1259 2247 
L 1259 0 
L 628 0 
L 628 4666 
z
" transform="scale(0.015625)"/>
       </defs>
       <use xlink:href="#DejaVuSans-4b"/>
      </g>
     </g>
    </g>
    <g id="xtick_3">
     <g id="line2d_5">
      <g>
       <use xlink:href="#me51f465d5c" x="171.488796" y="228.585827" style="stroke: #000000; stroke-width: 0.8"/>
      </g>
     </g>
     <g id="line2d_6">
      <g>
       <use xlink:href="#m464c0c1848" x="171.488796" y="13.011024" style="stroke: #000000; stroke-width: 0.8"/>
      </g>
     </g>
     <g id="text_3">
      <!-- M -->
      <g transform="translate(167.174734 239.684264)scale(0.1 -0.1)">
       <defs>
        <path id="DejaVuSans-4d" d="M 628 4666 
L 1569 4666 
L 2759 1491 
L 3956 4666 
L 4897 4666 
L 4897 0 
L 4281 0 
L 4281 4097 
L 3078 897 
L 2444 897 
L 1241 4097 
L 1241 0 
L 628 0 
L 628 4666 
z
" transform="scale(0.015625)"/>
       </defs>
       <use xlink:href="#DejaVuSans-4d"/>
      </g>
     </g>
    </g>
    <g id="xtick_4">
     <g id="line2d_7">
      <g>
       <use xlink:href="#me51f465d5c" x="238.535433" y="228.585827" style="stroke: #000000; stroke-width: 0.8"/>
      </g>
     </g>
     <g id="line2d_8">
      <g>
       <use xlink:href="#m464c0c1848" x="238.535433" y="13.011024" style="stroke: #000000; stroke-width: 0.8"/>
      </g>
     </g>
     <g id="text_4">
      <!-- $\Gamma$ -->
      <g transform="translate(235.385433 239.684264)scale(0.1 -0.1)">
       <use xlink:href="#Cmr10-a1" transform="translate(0 0.6875)"/>
      </g>
     </g>
    </g>
   </g>
   <g id="matplotlib.axis_2">
    <g id="ytick_1">
     <g id="line2d_9">
      <defs>
       <path id="md88871eb5b" d="M 0 0 
L 3.5 0 
" style="stroke: #000000; stroke-width: 0.8"/>
      </defs>
      <g>
       <use xlink:href="#md88871eb5b" x="55.36063" y="228.585827" style="stroke: #000000; stroke-width: 0.8"/>
      </g>
     </g>
     <g id="line2d_10">
      <defs>
       <path id="m9202510c80" d="M 0 0 
L -3.5 0 
" style="stroke: #000000; stroke-width: 0.8"/>
      </defs>
      <g>
       <use xlink:href="#m9202510c80" x="238.535433" y="228.585827" style="stroke: #000000; stroke-width: 0.8"/>
      </g>
     </g>
     <g id="text_5">
      <!-- 0 -->
      <g transform="translate(45.49813 232.385046)scale(0.1 -0.1)">
       <defs>
        <path id="DejaVuSans-30" d="M 2034 4250 
Q 1547 4250 1301 3770 
Q 1056 3291 1056 2328 
Q 1056 1369 1301 889 
Q 1547 409 2034 409 
Q 2525 409 2770 889 
Q 3016 1369 3016 2328 
Q 3016 3291 2770 3770 
Q 2525 4250 2034 4250 
z
M 2034 4750 
Q 2819 4750 3233 4129 
Q 3647 3509 3647 2328 
Q 3647 1150 3233 529 
Q 2819 -91 2034 -91 
Q 1250 -91 836 529 
Q 422 1150 422 2328 
Q 422 3509 836 4129 
Q 1250 4750 2034 4750 
z
" transform="scale(0.015625)"/>
       </defs>
       <use xlink:href="#DejaVuSans-30"/>
      </g>
     </g>
    </g>
    <g id="ytick_2">
     <g id="line2d_11">
      <g>
       <use xlink:href="#md88871eb5b" x="55.36063" y="196.88365" style="stroke: #000000; stroke-width: 0.8"/>
      </g>
     </g>
     <g id="line2d_12">
      <g>
       <use xlink:href="#m9202510c80" x="238.535433" y="196.88365" style="stroke: #000000; stroke-width: 0.8"/>
      </g>
     </g>
     <g id="text_6">
      <!-- 50 -->
      <g transform="translate(39.13563 200.682869)scale(0.1 -0.1)">
       <defs>
        <path id="DejaVuSans-35" d="M 691 4666 
L 3169 4666 
L 3169 4134 
L 1269 4134 
L 1269 2991 
Q 1406 3038 1543 3061 
Q 1681 3084 1819 3084 
Q 2600 3084 3056 2656 
Q 3513 2228 3513 1497 
Q 3513 744 3044 326 
Q 2575 -91 1722 -91 
Q 1428 -91 1123 -41 
Q 819 9 494 109 
L 494 744 
Q 775 591 1075 516 
Q 1375 441 1709 441 
Q 2250 441 2565 725 
Q 2881 1009 2881 1497 
Q 2881 1984 2565 2268 
Q 2250 2553 1709 2553 
Q 1456 2553 1204 2497 
Q 953 2441 691 2322 
L 691 4666 
z
" transform="scale(0.015625)"/>
       </defs>
       <use xlink:href="#DejaVuSans-35"/>
       <use xlink:href="#DejaVuSans-30" x="63.623047"/>
      </g>
     </g>
    </g>
    <g id="ytick_3">
     <g id="line2d_13">
      <g>
       <use xlink:href="#md88871eb5b" x="55.36063" y="165.181473" style="stroke: #000000; stroke-width: 0.8"/>
      </g>
     </g>
     <g id="line2d_14">
      <g>
       <use xlink:href="#m9202510c80" x="238.535433" y="165.181473" style="stroke: #000000; stroke-width: 0.8"/>
      </g>
     </g>
     <g id="text_7">
      <!-- 100 -->
      <g transform="translate(32.77313 168.980692)scale(0.1 -0.1)">
       <defs>
        <path id="DejaVuSans-31" d="M 794 531 
L 1825 531 
L 1825 4091 
L 703 3866 
L 703 4441 
L 1819 4666 
L 2450 4666 
L 2450 531 
L 3481 531 
L 3481 0 
L 794 0 
L 794 531 
z
" transform="scale(0.015625)"/>
       </defs>
       <use xlink:href="#DejaVuSans-31"/>
       <use xlink:href="#DejaVuSans-30" x="63.623047"/>
       <use xlink:href="#DejaVuSans-30" x="127.246094"/>
      </g>
     </g>
    </g>
    <g id="ytick_4">
     <g id="line2d_15">
      <g>
       <use xlink:href="#md88871eb5b" x="55.36063" y="133.479296" style="stroke: #000000; stroke-width: 0.8"/>
      </g>
     </g>
     <g id="line2d_16">
      <g>
       <use xlink:href="#m9202510c80" x="238.535433" y="133.479296" style="stroke: #000000; stroke-width: 0.8"/>
      </g>
     </g>
     <g id="text_8">
      <!-- 150 -->
      <g transform="translate(32.77313 137.278515)scale(0.1 -0.1)">
       <use xlink:href="#DejaVuSans-31"/>
       <use xlink:href="#DejaVuSans-35" x="63.623047"/>
       <use xlink:href="#DejaVuSans-30" x="127.246094"/>
      </g>
     </g>
    </g>
    <g id="ytick_5">
     <g id="line2d_17">
      <g>
       <use xlink:href="#md88871eb5b" x="55.36063" y="101.777119" style="stroke: #000000; stroke-width: 0.8"/>
      </g>
     </g>
     <g id="line2d_18">
      <g>
       <use xlink:href="#m9202510c80" x="238.535433" y="101.777119" style="stroke: #000000; stroke-width: 0.8"/>
      </g>
     </g>
     <g id="text_9">
      <!-- 200 -->
      <g transform="translate(32.77313 105.576338)scale(0.1 -0.1)">
       <defs>
        <path id="DejaVuSans-32" d="M 1228 531 
L 3431 531 
L 3431 0 
L 469 0 
L 469 531 
Q 828 903 1448 1529 
Q 2069 2156 2228 2338 
Q 2531 2678 2651 2914 
Q 2772 3150 2772 3378 
Q 2772 3750 2511 3984 
Q 2250 4219 1831 4219 
Q 1534 4219 1204 4116 
Q 875 4013 500 3803 
L 500 4441 
Q 881 4594 1212 4672 
Q 1544 4750 1819 4750 
Q 2544 4750 2975 4387 
Q 3406 4025 3406 3419 
Q 3406 3131 3298 2873 
Q 3191 2616 2906 2266 
Q 2828 2175 2409 1742 
Q 1991 1309 1228 531 
z
" transform="scale(0.015625)"/>
       </defs>
       <use xlink:href="#DejaVuSans-32"/>
       <use xlink:href="#DejaVuSans-30" x="63.623047"/>
       <use xlink:href="#DejaVuSans-30" x="127.246094"/>
      </g>
     </g>
    </g>
    <g id="ytick_6">
     <g id="line2d_19">
      <g>
       <use xlink:href="#md88871eb5b" x="55.36063" y="70.074942" style="stroke: #000000; stroke-width: 0.8"/>
      </g>
     </g>
     <g id="line2d_20">
      <g>
       <use xlink:href="#m9202510c80" x="238.535433" y="70.074942" style="stroke: #000000; stroke-width: 0.8"/>
      </g>
     </g>
     <g id="text_10">
      <!-- 250 -->
      <g transform="translate(32.77313 73.874161)scale(0.1 -0.1)">
       <use xlink:href="#DejaVuSans-32"/>
       <use xlink:href="#DejaVuSans-35" x="63.623047"/>
       <use xlink:href="#DejaVuSans-30" x="127.246094"/>
      </g>
     </g>
    </g>
    <g id="ytick_7">
     <g id="line2d_21">
      <g>
       <use xlink:href="#md88871eb5b" x="55.36063" y="38.372765" style="stroke: #000000; stroke-width: 0.8"/>
      </g>
     </g>
     <g id="line2d_22">
      <g>
       <use xlink:href="#m9202510c80" x="238.535433" y="38.372765" style="stroke: #000000; stroke-width: 0.8"/>
      </g>
     </g>
     <g id="text_11">
      <!-- 300 -->
      <g transform="translate(32.77313 42.171984)scale(0.1 -0.1)">
       <defs>
        <path id="DejaVuSans-33" d="M 2597 2516 
Q 3050 2419 3304 2112 
Q 3559 1806 3559 1356 
Q 3559 666 3084 287 
Q 2609 -91 1734 -91 
Q 1441 -91 1130 -33 
Q 819 25 488 141 
L 488 750 
Q 750 597 1062 519 
Q 1375 441 1716 441 
Q 2309 441 2620 675 
Q 2931 909 2931 1356 
Q 2931 1769 2642 2001 
Q 2353 2234 1838 2234 
L 1294 2234 
L 1294 2753 
L 1863 2753 
Q 2328 2753 2575 2939 
Q 2822 3125 2822 3475 
Q 2822 3834 2567 4026 
Q 2313 4219 1838 4219 
Q 1578 4219 1281 4162 
Q 984 4106 628 3988 
L 628 4550 
Q 988 4650 1302 4700 
Q 1616 4750 1894 4750 
Q 2613 4750 3031 4423 
Q 3450 4097 3450 3541 
Q 3450 3153 3228 2886 
Q 3006 2619 2597 2516 
z
" transform="scale(0.015625)"/>
       </defs>
       <use xlink:href="#DejaVuSans-33"/>
       <use xlink:href="#DejaVuSans-30" x="63.623047"/>
       <use xlink:href="#DejaVuSans-30" x="127.246094"/>
      </g>
     </g>
    </g>
    <g id="text_12">
     <!-- Frequency ($cm^{-1}$) -->
     <g transform="translate(26.25313 172.938425)rotate(-90)scale(0.12 -0.12)">
      <defs>
       <path id="DejaVuSans-46" d="M 628 4666 
L 3309 4666 
L 3309 4134 
L 1259 4134 
L 1259 2759 
L 3109 2759 
L 3109 2228 
L 1259 2228 
L 1259 0 
L 628 0 
L 628 4666 
z
" transform="scale(0.015625)"/>
       <path id="DejaVuSans-72" d="M 2631 2963 
Q 2534 3019 2420 3045 
Q 2306 3072 2169 3072 
Q 1681 3072 1420 2755 
Q 1159 2438 1159 1844 
L 1159 0 
L 581 0 
L 581 3500 
L 1159 3500 
L 1159 2956 
Q 1341 3275 1631 3429 
Q 1922 3584 2338 3584 
Q 2397 3584 2469 3576 
Q 2541 3569 2628 3553 
L 2631 2963 
z
" transform="scale(0.015625)"/>
       <path id="DejaVuSans-65" d="M 3597 1894 
L 3597 1613 
L 953 1613 
Q 991 1019 1311 708 
Q 1631 397 2203 397 
Q 2534 397 2845 478 
Q 3156 559 3463 722 
L 3463 178 
Q 3153 47 2828 -22 
Q 2503 -91 2169 -91 
Q 1331 -91 842 396 
Q 353 884 353 1716 
Q 353 2575 817 3079 
Q 1281 3584 2069 3584 
Q 2775 3584 3186 3129 
Q 3597 2675 3597 1894 
z
M 3022 2063 
Q 3016 2534 2758 2815 
Q 2500 3097 2075 3097 
Q 1594 3097 1305 2825 
Q 1016 2553 972 2059 
L 3022 2063 
z
" transform="scale(0.015625)"/>
       <path id="DejaVuSans-71" d="M 947 1747 
Q 947 1113 1208 752 
Q 1469 391 1925 391 
Q 2381 391 2643 752 
Q 2906 1113 2906 1747 
Q 2906 2381 2643 2742 
Q 2381 3103 1925 3103 
Q 1469 3103 1208 2742 
Q 947 2381 947 1747 
z
M 2906 525 
Q 2725 213 2448 61 
Q 2172 -91 1784 -91 
Q 1150 -91 751 415 
Q 353 922 353 1747 
Q 353 2572 751 3078 
Q 1150 3584 1784 3584 
Q 2172 3584 2448 3432 
Q 2725 3281 2906 2969 
L 2906 3500 
L 3481 3500 
L 3481 -1331 
L 2906 -1331 
L 2906 525 
z
" transform="scale(0.015625)"/>
       <path id="DejaVuSans-75" d="M 544 1381 
L 544 3500 
L 1119 3500 
L 1119 1403 
Q 1119 906 1312 657 
Q 1506 409 1894 409 
Q 2359 409 2629 706 
Q 2900 1003 2900 1516 
L 2900 3500 
L 3475 3500 
L 3475 0 
L 2900 0 
L 2900 538 
Q 2691 219 2414 64 
Q 2138 -91 1772 -91 
Q 1169 -91 856 284 
Q 544 659 544 1381 
z
M 1991 3584 
L 1991 3584 
z
" transform="scale(0.015625)"/>
       <path id="DejaVuSans-6e" d="M 3513 2113 
L 3513 0 
L 2938 0 
L 2938 2094 
Q 2938 2591 2744 2837 
Q 2550 3084 2163 3084 
Q 1697 3084 1428 2787 
Q 1159 2491 1159 1978 
L 1159 0 
L 581 0 
L 581 3500 
L 1159 3500 
L 1159 2956 
Q 1366 3272 1645 3428 
Q 1925 3584 2291 3584 
Q 2894 3584 3203 3211 
Q 3513 2838 3513 2113 
z
" transform="scale(0.015625)"/>
       <path id="DejaVuSans-63" d="M 3122 3366 
L 3122 2828 
Q 2878 2963 2633 3030 
Q 2388 3097 2138 3097 
Q 1578 3097 1268 2742 
Q 959 2388 959 1747 
Q 959 1106 1268 751 
Q 1578 397 2138 397 
Q 2388 397 2633 464 
Q 2878 531 3122 666 
L 3122 134 
Q 2881 22 2623 -34 
Q 2366 -91 2075 -91 
Q 1284 -91 818 406 
Q 353 903 353 1747 
Q 353 2603 823 3093 
Q 1294 3584 2113 3584 
Q 2378 3584 2631 3529 
Q 2884 3475 3122 3366 
z
" transform="scale(0.015625)"/>
       <path id="DejaVuSans-79" d="M 2059 -325 
Q 1816 -950 1584 -1140 
Q 1353 -1331 966 -1331 
L 506 -1331 
L 506 -850 
L 844 -850 
Q 1081 -850 1212 -737 
Q 1344 -625 1503 -206 
L 1606 56 
L 191 3500 
L 800 3500 
L 1894 763 
L 2988 3500 
L 3597 3500 
L 2059 -325 
z
" transform="scale(0.015625)"/>
       <path id="DejaVuSans-20" transform="scale(0.015625)"/>
       <path id="DejaVuSans-28" d="M 1984 4856 
Q 1566 4138 1362 3434 
Q 1159 2731 1159 2009 
Q 1159 1288 1364 580 
Q 1569 -128 1984 -844 
L 1484 -844 
Q 1016 -109 783 600 
Q 550 1309 550 2009 
Q 550 2706 781 3412 
Q 1013 4119 1484 4856 
L 1984 4856 
z
" transform="scale(0.015625)"/>
       <path id="Cmmi10-63" d="M 750 763 
Q 750 484 892 290 
Q 1034 97 1300 97 
Q 1681 97 2032 272 
Q 2384 447 2606 756 
Q 2625 775 2656 775 
Q 2688 775 2720 739 
Q 2753 703 2753 672 
Q 2753 647 2741 634 
Q 2506 306 2109 117 
Q 1713 -72 1288 -72 
Q 981 -72 747 73 
Q 513 219 384 462 
Q 256 706 256 1013 
Q 256 1444 497 1869 
Q 738 2294 1138 2561 
Q 1538 2828 1978 2828 
Q 2266 2828 2495 2689 
Q 2725 2550 2725 2278 
Q 2725 2103 2623 1979 
Q 2522 1856 2350 1856 
Q 2247 1856 2176 1920 
Q 2106 1984 2106 2088 
Q 2106 2238 2215 2344 
Q 2325 2450 2472 2450 
L 2484 2450 
Q 2409 2559 2267 2611 
Q 2125 2663 1972 2663 
Q 1597 2663 1315 2342 
Q 1034 2022 892 1576 
Q 750 1131 750 763 
z
" transform="scale(0.015625)"/>
       <path id="Cmmi10-6d" d="M 494 109 
Q 494 147 500 166 
L 978 2075 
Q 1025 2253 1025 2388 
Q 1025 2663 838 2663 
Q 638 2663 541 2423 
Q 444 2184 353 1819 
Q 353 1800 334 1789 
Q 316 1778 300 1778 
L 225 1778 
Q 203 1778 187 1801 
Q 172 1825 172 1844 
Q 241 2122 305 2315 
Q 369 2509 505 2668 
Q 641 2828 844 2828 
Q 1084 2828 1268 2676 
Q 1453 2525 1453 2291 
Q 1644 2541 1900 2684 
Q 2156 2828 2444 2828 
Q 2747 2828 2967 2673 
Q 3188 2519 3188 2234 
Q 3384 2513 3648 2670 
Q 3913 2828 4225 2828 
Q 4556 2828 4757 2648 
Q 4959 2469 4959 2138 
Q 4959 1875 4842 1503 
Q 4725 1131 4550 672 
Q 4459 450 4459 288 
Q 4459 97 4609 97 
Q 4859 97 5025 365 
Q 5191 634 5259 941 
Q 5278 978 5313 978 
L 5388 978 
Q 5413 978 5430 961 
Q 5447 944 5447 922 
Q 5447 916 5441 903 
Q 5353 541 5136 234 
Q 4919 -72 4594 -72 
Q 4369 -72 4209 83 
Q 4050 238 4050 459 
Q 4050 572 4103 709 
Q 4284 1191 4404 1569 
Q 4525 1947 4525 2234 
Q 4525 2413 4453 2538 
Q 4381 2663 4213 2663 
Q 3863 2663 3606 2448 
Q 3350 2234 3163 1881 
Q 3150 1819 3144 1784 
L 2731 141 
Q 2709 53 2632 -9 
Q 2556 -72 2463 -72 
Q 2388 -72 2330 -22 
Q 2272 28 2272 109 
Q 2272 147 2278 166 
L 2688 1797 
Q 2753 2059 2753 2234 
Q 2753 2413 2679 2538 
Q 2606 2663 2431 2663 
Q 2197 2663 2000 2559 
Q 1803 2456 1656 2286 
Q 1509 2116 1388 1881 
L 953 141 
Q 931 53 854 -9 
Q 778 -72 684 -72 
Q 606 -72 550 -22 
Q 494 28 494 109 
z
" transform="scale(0.015625)"/>
       <path id="Cmsy10-a1" d="M 653 1472 
Q 600 1472 565 1512 
Q 531 1553 531 1600 
Q 531 1647 565 1687 
Q 600 1728 653 1728 
L 4325 1728 
Q 4375 1728 4408 1687 
Q 4441 1647 4441 1600 
Q 4441 1553 4408 1512 
Q 4375 1472 4325 1472 
L 653 1472 
z
" transform="scale(0.015625)"/>
       <path id="Cmr10-31" d="M 594 0 
L 594 225 
Q 1394 225 1394 428 
L 1394 3788 
Q 1063 3628 556 3628 
L 556 3853 
Q 1341 3853 1741 4263 
L 1831 4263 
Q 1853 4263 1873 4245 
Q 1894 4228 1894 4206 
L 1894 428 
Q 1894 225 2694 225 
L 2694 0 
L 594 0 
z
" transform="scale(0.015625)"/>
       <path id="DejaVuSans-29" d="M 513 4856 
L 1013 4856 
Q 1481 4119 1714 3412 
Q 1947 2706 1947 2009 
Q 1947 1309 1714 600 
Q 1481 -109 1013 -844 
L 513 -844 
Q 928 -128 1133 580 
Q 1338 1288 1338 2009 
Q 1338 2731 1133 3434 
Q 928 4138 513 4856 
z
" transform="scale(0.015625)"/>
      </defs>
      <use xlink:href="#DejaVuSans-46" transform="translate(0 0.109375)"/>
      <use xlink:href="#DejaVuSans-72" transform="translate(57.519531 0.109375)"/>
      <use xlink:href="#DejaVuSans-65" transform="translate(98.632812 0.109375)"/>
      <use xlink:href="#DejaVuSans-71" transform="translate(160.15625 0.109375)"/>
      <use xlink:href="#DejaVuSans-75" transform="translate(223.632812 0.109375)"/>
      <use xlink:href="#DejaVuSans-65" transform="translate(287.011719 0.109375)"/>
      <use xlink:href="#DejaVuSans-6e" transform="translate(348.535156 0.109375)"/>
      <use xlink:href="#DejaVuSans-63" transform="translate(411.914062 0.109375)"/>
      <use xlink:href="#DejaVuSans-79" transform="translate(466.894531 0.109375)"/>
      <use xlink:href="#DejaVuSans-20" transform="translate(526.074219 0.109375)"/>
      <use xlink:href="#DejaVuSans-28" transform="translate(557.861328 0.109375)"/>
      <use xlink:href="#Cmmi10-63" transform="translate(596.875 0.109375)"/>
      <use xlink:href="#Cmmi10-6d" transform="translate(640.087891 0.109375)"/>
      <use xlink:href="#Cmsy10-a1" transform="translate(734.184141 38.373438)scale(0.7)"/>
      <use xlink:href="#Cmr10-31" transform="translate(788.564023 38.373438)scale(0.7)"/>
      <use xlink:href="#DejaVuSans-29" transform="translate(829.941367 0.109375)"/>
     </g>
    </g>
   </g>
   <g id="line2d_23">
    <path d="M 55.36063 228.554551 
L 58.457363 227.624057 
L 60.00575 227.007091 
L 61.554137 226.256741 
L 63.102524 225.362066 
L 64.65087 224.322705 
L 67.747644 221.837409 
L 70.844377 218.881913 
L 73.941151 215.553615 
L 78.586271 210.067887 
L 84.779779 202.259316 
L 94.070019 190.528597 
L 98.715139 185.024531 
L 103.3603 179.947889 
L 106.457033 176.86057 
L 108.00542 176.273155 
L 109.553766 177.163615 
L 112.65054 179.397228 
L 117.29566 183.240329 
L 121.94078 186.974217 
L 125.037554 189.054593 
L 126.5859 189.897218 
L 128.134287 190.578227 
L 129.682675 191.078946 
L 131.231062 191.385134 
L 133.553601 191.462359 
L 135.101988 191.258187 
L 136.650375 190.857571 
L 138.198721 190.274683 
L 140.521302 189.103293 
L 142.843882 187.653453 
L 146.714809 184.90556 
L 150.585735 182.24055 
L 152.908316 180.952873 
L 154.456662 180.31278 
L 156.005049 179.883474 
L 157.553436 179.673327 
L 159.101823 179.664348 
L 161.424363 179.935386 
L 169.94045 181.362838 
L 178.193472 181.774152 
L 182.216294 182.364249 
L 186.239075 183.275298 
L 188.920929 184.081364 
L 191.602824 185.060042 
L 194.284678 186.221119 
L 196.966532 187.571805 
L 199.648386 189.116235 
L 202.330281 192.537809 
L 214.398665 208.650553 
L 218.421446 213.643088 
L 221.103341 216.734002 
L 223.785195 219.570873 
L 226.467049 222.094382 
L 229.148903 224.245543 
L 231.830798 225.975681 
L 234.512652 227.269826 
L 237.194506 228.196729 
L 238.535433 228.554551 
L 238.535433 228.554551 
" clip-path="url(#pab0f4987ed)" style="fill: none; stroke: #0000ff; stroke-width: 1.5; stroke-linecap: square"/>
   </g>
   <g id="line2d_24">
    <path d="M 55.36063 228.547155 
L 63.102524 219.067671 
L 77.037884 202.089105 
L 83.231391 194.815941 
L 89.424899 187.915815 
L 94.070019 183.101131 
L 97.166793 180.138741 
L 100.263526 177.512479 
L 101.811913 176.441071 
L 103.3603 175.684027 
L 104.908646 175.403942 
L 106.457033 175.641123 
L 108.00542 175.418308 
L 111.102153 172.755419 
L 114.198927 170.411387 
L 117.29566 168.412006 
L 120.392393 166.779701 
L 123.489167 165.530905 
L 126.5859 164.670751 
L 129.682675 164.185665 
L 132.779407 164.037015 
L 132.779407 164.037015 
L 135.876182 164.160281 
L 139.747108 164.56823 
L 149.811542 165.783019 
L 153.68251 165.958491 
L 157.553436 165.894161 
L 162.198556 165.570144 
L 169.166257 165.05344 
L 171.488796 165.007087 
L 171.488796 165.007087 
L 172.829764 165.08322 
L 174.170691 165.310402 
L 175.511618 165.685094 
L 176.852545 166.201737 
L 178.193472 166.853189 
L 180.875326 168.526959 
L 183.557221 170.635402 
L 186.239075 173.108268 
L 188.920929 175.881822 
L 192.943751 180.48625 
L 196.966532 185.485461 
L 199.648386 188.971336 
L 202.330281 190.855235 
L 205.012135 192.786336 
L 209.034916 196.030218 
L 213.057738 199.663035 
L 217.080519 203.643768 
L 221.103341 207.923715 
L 226.467049 214.002939 
L 233.171725 222.013149 
L 238.535433 228.547155 
L 238.535433 228.547155 
" clip-path="url(#pab0f4987ed)" style="fill: none; stroke: #0000ff; stroke-width: 1.5; stroke-linecap: square"/>
   </g>
   <g id="line2d_25">
    <path d="M 55.36063 228.547155 
L 66.199257 207.217039 
L 70.844377 198.717009 
L 73.941151 193.428032 
L 77.037884 188.519094 
L 80.134659 184.060991 
L 83.231391 180.128859 
L 86.328166 176.801119 
L 87.876512 175.38822 
L 89.424899 174.15457 
L 90.973286 173.10757 
L 92.521632 172.252467 
L 94.070019 171.591287 
L 95.618406 171.121351 
L 97.166793 170.832967 
L 98.715139 170.705238 
L 103.3603 170.662621 
L 104.908646 170.316472 
L 106.457033 169.635507 
L 109.553766 167.701757 
L 117.29566 162.497025 
L 120.392393 160.664562 
L 123.489167 159.085447 
L 126.5859 157.843715 
L 128.134287 157.379641 
L 129.682675 157.036546 
L 131.231062 156.825225 
L 133.553601 156.771686 
L 135.876182 157.040464 
L 138.198721 157.615209 
L 140.521302 158.456008 
L 143.618035 159.888942 
L 152.134122 164.151759 
L 154.456662 164.887099 
L 156.005049 165.162554 
L 157.553436 165.25355 
L 159.875976 165.085762 
L 162.97275 164.5163 
L 167.61787 163.638547 
L 169.94045 163.405169 
L 182.216294 162.766708 
L 186.239075 162.605957 
L 188.920929 162.718941 
L 191.602824 163.112934 
L 194.284678 163.871012 
L 196.966532 165.058296 
L 199.648386 166.713938 
L 202.330281 168.849141 
L 205.012135 171.451383 
L 207.693989 174.49194 
L 210.375884 177.933308 
L 213.057738 181.734624 
L 215.739592 185.854834 
L 219.762414 192.546648 
L 223.785195 199.74063 
L 229.148903 209.91171 
L 235.853579 223.19414 
L 238.535433 228.547155 
L 238.535433 228.547155 
" clip-path="url(#pab0f4987ed)" style="fill: none; stroke: #0000ff; stroke-width: 1.5; stroke-linecap: square"/>
   </g>
   <g id="line2d_26">
    <path d="M 55.36063 155.971522 
L 60.00575 155.850048 
L 64.65087 155.488789 
L 69.296031 154.896696 
L 73.941151 154.087104 
L 78.586271 153.076032 
L 83.231391 151.880856 
L 89.424899 150.032832 
L 95.618406 147.940086 
L 104.908646 144.502913 
L 112.65054 141.663415 
L 115.747273 140.663942 
L 118.844047 139.862917 
L 120.392393 139.590658 
L 121.94078 139.436696 
L 125.037554 139.44135 
L 132.779407 139.74016 
L 132.779407 139.74016 
L 137.424528 139.611203 
L 142.843882 139.391553 
L 145.166422 139.568513 
L 147.489002 140.075301 
L 150.585735 141.098955 
L 155.230855 142.970065 
L 161.424363 145.498961 
L 164.521137 146.540193 
L 166.843676 147.12953 
L 169.166257 147.504706 
L 171.488796 147.633693 
L 171.488796 147.633693 
L 176.852545 147.7377 
L 182.216294 148.047725 
L 187.580002 148.556948 
L 194.284678 149.451445 
L 200.989354 150.584201 
L 211.716811 152.669756 
L 221.103341 154.40351 
L 226.467049 155.184541 
L 231.830798 155.721275 
L 235.853579 155.931028 
L 238.535433 155.971522 
L 238.535433 155.971522 
" clip-path="url(#pab0f4987ed)" style="fill: none; stroke: #0000ff; stroke-width: 1.5; stroke-linecap: square"/>
   </g>
   <g id="line2d_27">
    <path d="M 55.36063 155.971522 
L 56.909017 155.906446 
L 58.457363 155.712757 
L 60.00575 155.394973 
L 63.102524 154.418139 
L 66.199257 153.057076 
L 69.296031 151.411485 
L 73.941151 148.633534 
L 81.683004 143.91777 
L 86.328166 141.410123 
L 89.424899 139.971765 
L 92.521632 138.756676 
L 95.618406 137.785112 
L 98.715139 137.06767 
L 101.811913 136.604931 
L 104.908646 136.386625 
L 108.00542 136.390266 
L 111.102153 136.578824 
L 120.392393 137.480169 
L 123.489167 137.385891 
L 131.231062 136.724672 
L 135.101988 136.759143 
L 138.198721 137.023678 
L 145.166422 137.835171 
L 147.489002 137.777767 
L 151.359929 137.398244 
L 161.424363 136.304042 
L 166.843676 135.960228 
L 171.488796 135.863756 
L 171.488796 135.863756 
L 175.511618 135.745982 
L 186.239075 135.166116 
L 188.920929 135.249114 
L 191.602824 135.50298 
L 194.284678 135.946728 
L 196.966532 136.588975 
L 199.648386 137.429689 
L 202.330281 138.461687 
L 205.012135 139.671756 
L 209.034916 141.778767 
L 213.057738 144.159453 
L 226.467049 152.41209 
L 229.148903 153.729322 
L 231.830798 154.790564 
L 234.512652 155.536923 
L 237.194506 155.922687 
L 238.535433 155.971522 
L 238.535433 155.971522 
" clip-path="url(#pab0f4987ed)" style="fill: none; stroke: #0000ff; stroke-width: 1.5; stroke-linecap: square"/>
   </g>
   <g id="line2d_28">
    <path d="M 55.36063 120.776891 
L 58.457363 120.887173 
L 61.554137 121.212401 
L 64.65087 121.736708 
L 67.747644 122.436454 
L 72.392764 123.751465 
L 78.586271 125.827027 
L 87.876512 128.993428 
L 92.521632 130.262069 
L 95.618406 130.900212 
L 98.715139 131.365078 
L 103.3603 131.815724 
L 111.102153 132.446516 
L 115.747273 133.048912 
L 121.94078 134.160425 
L 126.5859 135.002439 
L 129.682675 135.397994 
L 132.779407 135.546153 
L 132.779407 135.546153 
L 135.101988 135.4575 
L 138.198721 135.071708 
L 141.295495 134.431086 
L 145.940615 133.179661 
L 155.230855 130.568356 
L 159.875976 129.536805 
L 163.746943 128.906781 
L 167.61787 128.517167 
L 171.488796 128.385336 
L 171.488796 128.385336 
L 175.511618 128.507322 
L 179.534399 128.850864 
L 192.943751 130.332259 
L 195.625605 130.352153 
L 198.307459 130.189109 
L 200.989354 129.836737 
L 203.671208 129.308744 
L 207.693989 128.25104 
L 213.057738 126.534839 
L 222.444268 123.455382 
L 226.467049 122.355505 
L 230.489871 121.50326 
L 234.512652 120.962438 
L 237.194506 120.797642 
L 238.535433 120.776891 
L 238.535433 120.776891 
" clip-path="url(#pab0f4987ed)" style="fill: none; stroke: #0000ff; stroke-width: 1.5; stroke-linecap: square"/>
   </g>
   <g id="line2d_29">
    <path d="M 55.36063 82.567368 
L 61.554137 82.466016 
L 70.844377 82.040245 
L 77.037884 81.791816 
L 81.683004 81.803905 
L 84.779779 81.973772 
L 87.876512 82.302875 
L 90.973286 82.798972 
L 95.618406 83.829104 
L 100.263526 85.11114 
L 112.65054 88.70894 
L 117.29566 89.788277 
L 121.94078 90.61156 
L 126.5859 91.151469 
L 131.231062 91.397419 
L 135.876182 91.348914 
L 139.747108 91.088859 
L 144.392228 90.527036 
L 149.037348 89.717463 
L 154.456662 88.513119 
L 167.61787 85.342531 
L 169.94045 85.068605 
L 172.829764 85.004248 
L 178.193472 84.800551 
L 183.557221 84.359264 
L 191.602824 83.428121 
L 200.989354 82.373507 
L 206.353062 81.982528 
L 211.716811 81.812939 
L 217.080519 81.854827 
L 225.126122 82.169215 
L 234.512652 82.524105 
L 238.535433 82.567368 
L 238.535433 82.567368 
" clip-path="url(#pab0f4987ed)" style="fill: none; stroke: #0000ff; stroke-width: 1.5; stroke-linecap: square"/>
   </g>
   <g id="line2d_30">
    <path d="M 55.36063 82.567368 
L 58.457363 82.469592 
L 61.554137 82.186502 
L 66.199257 81.480592 
L 72.392764 80.241483 
L 83.231391 78.053091 
L 94.070019 76.14152 
L 108.00542 73.89617 
L 117.29566 72.580418 
L 121.94078 72.040892 
L 123.489167 72.024648 
L 128.134287 72.484316 
L 132.779407 72.627994 
L 132.779407 72.627994 
L 137.424528 72.502968 
L 143.618035 72.23062 
L 147.489002 72.932238 
L 152.134122 74.035638 
L 157.553436 75.589037 
L 165.29533 77.839572 
L 168.392063 78.467662 
L 170.714644 78.692102 
L 174.170691 78.684297 
L 180.875326 78.436561 
L 199.648386 77.455369 
L 203.671208 77.543111 
L 207.693989 77.834356 
L 211.716811 78.335436 
L 217.080519 79.282251 
L 230.489871 81.936411 
L 234.512652 82.403136 
L 238.535433 82.567368 
L 238.535433 82.567368 
" clip-path="url(#pab0f4987ed)" style="fill: none; stroke: #0000ff; stroke-width: 1.5; stroke-linecap: square"/>
   </g>
   <g id="line2d_31">
    <path d="M 55.36063 47.766938 
L 58.457363 47.881738 
L 61.554137 48.223787 
L 64.65087 48.786097 
L 67.747644 49.55723 
L 70.844377 50.521589 
L 73.941151 51.659806 
L 78.586271 53.642725 
L 83.231391 55.877382 
L 92.521632 60.706773 
L 98.715139 63.866114 
L 103.3603 66.044068 
L 108.00542 67.971796 
L 112.65054 69.592839 
L 115.747273 70.484996 
L 118.844047 71.219687 
L 121.94078 71.795616 
L 123.489167 71.889216 
L 128.134287 71.54756 
L 132.779407 71.421263 
L 132.779407 71.421263 
L 136.650375 71.519135 
L 140.521302 71.826311 
L 142.843882 72.102463 
L 151.359929 71.193321 
L 159.875976 70.335058 
L 166.069483 69.941433 
L 171.488796 69.82596 
L 171.488796 69.82596 
L 174.170691 69.740254 
L 176.852545 69.484131 
L 179.534399 69.060647 
L 182.216294 68.475145 
L 186.239075 67.311112 
L 190.261856 65.839226 
L 194.284678 64.111559 
L 199.648386 61.521446 
L 215.739592 53.444391 
L 219.762414 51.734961 
L 223.785195 50.276483 
L 227.807976 49.118839 
L 230.489871 48.534248 
L 233.171725 48.11016 
L 235.853579 47.853074 
L 238.535433 47.766938 
L 238.535433 47.766938 
" clip-path="url(#pab0f4987ed)" style="fill: none; stroke: #0000ff; stroke-width: 1.5; stroke-linecap: square"/>
   </g>
   <g id="patch_3">
    <path d="M 55.36063 228.585827 
L 55.36063 13.011024 
" style="fill: none; stroke: #000000; stroke-width: 0.8; stroke-linejoin: miter; stroke-linecap: square"/>
   </g>
   <g id="patch_4">
    <path d="M 238.535433 228.585827 
L 238.535433 13.011024 
" style="fill: none; stroke: #000000; stroke-width: 0.8; stroke-linejoin: miter; stroke-linecap: square"/>
   </g>
   <g id="patch_5">
    <path d="M 55.36063 228.585827 
L 238.535433 228.585827 
" style="fill: none; stroke: #000000; stroke-width: 0.8; stroke-linejoin: miter; stroke-linecap: square"/>
   </g>
   <g id="patch_6">
    <path d="M 55.36063 13.011024 
L 238.535433 13.011024 
" style="fill: none; stroke: #000000; stroke-width: 0.8; stroke-linejoin: miter; stroke-linecap: square"/>
   </g>
  </g>
 </g>
 <defs>
  <clipPath id="pab0f4987ed">
   <rect x="55.36063" y="13.011024" width="183.174803" height="215.574803"/>
  </clipPath>
 </defs>
</svg>
