<?xml version="1.0" encoding="utf-8" standalone="no"?>
<!DOCTYPE svg PUBLIC "-//W3C//DTD SVG 1.1//EN"
  "http://www.w3.org/Graphics/SVG/1.1/DTD/svg11.dtd">
<svg xmlns:xlink="http://www.w3.org/1999/xlink" width="281.164023pt" height="221.383078pt" viewBox="0 0 281.164023 221.383078" xmlns="http://www.w3.org/2000/svg" version="1.1">
 <metadata>
  <rdf:RDF xmlns:dc="http://purl.org/dc/elements/1.1/" xmlns:cc="http://creativecommons.org/ns#" xmlns:rdf="http://www.w3.org/1999/02/22-rdf-syntax-ns#">
   <cc:Work>
    <dc:type rdf:resource="http://purl.org/dc/dcmitype/StillImage"/>
    <dc:date>2023-05-17T17:14:01.907022</dc:date>
    <dc:format>image/svg+xml</dc:format>
    <dc:creator>
     <cc:Agent>
      <dc:title>Matplotlib v3.5.2, https://matplotlib.org/</dc:title>
     </cc:Agent>
    </dc:creator>
   </cc:Work>
  </rdf:RDF>
 </metadata>
 <defs>
  <style type="text/css">*{stroke-linejoin: round; stroke-linecap: butt}</style>
 </defs>
 <g id="figure_1">
  <g id="patch_1">
   <path d="M 0 221.383078 
L 281.164023 221.383078 
L 281.164023 0 
L 0 0 
z
" style="fill: #ffffff"/>
  </g>
  <g id="axes_1">
   <g id="patch_2">
    <path d="M 25.246484 184.608 
L 270.766484 184.608 
L 270.766484 7.2 
L 25.246484 7.2 
z
" style="fill: #ffffff"/>
   </g>
   <g id="line2d_1">
    <path d="M 148.006484 184.608 
L 148.006484 7.2 
" clip-path="url(#pf0388cda22)" style="fill: none; stroke-dasharray: 4,1.6; stroke-dashoffset: 0; stroke: #000000; stroke-width: 0.8"/>
   </g>
   <g id="PolyCollection_1">
    <path d="M 24.046505 184.608 
L 24.046505 15.648 
L 25.32014 16.710499 
L 26.593775 17.840818 
L 27.864341 19.061562 
L 29.137976 20.304912 
L 30.411611 21.525656 
L 31.685246 22.723793 
L 32.955812 23.876718 
L 34.229447 24.690547 
L 35.503082 25.210494 
L 36.773648 25.413951 
L 38.047283 25.278313 
L 39.320918 24.848792 
L 40.594553 24.080176 
L 41.865119 22.99507 
L 43.138754 21.593475 
L 44.412389 20.870071 
L 45.686024 21.457837 
L 46.95659 22.429911 
L 48.230225 24.916611 
L 49.50386 27.584163 
L 50.777495 30.455172 
L 52.048061 33.529638 
L 53.321696 36.807561 
L 54.595331 40.266336 
L 55.865897 43.951174 
L 57.139532 47.839469 
L 58.413167 52.247711 
L 59.686802 56.85941 
L 60.957368 61.65196 
L 62.231003 66.625362 
L 63.504638 71.80222 
L 64.778273 77.159929 
L 66.048839 80.822161 
L 67.322474 83.421893 
L 68.596109 86.066839 
L 69.869744 88.756997 
L 71.14031 91.514974 
L 72.413945 94.34077 
L 73.68758 97.256991 
L 74.958146 100.241032 
L 76.231781 103.292892 
L 77.505416 106.435177 
L 78.779051 109.554856 
L 80.049617 112.448471 
L 81.323252 115.093416 
L 82.596887 117.512298 
L 83.870522 119.682509 
L 85.141088 121.60405 
L 86.414723 123.299528 
L 87.688358 124.836761 
L 88.958924 126.373994 
L 90.232559 127.866014 
L 91.506194 129.312822 
L 92.779829 130.75963 
L 94.050395 132.161225 
L 95.32403 133.517607 
L 96.597665 134.873989 
L 97.8713 136.162552 
L 99.141866 137.428508 
L 100.415501 138.626646 
L 101.689136 139.779571 
L 102.962771 140.887283 
L 104.233337 141.972389 
L 105.506972 142.989675 
L 106.780607 143.961749 
L 108.051173 144.88861 
L 109.324808 145.770258 
L 110.598443 146.584088 
L 111.872078 147.375311 
L 113.142644 148.121321 
L 114.416279 148.822118 
L 115.689914 149.455097 
L 116.963549 150.065469 
L 118.234115 150.879298 
L 119.50775 152.913871 
L 120.781385 156.304826 
L 122.05502 161.029557 
L 123.325586 167.088064 
L 124.599221 168.851361 
L 125.872856 170.524232 
L 127.143422 172.084072 
L 128.417057 173.576092 
L 129.690692 174.955081 
L 130.964327 176.243644 
L 132.234893 177.464387 
L 133.508528 178.5721 
L 134.782163 179.589386 
L 136.055798 180.493641 
L 137.326364 181.330077 
L 138.599999 182.05348 
L 139.873634 182.709065 
L 141.147269 183.251618 
L 142.417835 183.703745 
L 143.69147 184.065447 
L 144.965105 184.336724 
L 146.235671 184.517575 
L 147.509306 184.608 
L 148.782941 184.608 
L 150.056576 184.608 
L 151.327142 184.608 
L 152.600777 184.608 
L 153.874412 184.608 
L 155.148047 184.608 
L 156.418613 184.608 
L 157.692248 184.608 
L 158.965883 184.608 
L 160.236449 184.608 
L 161.510084 184.608 
L 162.783719 184.608 
L 164.057354 184.608 
L 165.32792 184.608 
L 166.601555 184.608 
L 167.87519 184.608 
L 169.148825 184.608 
L 170.419391 184.608 
L 171.693026 184.608 
L 172.966661 184.608 
L 174.240296 184.608 
L 175.510862 184.608 
L 176.784497 184.608 
L 178.058132 184.608 
L 179.328698 184.608 
L 180.602333 184.608 
L 181.875968 184.608 
L 183.149603 184.608 
L 184.420169 184.608 
L 185.693804 184.608 
L 186.967439 184.608 
L 188.241074 184.608 
L 189.51164 184.608 
L 190.785275 184.608 
L 192.05891 184.608 
L 193.332545 184.608 
L 194.603111 184.608 
L 195.876746 184.608 
L 197.150381 184.608 
L 198.420947 184.608 
L 199.694582 184.608 
L 200.968217 184.608 
L 202.241852 184.608 
L 203.512418 184.608 
L 204.786053 184.608 
L 206.059688 184.608 
L 207.333323 184.608 
L 208.603889 184.608 
L 209.877524 184.608 
L 211.151159 184.608 
L 212.424794 184.608 
L 213.69536 184.608 
L 214.968995 184.608 
L 216.24263 184.608 
L 217.513196 184.608 
L 218.786831 184.608 
L 220.060466 184.608 
L 221.334101 184.608 
L 222.604667 184.608 
L 223.878302 184.608 
L 225.151937 184.608 
L 226.425572 184.608 
L 227.696138 184.608 
L 228.969773 184.608 
L 230.243408 184.608 
L 231.517043 184.608 
L 232.787609 184.608 
L 234.061244 184.608 
L 235.334879 184.608 
L 236.605445 184.608 
L 237.87908 184.608 
L 239.152715 184.608 
L 240.42635 184.608 
L 241.696916 184.608 
L 242.970551 184.608 
L 244.244186 184.608 
L 245.517821 184.608 
L 246.788387 184.608 
L 248.062022 184.608 
L 249.335657 184.608 
L 250.606223 184.608 
L 251.879858 184.608 
L 253.153493 184.608 
L 254.427128 184.608 
L 255.697694 184.608 
L 256.971329 184.608 
L 258.244964 184.608 
L 259.518599 184.608 
L 260.789165 184.608 
L 262.0628 184.608 
L 263.336435 184.608 
L 264.61007 184.608 
L 265.880636 184.608 
L 267.154271 184.608 
L 268.427906 184.608 
L 269.698472 184.608 
L 270.972107 184.608 
L 272.245742 184.608 
L 272.245742 184.608 
L 272.245742 184.608 
L 270.972107 184.608 
L 269.698472 184.608 
L 268.427906 184.608 
L 267.154271 184.608 
L 265.880636 184.608 
L 264.61007 184.608 
L 263.336435 184.608 
L 262.0628 184.608 
L 260.789165 184.608 
L 259.518599 184.608 
L 258.244964 184.608 
L 256.971329 184.608 
L 255.697694 184.608 
L 254.427128 184.608 
L 253.153493 184.608 
L 251.879858 184.608 
L 250.606223 184.608 
L 249.335657 184.608 
L 248.062022 184.608 
L 246.788387 184.608 
L 245.517821 184.608 
L 244.244186 184.608 
L 242.970551 184.608 
L 241.696916 184.608 
L 240.42635 184.608 
L 239.152715 184.608 
L 237.87908 184.608 
L 236.605445 184.608 
L 235.334879 184.608 
L 234.061244 184.608 
L 232.787609 184.608 
L 231.517043 184.608 
L 230.243408 184.608 
L 228.969773 184.608 
L 227.696138 184.608 
L 226.425572 184.608 
L 225.151937 184.608 
L 223.878302 184.608 
L 222.604667 184.608 
L 221.334101 184.608 
L 220.060466 184.608 
L 218.786831 184.608 
L 217.513196 184.608 
L 216.24263 184.608 
L 214.968995 184.608 
L 213.69536 184.608 
L 212.424794 184.608 
L 211.151159 184.608 
L 209.877524 184.608 
L 208.603889 184.608 
L 207.333323 184.608 
L 206.059688 184.608 
L 204.786053 184.608 
L 203.512418 184.608 
L 202.241852 184.608 
L 200.968217 184.608 
L 199.694582 184.608 
L 198.420947 184.608 
L 197.150381 184.608 
L 195.876746 184.608 
L 194.603111 184.608 
L 193.332545 184.608 
L 192.05891 184.608 
L 190.785275 184.608 
L 189.51164 184.608 
L 188.241074 184.608 
L 186.967439 184.608 
L 185.693804 184.608 
L 184.420169 184.608 
L 183.149603 184.608 
L 181.875968 184.608 
L 180.602333 184.608 
L 179.328698 184.608 
L 178.058132 184.608 
L 176.784497 184.608 
L 175.510862 184.608 
L 174.240296 184.608 
L 172.966661 184.608 
L 171.693026 184.608 
L 170.419391 184.608 
L 169.148825 184.608 
L 167.87519 184.608 
L 166.601555 184.608 
L 165.32792 184.608 
L 164.057354 184.608 
L 162.783719 184.608 
L 161.510084 184.608 
L 160.236449 184.608 
L 158.965883 184.608 
L 157.692248 184.608 
L 156.418613 184.608 
L 155.148047 184.608 
L 153.874412 184.608 
L 152.600777 184.608 
L 151.327142 184.608 
L 150.056576 184.608 
L 148.782941 184.608 
L 147.509306 184.608 
L 146.235671 184.608 
L 144.965105 184.608 
L 143.69147 184.608 
L 142.417835 184.608 
L 141.147269 184.608 
L 139.873634 184.608 
L 138.599999 184.608 
L 137.326364 184.608 
L 136.055798 184.608 
L 134.782163 184.608 
L 133.508528 184.608 
L 132.234893 184.608 
L 130.964327 184.608 
L 129.690692 184.608 
L 128.417057 184.608 
L 127.143422 184.608 
L 125.872856 184.608 
L 124.599221 184.608 
L 123.325586 184.608 
L 122.05502 184.608 
L 120.781385 184.608 
L 119.50775 184.608 
L 118.234115 184.608 
L 116.963549 184.608 
L 115.689914 184.608 
L 114.416279 184.608 
L 113.142644 184.608 
L 111.872078 184.608 
L 110.598443 184.608 
L 109.324808 184.608 
L 108.051173 184.608 
L 106.780607 184.608 
L 105.506972 184.608 
L 104.233337 184.608 
L 102.962771 184.608 
L 101.689136 184.608 
L 100.415501 184.608 
L 99.141866 184.608 
L 97.8713 184.608 
L 96.597665 184.608 
L 95.32403 184.608 
L 94.050395 184.608 
L 92.779829 184.608 
L 91.506194 184.608 
L 90.232559 184.608 
L 88.958924 184.608 
L 87.688358 184.608 
L 86.414723 184.608 
L 85.141088 184.608 
L 83.870522 184.608 
L 82.596887 184.608 
L 81.323252 184.608 
L 80.049617 184.608 
L 78.779051 184.608 
L 77.505416 184.608 
L 76.231781 184.608 
L 74.958146 184.608 
L 73.68758 184.608 
L 72.413945 184.608 
L 71.14031 184.608 
L 69.869744 184.608 
L 68.596109 184.608 
L 67.322474 184.608 
L 66.048839 184.608 
L 64.778273 184.608 
L 63.504638 184.608 
L 62.231003 184.608 
L 60.957368 184.608 
L 59.686802 184.608 
L 58.413167 184.608 
L 57.139532 184.608 
L 55.865897 184.608 
L 54.595331 184.608 
L 53.321696 184.608 
L 52.048061 184.608 
L 50.777495 184.608 
L 49.50386 184.608 
L 48.230225 184.608 
L 46.95659 184.608 
L 45.686024 184.608 
L 44.412389 184.608 
L 43.138754 184.608 
L 41.865119 184.608 
L 40.594553 184.608 
L 39.320918 184.608 
L 38.047283 184.608 
L 36.773648 184.608 
L 35.503082 184.608 
L 34.229447 184.608 
L 32.955812 184.608 
L 31.685246 184.608 
L 30.411611 184.608 
L 29.137976 184.608 
L 27.864341 184.608 
L 26.593775 184.608 
L 25.32014 184.608 
L 24.046505 184.608 
z
" clip-path="url(#pf0388cda22)" style="fill-opacity: 0.15"/>
   </g>
   <g id="line2d_2">
    <path d="M 24.046505 15.648 
L 26.593775 17.840818 
L 32.955812 23.876718 
L 34.229447 24.690547 
L 35.503082 25.210494 
L 36.773648 25.413951 
L 38.047283 25.278313 
L 39.320918 24.848792 
L 40.594553 24.080176 
L 41.865119 22.99507 
L 43.138754 21.593475 
L 44.412389 20.870071 
L 45.686024 21.457837 
L 46.95659 22.429911 
L 49.50386 27.584163 
L 52.048061 33.529638 
L 54.595331 40.266336 
L 57.139532 47.839469 
L 59.686802 56.85941 
L 62.231003 66.625362 
L 64.778273 77.159929 
L 66.048839 80.822161 
L 69.869744 88.756997 
L 73.68758 97.256991 
L 77.505416 106.435177 
L 80.049617 112.448471 
L 82.596887 117.512298 
L 83.870522 119.682509 
L 85.141088 121.60405 
L 87.688358 124.836761 
L 91.506194 129.312822 
L 95.32403 133.517607 
L 99.141866 137.428508 
L 102.962771 140.887283 
L 105.506972 142.989675 
L 109.324808 145.770258 
L 113.142644 148.121321 
L 115.689914 149.455097 
L 116.963549 150.065469 
L 118.234115 150.879298 
L 119.50775 152.913871 
L 120.781385 156.304826 
L 122.05502 161.029557 
L 123.325586 167.088064 
L 125.872856 170.524232 
L 128.417057 173.576092 
L 130.964327 176.243644 
L 133.508528 178.5721 
L 136.055798 180.493641 
L 138.599999 182.05348 
L 141.147269 183.251618 
L 143.69147 184.065447 
L 146.235671 184.517575 
L 148.782941 184.608 
L 272.245742 184.608 
L 272.245742 184.608 
" clip-path="url(#pf0388cda22)" style="fill: none; stroke: #000000; stroke-width: 1.1; stroke-linecap: square"/>
   </g>
   <g id="patch_3">
    <path d="M 25.246484 184.608 
L 25.246484 7.2 
" style="fill: none; stroke: #000000; stroke-width: 0.8; stroke-linejoin: miter; stroke-linecap: square"/>
   </g>
   <g id="patch_4">
    <path d="M 270.766484 184.608 
L 270.766484 7.2 
" style="fill: none; stroke: #000000; stroke-width: 0.8; stroke-linejoin: miter; stroke-linecap: square"/>
   </g>
   <g id="patch_5">
    <path d="M 25.246484 184.608 
L 270.766484 184.608 
" style="fill: none; stroke: #000000; stroke-width: 0.8; stroke-linejoin: miter; stroke-linecap: square"/>
   </g>
   <g id="patch_6">
    <path d="M 25.246484 7.2 
L 270.766484 7.2 
" style="fill: none; stroke: #000000; stroke-width: 0.8; stroke-linejoin: miter; stroke-linecap: square"/>
   </g>
   <g id="matplotlib.axis_1">
    <g id="xtick_1">
     <g id="line2d_3">
      <defs>
       <path id="mf017f0b411" d="M 0 0 
L 0 -3.5 
" style="stroke: #000000; stroke-width: 0.8"/>
      </defs>
      <g>
       <use xlink:href="#mf017f0b411" x="25.246484" y="184.608" style="stroke: #000000; stroke-width: 0.8"/>
      </g>
     </g>
     <g id="text_1">
      <!-- −4 -->
      <g transform="translate(18.690586 196.857453)scale(0.115 -0.115)">
       <defs>
        <path id="Helvetica-2212" d="M 3547 1894 
L 3547 1369 
L 288 1369 
L 288 1894 
L 3547 1894 
z
" transform="scale(0.015625)"/>
        <path id="Helvetica-34" d="M 2116 1584 
L 2116 3613 
L 681 1584 
L 2116 1584 
z
M 2125 0 
L 2125 1094 
L 163 1094 
L 163 1644 
L 2213 4488 
L 2688 4488 
L 2688 1584 
L 3347 1584 
L 3347 1094 
L 2688 1094 
L 2688 0 
L 2125 0 
z
" transform="scale(0.015625)"/>
       </defs>
       <use xlink:href="#Helvetica-2212"/>
       <use xlink:href="#Helvetica-34" x="58.398438"/>
      </g>
     </g>
    </g>
    <g id="xtick_2">
     <g id="line2d_4">
      <g>
       <use xlink:href="#mf017f0b411" x="86.626484" y="184.608" style="stroke: #000000; stroke-width: 0.8"/>
      </g>
     </g>
     <g id="text_2">
      <!-- −2 -->
      <g transform="translate(80.070586 196.857453)scale(0.115 -0.115)">
       <defs>
        <path id="Helvetica-32" d="M 200 0 
Q 231 578 439 1006 
Q 647 1434 1250 1784 
L 1850 2131 
Q 2253 2366 2416 2531 
Q 2672 2791 2672 3125 
Q 2672 3516 2437 3745 
Q 2203 3975 1813 3975 
Q 1234 3975 1013 3538 
Q 894 3303 881 2888 
L 309 2888 
Q 319 3472 525 3841 
Q 891 4491 1816 4491 
Q 2584 4491 2939 4075 
Q 3294 3659 3294 3150 
Q 3294 2613 2916 2231 
Q 2697 2009 2131 1694 
L 1703 1456 
Q 1397 1288 1222 1134 
Q 909 863 828 531 
L 3272 531 
L 3272 0 
L 200 0 
z
" transform="scale(0.015625)"/>
       </defs>
       <use xlink:href="#Helvetica-2212"/>
       <use xlink:href="#Helvetica-32" x="58.398438"/>
      </g>
     </g>
    </g>
    <g id="xtick_3">
     <g id="line2d_5">
      <g>
       <use xlink:href="#mf017f0b411" x="148.006484" y="184.608" style="stroke: #000000; stroke-width: 0.8"/>
      </g>
     </g>
     <g id="text_3">
      <!-- 0 -->
      <g transform="translate(144.808945 196.857453)scale(0.115 -0.115)">
       <defs>
        <path id="Helvetica-30" d="M 1731 4475 
Q 2600 4475 2988 3759 
Q 3288 3206 3288 2244 
Q 3288 1331 3016 734 
Q 2622 -122 1728 -122 
Q 922 -122 528 578 
Q 200 1163 200 2147 
Q 200 2909 397 3456 
Q 766 4475 1731 4475 
z
M 1725 391 
Q 2163 391 2422 778 
Q 2681 1166 2681 2222 
Q 2681 2984 2493 3476 
Q 2306 3969 1766 3969 
Q 1269 3969 1039 3501 
Q 809 3034 809 2125 
Q 809 1441 956 1025 
Q 1181 391 1725 391 
z
" transform="scale(0.015625)"/>
       </defs>
       <use xlink:href="#Helvetica-30"/>
      </g>
     </g>
    </g>
    <g id="xtick_4">
     <g id="line2d_6">
      <g>
       <use xlink:href="#mf017f0b411" x="209.386484" y="184.608" style="stroke: #000000; stroke-width: 0.8"/>
      </g>
     </g>
     <g id="text_4">
      <!-- 2 -->
      <g transform="translate(206.188945 196.857453)scale(0.115 -0.115)">
       <use xlink:href="#Helvetica-32"/>
      </g>
     </g>
    </g>
    <g id="xtick_5">
     <g id="line2d_7">
      <g>
       <use xlink:href="#mf017f0b411" x="270.766484" y="184.608" style="stroke: #000000; stroke-width: 0.8"/>
      </g>
     </g>
     <g id="text_5">
      <!-- 4 -->
      <g transform="translate(267.568945 196.857453)scale(0.115 -0.115)">
       <use xlink:href="#Helvetica-34"/>
      </g>
     </g>
    </g>
    <g id="xtick_6">
     <g id="line2d_8"/>
    </g>
    <g id="xtick_7">
     <g id="line2d_9"/>
    </g>
    <g id="xtick_8">
     <g id="line2d_10"/>
    </g>
    <g id="xtick_9">
     <g id="line2d_11"/>
    </g>
    <g id="text_6">
     <!-- Energy (eV) -->
     <g transform="translate(117.329336 211.638703)scale(0.115 -0.115)">
      <defs>
       <path id="Helvetica-45" d="M 547 4591 
L 3894 4591 
L 3894 4028 
L 1153 4028 
L 1153 2634 
L 3688 2634 
L 3688 2103 
L 1153 2103 
L 1153 547 
L 3941 547 
L 3941 0 
L 547 0 
L 547 4591 
z
M 2244 4591 
L 2244 4591 
z
" transform="scale(0.015625)"/>
       <path id="Helvetica-6e" d="M 413 3347 
L 947 3347 
L 947 2872 
Q 1184 3166 1450 3294 
Q 1716 3422 2041 3422 
Q 2753 3422 3003 2925 
Q 3141 2653 3141 2147 
L 3141 0 
L 2569 0 
L 2569 2109 
Q 2569 2416 2478 2603 
Q 2328 2916 1934 2916 
Q 1734 2916 1606 2875 
Q 1375 2806 1200 2600 
Q 1059 2434 1017 2257 
Q 975 2081 975 1753 
L 975 0 
L 413 0 
L 413 3347 
z
M 1734 3428 
L 1734 3428 
z
" transform="scale(0.015625)"/>
       <path id="Helvetica-65" d="M 1806 3422 
Q 2163 3422 2497 3255 
Q 2831 3088 3006 2822 
Q 3175 2569 3231 2231 
Q 3281 2000 3281 1494 
L 828 1494 
Q 844 984 1069 676 
Q 1294 369 1766 369 
Q 2206 369 2469 659 
Q 2619 828 2681 1050 
L 3234 1050 
Q 3213 866 3089 639 
Q 2966 413 2813 269 
Q 2556 19 2178 -69 
Q 1975 -119 1719 -119 
Q 1094 -119 659 336 
Q 225 791 225 1609 
Q 225 2416 662 2919 
Q 1100 3422 1806 3422 
z
M 2703 1941 
Q 2669 2306 2544 2525 
Q 2313 2931 1772 2931 
Q 1384 2931 1121 2651 
Q 859 2372 844 1941 
L 2703 1941 
z
M 1753 3428 
L 1753 3428 
z
" transform="scale(0.015625)"/>
       <path id="Helvetica-72" d="M 428 3347 
L 963 3347 
L 963 2769 
Q 1028 2938 1284 3180 
Q 1541 3422 1875 3422 
Q 1891 3422 1928 3419 
Q 1966 3416 2056 3406 
L 2056 2813 
Q 2006 2822 1964 2825 
Q 1922 2828 1872 2828 
Q 1447 2828 1219 2554 
Q 991 2281 991 1925 
L 991 0 
L 428 0 
L 428 3347 
z
" transform="scale(0.015625)"/>
       <path id="Helvetica-67" d="M 1594 3406 
Q 1988 3406 2281 3213 
Q 2441 3103 2606 2894 
L 2606 3316 
L 3125 3316 
L 3125 272 
Q 3125 -366 2938 -734 
Q 2588 -1416 1616 -1416 
Q 1075 -1416 706 -1173 
Q 338 -931 294 -416 
L 866 -416 
Q 906 -641 1028 -763 
Q 1219 -950 1628 -950 
Q 2275 -950 2475 -494 
Q 2594 -225 2584 466 
Q 2416 209 2178 84 
Q 1941 -41 1550 -41 
Q 1006 -41 598 345 
Q 191 731 191 1622 
Q 191 2463 602 2934 
Q 1013 3406 1594 3406 
z
M 2606 1688 
Q 2606 2309 2350 2609 
Q 2094 2909 1697 2909 
Q 1103 2909 884 2353 
Q 769 2056 769 1575 
Q 769 1009 998 714 
Q 1228 419 1616 419 
Q 2222 419 2469 966 
Q 2606 1275 2606 1688 
z
M 1659 3428 
L 1659 3428 
z
" transform="scale(0.015625)"/>
       <path id="Helvetica-79" d="M 2503 3347 
L 3125 3347 
Q 3006 3025 2597 1878 
Q 2291 1016 2084 472 
Q 1597 -809 1397 -1090 
Q 1197 -1372 709 -1372 
Q 591 -1372 527 -1362 
Q 463 -1353 369 -1328 
L 369 -816 
Q 516 -856 581 -865 
Q 647 -875 697 -875 
Q 853 -875 926 -823 
Q 1000 -772 1050 -697 
Q 1066 -672 1162 -440 
Q 1259 -209 1303 -97 
L 66 3347 
L 703 3347 
L 1600 622 
L 2503 3347 
z
M 1597 3428 
L 1597 3428 
z
" transform="scale(0.015625)"/>
       <path id="Helvetica-20" transform="scale(0.015625)"/>
       <path id="Helvetica-28" d="M 1894 4666 
Q 1403 3713 1256 3263 
Q 1034 2578 1034 1681 
Q 1034 775 1288 25 
Q 1444 -438 1903 -1306 
L 1525 -1306 
Q 1069 -594 959 -397 
Q 850 -200 722 138 
Q 547 600 478 1125 
Q 444 1397 444 1644 
Q 444 2569 734 3291 
Q 919 3750 1503 4666 
L 1894 4666 
z
" transform="scale(0.015625)"/>
       <path id="Helvetica-56" d="M 850 4591 
L 2169 681 
L 3472 4591 
L 4169 4591 
L 2494 0 
L 1834 0 
L 163 4591 
L 850 4591 
z
" transform="scale(0.015625)"/>
       <path id="Helvetica-29" d="M 222 -1306 
Q 719 -338 863 106 
Q 1081 778 1081 1681 
Q 1081 2584 828 3334 
Q 672 3797 213 4666 
L 591 4666 
Q 1072 3897 1173 3717 
Q 1275 3538 1394 3222 
Q 1544 2831 1608 2450 
Q 1672 2069 1672 1716 
Q 1672 791 1378 66 
Q 1194 -400 613 -1306 
L 222 -1306 
z
" transform="scale(0.015625)"/>
      </defs>
      <use xlink:href="#Helvetica-45"/>
      <use xlink:href="#Helvetica-6e" x="66.699219"/>
      <use xlink:href="#Helvetica-65" x="122.314453"/>
      <use xlink:href="#Helvetica-72" x="177.929688"/>
      <use xlink:href="#Helvetica-67" x="211.230469"/>
      <use xlink:href="#Helvetica-79" x="266.845703"/>
      <use xlink:href="#Helvetica-20" x="316.845703"/>
      <use xlink:href="#Helvetica-28" x="344.628906"/>
      <use xlink:href="#Helvetica-65" x="377.929688"/>
      <use xlink:href="#Helvetica-56" x="433.544922"/>
      <use xlink:href="#Helvetica-29" x="500.244141"/>
     </g>
    </g>
   </g>
   <g id="matplotlib.axis_2">
    <g id="ytick_1"/>
    <g id="ytick_2"/>
    <g id="ytick_3"/>
    <g id="ytick_4"/>
    <g id="ytick_5"/>
    <g id="ytick_6"/>
    <g id="ytick_7"/>
    <g id="ytick_8"/>
    <g id="text_7">
     <!-- DOS -->
     <g transform="translate(15.449453 108.36443)rotate(-90)scale(0.115 -0.115)">
      <defs>
       <path id="Helvetica-44" d="M 2250 531 
Q 2566 531 2769 597 
Q 3131 719 3363 1066 
Q 3547 1344 3628 1778 
Q 3675 2038 3675 2259 
Q 3675 3113 3336 3584 
Q 2997 4056 2244 4056 
L 1141 4056 
L 1141 531 
L 2250 531 
z
M 516 4591 
L 2375 4591 
Q 3322 4591 3844 3919 
Q 4309 3313 4309 2366 
Q 4309 1634 4034 1044 
Q 3550 0 2369 0 
L 516 0 
L 516 4591 
z
" transform="scale(0.015625)"/>
       <path id="Helvetica-4f" d="M 2469 4716 
Q 3684 4716 4269 3934 
Q 4725 3325 4725 2375 
Q 4725 1347 4203 666 
Q 3591 -134 2456 -134 
Q 1397 -134 791 566 
Q 250 1241 250 2272 
Q 250 3203 713 3866 
Q 1306 4716 2469 4716 
z
M 2531 422 
Q 3353 422 3720 1011 
Q 4088 1600 4088 2366 
Q 4088 3175 3664 3669 
Q 3241 4163 2506 4163 
Q 1794 4163 1344 3673 
Q 894 3184 894 2231 
Q 894 1469 1280 945 
Q 1666 422 2531 422 
z
M 2488 4716 
L 2488 4716 
z
" transform="scale(0.015625)"/>
       <path id="Helvetica-53" d="M 894 1481 
Q 916 1091 1078 847 
Q 1388 391 2169 391 
Q 2519 391 2806 491 
Q 3363 684 3363 1184 
Q 3363 1559 3128 1719 
Q 2891 1875 2384 1991 
L 1763 2131 
Q 1153 2269 900 2434 
Q 463 2722 463 3294 
Q 463 3913 891 4309 
Q 1319 4706 2103 4706 
Q 2825 4706 3329 4357 
Q 3834 4009 3834 3244 
L 3250 3244 
Q 3203 3613 3050 3809 
Q 2766 4169 2084 4169 
Q 1534 4169 1293 3937 
Q 1053 3706 1053 3400 
Q 1053 3063 1334 2906 
Q 1519 2806 2169 2656 
L 2813 2509 
Q 3278 2403 3531 2219 
Q 3969 1897 3969 1284 
Q 3969 522 3414 194 
Q 2859 -134 2125 -134 
Q 1269 -134 784 303 
Q 300 738 309 1481 
L 894 1481 
z
M 2150 4716 
L 2150 4716 
z
" transform="scale(0.015625)"/>
      </defs>
      <use xlink:href="#Helvetica-44"/>
      <use xlink:href="#Helvetica-4f" x="72.216797"/>
      <use xlink:href="#Helvetica-53" x="150"/>
     </g>
    </g>
   </g>
   <g id="legend_1">
    <g id="line2d_12">
     <path d="M 180.286641 21.774453 
L 188.911641 21.774453 
L 197.536641 21.774453 
" style="fill: none; stroke: #000000; stroke-width: 1.1; stroke-linecap: square"/>
    </g>
    <g id="text_8">
     <!-- Total DOS -->
     <g transform="translate(206.736641 25.799453)scale(0.115 -0.115)">
      <defs>
       <path id="Helvetica-54" d="M 3828 4591 
L 3828 4044 
L 2281 4044 
L 2281 0 
L 1650 0 
L 1650 4044 
L 103 4044 
L 103 4591 
L 3828 4591 
z
" transform="scale(0.015625)"/>
       <path id="Helvetica-6f" d="M 1741 363 
Q 2300 363 2508 786 
Q 2716 1209 2716 1728 
Q 2716 2197 2566 2491 
Q 2328 2953 1747 2953 
Q 1231 2953 997 2559 
Q 763 2166 763 1609 
Q 763 1075 997 719 
Q 1231 363 1741 363 
z
M 1763 3444 
Q 2409 3444 2856 3012 
Q 3303 2581 3303 1744 
Q 3303 934 2909 406 
Q 2516 -122 1688 -122 
Q 997 -122 590 345 
Q 184 813 184 1600 
Q 184 2444 612 2944 
Q 1041 3444 1763 3444 
z
M 1744 3428 
L 1744 3428 
z
" transform="scale(0.015625)"/>
       <path id="Helvetica-74" d="M 525 4281 
L 1094 4281 
L 1094 3347 
L 1628 3347 
L 1628 2888 
L 1094 2888 
L 1094 703 
Q 1094 528 1213 469 
Q 1278 434 1431 434 
Q 1472 434 1519 436 
Q 1566 438 1628 444 
L 1628 0 
Q 1531 -28 1426 -40 
Q 1322 -53 1200 -53 
Q 806 -53 665 148 
Q 525 350 525 672 
L 525 2888 
L 72 2888 
L 72 3347 
L 525 3347 
L 525 4281 
z
" transform="scale(0.015625)"/>
       <path id="Helvetica-61" d="M 844 891 
Q 844 647 1022 506 
Q 1200 366 1444 366 
Q 1741 366 2019 503 
Q 2488 731 2488 1250 
L 2488 1703 
Q 2384 1638 2221 1594 
Q 2059 1550 1903 1531 
L 1563 1488 
Q 1256 1447 1103 1359 
Q 844 1213 844 891 
z
M 2206 2028 
Q 2400 2053 2466 2191 
Q 2503 2266 2503 2406 
Q 2503 2694 2298 2823 
Q 2094 2953 1713 2953 
Q 1272 2953 1088 2716 
Q 984 2584 953 2325 
L 428 2325 
Q 444 2944 830 3186 
Q 1216 3428 1725 3428 
Q 2316 3428 2684 3203 
Q 3050 2978 3050 2503 
L 3050 575 
Q 3050 488 3086 434 
Q 3122 381 3238 381 
Q 3275 381 3322 386 
Q 3369 391 3422 400 
L 3422 -16 
Q 3291 -53 3222 -62 
Q 3153 -72 3034 -72 
Q 2744 -72 2613 134 
Q 2544 244 2516 444 
Q 2344 219 2022 53 
Q 1700 -113 1313 -113 
Q 847 -113 551 170 
Q 256 453 256 878 
Q 256 1344 547 1600 
Q 838 1856 1309 1916 
L 2206 2028 
z
M 1741 3428 
L 1741 3428 
z
" transform="scale(0.015625)"/>
       <path id="Helvetica-6c" d="M 428 4591 
L 991 4591 
L 991 0 
L 428 0 
L 428 4591 
z
" transform="scale(0.015625)"/>
      </defs>
      <use xlink:href="#Helvetica-54"/>
      <use xlink:href="#Helvetica-6f" x="61.083984"/>
      <use xlink:href="#Helvetica-74" x="116.699219"/>
      <use xlink:href="#Helvetica-61" x="144.482422"/>
      <use xlink:href="#Helvetica-6c" x="200.097656"/>
      <use xlink:href="#Helvetica-20" x="222.314453"/>
      <use xlink:href="#Helvetica-44" x="250.097656"/>
      <use xlink:href="#Helvetica-4f" x="322.314453"/>
      <use xlink:href="#Helvetica-53" x="400.097656"/>
     </g>
    </g>
   </g>
  </g>
 </g>
 <defs>
  <clipPath id="pf0388cda22">
   <rect x="25.246484" y="7.2" width="245.52" height="177.408"/>
  </clipPath>
 </defs>
</svg>
