<?xml version="1.0" encoding="utf-8" standalone="no"?>
<!DOCTYPE svg PUBLIC "-//W3C//DTD SVG 1.1//EN"
  "http://www.w3.org/Graphics/SVG/1.1/DTD/svg11.dtd">
<svg xmlns:xlink="http://www.w3.org/1999/xlink" width="252.283465pt" height="212.598425pt" viewBox="0 0 252.283465 212.598425" xmlns="http://www.w3.org/2000/svg" version="1.1">
 <metadata>
  <rdf:RDF xmlns:dc="http://purl.org/dc/elements/1.1/" xmlns:cc="http://creativecommons.org/ns#" xmlns:rdf="http://www.w3.org/1999/02/22-rdf-syntax-ns#">
   <cc:Work>
    <dc:type rdf:resource="http://purl.org/dc/dcmitype/StillImage"/>
    <dc:date>2023-05-08T08:14:11.892967</dc:date>
    <dc:format>image/svg+xml</dc:format>
    <dc:creator>
     <cc:Agent>
      <dc:title>Matplotlib v3.5.2, https://matplotlib.org/</dc:title>
     </cc:Agent>
    </dc:creator>
   </cc:Work>
  </rdf:RDF>
 </metadata>
 <defs>
  <style type="text/css">*{stroke-linejoin: round; stroke-linecap: butt}</style>
 </defs>
 <g id="figure_1">
  <g id="patch_1">
   <path d="M 0 212.598425 
L 252.283465 212.598425 
L 252.283465 0 
L 0 0 
z
" style="fill: #ffffff"/>
  </g>
  <g id="axes_1">
   <g id="patch_2">
    <path d="M 54.44 176.565675 
L 250.883465 176.565675 
L 250.883465 6.423125 
L 54.44 6.423125 
z
" style="fill: #ffffff"/>
   </g>
   <g id="matplotlib.axis_1">
    <g id="xtick_1">
     <g id="line2d_1">
      <defs>
       <path id="m8406846768" d="M 0 0 
L 0 -3.5 
" style="stroke: #000000; stroke-width: 0.8"/>
      </defs>
      <g>
       <use xlink:href="#m8406846768" x="74.084346" y="176.565675" style="stroke: #000000; stroke-width: 0.8"/>
      </g>
     </g>
     <g id="line2d_2">
      <defs>
       <path id="m25ff68943b" d="M 0 0 
L 0 3.5 
" style="stroke: #000000; stroke-width: 0.8"/>
      </defs>
      <g>
       <use xlink:href="#m25ff68943b" x="74.084346" y="6.423125" style="stroke: #000000; stroke-width: 0.8"/>
      </g>
     </g>
     <g id="text_1">
      <!-- −0.8 -->
      <g transform="translate(57.717471 189.78255)scale(0.14 -0.14)">
       <defs>
        <path id="LMRoman7-Regular-2212" d="M 5158 1606 
C 5158 1760 5005 1760 4922 1760 
L 685 1760 
C 602 1760 448 1760 448 1606 
C 448 1446 595 1446 691 1446 
L 4915 1446 
C 5011 1446 5158 1446 5158 1606 
z
" transform="scale(0.015625)"/>
        <path id="LMRoman7-Regular-30" d="M 3302 2042 
C 3302 2746 3219 3251 2925 3699 
C 2726 3994 2330 4250 1818 4250 
C 333 4250 333 2502 333 2042 
C 333 1581 333 -128 1818 -128 
C 3302 -128 3302 1581 3302 2042 
z
M 2720 2125 
C 2720 1651 2720 1178 2637 774 
C 2509 192 2074 51 1818 51 
C 1523 51 1133 224 1005 749 
C 915 1126 915 1651 915 2125 
C 915 2592 915 3078 1011 3430 
C 1146 3936 1555 4070 1818 4070 
C 2163 4070 2496 3859 2611 3488 
C 2714 3142 2720 2682 2720 2125 
z
" transform="scale(0.015625)"/>
        <path id="LMRoman7-Regular-2e" d="M 1402 365 
C 1402 589 1222 736 1037 736 
C 813 736 666 557 666 371 
C 666 147 845 0 1030 0 
C 1254 0 1402 179 1402 365 
z
" transform="scale(0.015625)"/>
        <path id="LMRoman7-Regular-38" d="M 3290 1082 
C 3290 1504 3040 1862 2669 2080 
L 2272 2310 
C 2771 2554 3091 2854 3091 3296 
C 3091 3917 2445 4250 1824 4250 
C 1120 4250 544 3789 544 3181 
C 544 2880 685 2662 800 2534 
C 915 2400 960 2374 1338 2150 
C 979 1997 346 1651 346 979 
C 346 269 1082 -128 1811 -128 
C 2624 -128 3290 390 3290 1082 
z
M 2752 3296 
C 2752 2726 2074 2438 2074 2438 
C 2074 2438 2048 2445 2003 2470 
L 1229 2918 
C 1062 3014 883 3187 883 3424 
C 883 3827 1350 4064 1811 4064 
C 2310 4064 2752 3750 2752 3296 
z
M 2906 858 
C 2906 378 2374 77 1824 77 
C 1235 77 730 454 730 979 
C 730 1453 1082 1818 1542 2029 
C 1901 1824 1914 1824 2419 1523 
C 2586 1427 2906 1235 2906 858 
z
" transform="scale(0.015625)"/>
       </defs>
       <use xlink:href="#LMRoman7-Regular-2212"/>
       <use xlink:href="#LMRoman7-Regular-30" x="87.699982"/>
       <use xlink:href="#LMRoman7-Regular-2e" x="144.599976"/>
       <use xlink:href="#LMRoman7-Regular-38" x="176.899963"/>
      </g>
     </g>
    </g>
    <g id="xtick_2">
     <g id="line2d_3">
      <g>
       <use xlink:href="#m8406846768" x="113.373039" y="176.565675" style="stroke: #000000; stroke-width: 0.8"/>
      </g>
     </g>
     <g id="line2d_4">
      <g>
       <use xlink:href="#m25ff68943b" x="113.373039" y="6.423125" style="stroke: #000000; stroke-width: 0.8"/>
      </g>
     </g>
     <g id="text_2">
      <!-- −0.4 -->
      <g transform="translate(97.006164 189.78255)scale(0.14 -0.14)">
       <defs>
        <path id="LMRoman7-Regular-34" d="M 3386 1050 
L 3386 1280 
L 2675 1280 
L 2675 4134 
C 2675 4269 2675 4314 2534 4314 
C 2458 4314 2432 4314 2368 4224 
L 250 1280 
L 250 1050 
L 2131 1050 
L 2131 525 
C 2131 307 2131 230 1613 230 
L 1440 230 
L 1440 0 
L 2400 26 
L 3366 0 
L 3366 230 
L 3194 230 
C 2675 230 2675 307 2675 525 
L 2675 1050 
L 3386 1050 
z
M 2176 1280 
L 486 1280 
L 2176 3622 
L 2176 1280 
z
" transform="scale(0.015625)"/>
       </defs>
       <use xlink:href="#LMRoman7-Regular-2212"/>
       <use xlink:href="#LMRoman7-Regular-30" x="87.699982"/>
       <use xlink:href="#LMRoman7-Regular-2e" x="144.599976"/>
       <use xlink:href="#LMRoman7-Regular-34" x="176.899963"/>
      </g>
     </g>
    </g>
    <g id="xtick_3">
     <g id="line2d_5">
      <g>
       <use xlink:href="#m8406846768" x="152.661732" y="176.565675" style="stroke: #000000; stroke-width: 0.8"/>
      </g>
     </g>
     <g id="line2d_6">
      <g>
       <use xlink:href="#m25ff68943b" x="152.661732" y="6.423125" style="stroke: #000000; stroke-width: 0.8"/>
      </g>
     </g>
     <g id="text_3">
      <!-- 0.0 -->
      <g transform="translate(142.434076 189.78255)scale(0.14 -0.14)">
       <use xlink:href="#LMRoman7-Regular-30"/>
       <use xlink:href="#LMRoman7-Regular-2e" x="56.899994"/>
       <use xlink:href="#LMRoman7-Regular-30" x="89.199982"/>
      </g>
     </g>
    </g>
    <g id="xtick_4">
     <g id="line2d_7">
      <g>
       <use xlink:href="#m8406846768" x="191.950425" y="176.565675" style="stroke: #000000; stroke-width: 0.8"/>
      </g>
     </g>
     <g id="line2d_8">
      <g>
       <use xlink:href="#m25ff68943b" x="191.950425" y="6.423125" style="stroke: #000000; stroke-width: 0.8"/>
      </g>
     </g>
     <g id="text_4">
      <!-- 0.4 -->
      <g transform="translate(181.722769 189.78255)scale(0.14 -0.14)">
       <use xlink:href="#LMRoman7-Regular-30"/>
       <use xlink:href="#LMRoman7-Regular-2e" x="56.899994"/>
       <use xlink:href="#LMRoman7-Regular-34" x="89.199982"/>
      </g>
     </g>
    </g>
    <g id="xtick_5">
     <g id="line2d_9">
      <g>
       <use xlink:href="#m8406846768" x="231.239118" y="176.565675" style="stroke: #000000; stroke-width: 0.8"/>
      </g>
     </g>
     <g id="line2d_10">
      <g>
       <use xlink:href="#m25ff68943b" x="231.239118" y="6.423125" style="stroke: #000000; stroke-width: 0.8"/>
      </g>
     </g>
     <g id="text_5">
      <!-- 0.8 -->
      <g transform="translate(221.011462 189.78255)scale(0.14 -0.14)">
       <use xlink:href="#LMRoman7-Regular-30"/>
       <use xlink:href="#LMRoman7-Regular-2e" x="56.899994"/>
       <use xlink:href="#LMRoman7-Regular-38" x="89.199982"/>
      </g>
     </g>
    </g>
    <g id="xtick_6">
     <g id="line2d_11">
      <defs>
       <path id="mecb1cec5dc" d="M 0 0 
L 0 -2 
" style="stroke: #000000; stroke-width: 0.6"/>
      </defs>
      <g>
       <use xlink:href="#mecb1cec5dc" x="54.44" y="176.565675" style="stroke: #000000; stroke-width: 0.6"/>
      </g>
     </g>
     <g id="line2d_12">
      <defs>
       <path id="m507e2f0c75" d="M 0 0 
L 0 2 
" style="stroke: #000000; stroke-width: 0.6"/>
      </defs>
      <g>
       <use xlink:href="#m507e2f0c75" x="54.44" y="6.423125" style="stroke: #000000; stroke-width: 0.6"/>
      </g>
     </g>
    </g>
    <g id="xtick_7">
     <g id="line2d_13">
      <g>
       <use xlink:href="#mecb1cec5dc" x="93.728693" y="176.565675" style="stroke: #000000; stroke-width: 0.6"/>
      </g>
     </g>
     <g id="line2d_14">
      <g>
       <use xlink:href="#m507e2f0c75" x="93.728693" y="6.423125" style="stroke: #000000; stroke-width: 0.6"/>
      </g>
     </g>
    </g>
    <g id="xtick_8">
     <g id="line2d_15">
      <g>
       <use xlink:href="#mecb1cec5dc" x="133.017386" y="176.565675" style="stroke: #000000; stroke-width: 0.6"/>
      </g>
     </g>
     <g id="line2d_16">
      <g>
       <use xlink:href="#m507e2f0c75" x="133.017386" y="6.423125" style="stroke: #000000; stroke-width: 0.6"/>
      </g>
     </g>
    </g>
    <g id="xtick_9">
     <g id="line2d_17">
      <g>
       <use xlink:href="#mecb1cec5dc" x="172.306079" y="176.565675" style="stroke: #000000; stroke-width: 0.6"/>
      </g>
     </g>
     <g id="line2d_18">
      <g>
       <use xlink:href="#m507e2f0c75" x="172.306079" y="6.423125" style="stroke: #000000; stroke-width: 0.6"/>
      </g>
     </g>
    </g>
    <g id="xtick_10">
     <g id="line2d_19">
      <g>
       <use xlink:href="#mecb1cec5dc" x="211.594772" y="176.565675" style="stroke: #000000; stroke-width: 0.6"/>
      </g>
     </g>
     <g id="line2d_20">
      <g>
       <use xlink:href="#m507e2f0c75" x="211.594772" y="6.423125" style="stroke: #000000; stroke-width: 0.6"/>
      </g>
     </g>
    </g>
    <g id="xtick_11">
     <g id="line2d_21">
      <g>
       <use xlink:href="#mecb1cec5dc" x="250.883465" y="176.565675" style="stroke: #000000; stroke-width: 0.6"/>
      </g>
     </g>
     <g id="line2d_22">
      <g>
       <use xlink:href="#m507e2f0c75" x="250.883465" y="6.423125" style="stroke: #000000; stroke-width: 0.6"/>
      </g>
     </g>
    </g>
    <g id="text_6">
     <!-- $\epsilon_{x} \%$ -->
     <g transform="translate(141.811732 206.2163)scale(0.14 -0.14)">
      <defs>
       <path id="STIXGeneral-Italic-3b5" d="M 2304 627 
L 2406 563 
Q 1907 -70 1133 -70 
Q 192 -70 192 640 
Q 192 928 403 1158 
Q 614 1389 934 1472 
Q 774 1498 684 1616 
Q 595 1734 595 1882 
Q 602 2266 995 2544 
Q 1389 2822 2029 2822 
Q 2336 2822 2528 2672 
Q 2720 2522 2720 2291 
Q 2720 2163 2617 2080 
Q 2515 1997 2413 1997 
Q 2298 1997 2230 2067 
Q 2163 2138 2163 2253 
Q 2163 2317 2211 2409 
Q 2259 2502 2259 2560 
Q 2259 2688 2022 2688 
Q 1683 2688 1401 2496 
Q 1120 2304 1120 1907 
Q 1120 1741 1251 1654 
Q 1382 1568 1594 1568 
Q 1613 1568 1728 1590 
Q 1843 1613 1932 1613 
Q 2022 1613 2086 1574 
Q 2150 1536 2150 1478 
Q 2150 1306 1862 1306 
Q 1805 1306 1721 1334 
Q 1638 1363 1568 1363 
Q 1286 1363 1014 1184 
Q 742 1005 742 678 
Q 742 410 908 285 
Q 1075 160 1312 160 
Q 1869 160 2304 627 
z
" transform="scale(0.015625)"/>
       <path id="STIXGeneral-Italic-78" d="M 1555 2272 
L 1632 1907 
Q 1971 2426 2179 2624 
Q 2387 2822 2598 2822 
Q 2714 2822 2787 2755 
Q 2861 2688 2861 2585 
Q 2861 2483 2800 2419 
Q 2739 2355 2643 2355 
Q 2586 2355 2490 2409 
Q 2394 2464 2310 2464 
Q 2125 2464 1683 1690 
Q 1683 1606 1734 1402 
L 1939 544 
Q 2003 282 2131 282 
Q 2234 282 2432 538 
Q 2451 563 2476 598 
Q 2502 634 2521 662 
Q 2541 691 2566 717 
L 2662 659 
Q 2387 230 2227 80 
Q 2067 -70 1882 -70 
Q 1728 -70 1645 26 
Q 1562 122 1504 365 
L 1318 1126 
L 755 365 
Q 557 96 432 13 
Q 307 -70 147 -70 
Q 0 -70 -86 0 
Q -173 70 -173 198 
Q -173 294 -112 361 
Q -51 429 45 429 
Q 122 429 250 358 
Q 346 301 416 301 
Q 525 301 742 614 
L 1267 1357 
L 1088 2150 
Q 1024 2432 969 2509 
Q 915 2586 794 2586 
Q 717 2586 544 2541 
L 429 2509 
L 410 2611 
L 480 2637 
Q 992 2822 1229 2822 
Q 1350 2822 1420 2707 
Q 1491 2592 1555 2272 
z
" transform="scale(0.015625)"/>
       <path id="STIXGeneral-Regular-25" d="M 4390 1363 
Q 4390 781 4070 329 
Q 3750 -122 3341 -122 
Q 3014 -122 2790 134 
Q 2566 390 2566 762 
Q 2566 1274 2940 1693 
Q 3315 2112 3776 2112 
Q 4070 2112 4230 1917 
Q 4390 1722 4390 1363 
z
M 4243 1376 
Q 4243 1626 4131 1779 
Q 4019 1933 3840 1933 
Q 3654 1933 3526 1786 
Q 3315 1562 3171 1187 
Q 3027 813 3027 486 
Q 3027 301 3129 176 
Q 3232 51 3386 51 
Q 3718 51 3980 457 
Q 4243 864 4243 1376 
z
M 3974 4518 
L 1222 -115 
L 922 -115 
L 3443 4096 
Q 3264 3891 3094 3811 
Q 2925 3731 2669 3731 
Q 2445 3731 2182 3821 
Q 2208 3674 2208 3539 
Q 2208 3206 2067 2873 
Q 1926 2541 1696 2323 
Q 1453 2086 1146 2086 
Q 826 2086 608 2339 
Q 390 2592 390 2963 
Q 390 3507 761 3916 
Q 1133 4326 1626 4326 
Q 1792 4326 2010 4147 
Q 2310 3898 2624 3898 
Q 2918 3898 3084 3994 
Q 3251 4090 3693 4518 
L 3974 4518 
z
M 2054 3642 
Q 2054 3782 2025 3833 
Q 1997 3885 1894 3936 
Q 1747 4006 1613 4154 
Q 1414 4058 1331 3984 
Q 1248 3910 1152 3750 
Q 845 3264 845 2707 
Q 845 2509 944 2384 
Q 1043 2259 1210 2259 
Q 1549 2259 1801 2675 
Q 2054 3091 2054 3642 
z
" transform="scale(0.015625)"/>
      </defs>
      <use xlink:href="#STIXGeneral-Italic-3b5" transform="translate(0 0.40625)"/>
      <use xlink:href="#STIXGeneral-Italic-78" transform="translate(44.399994 -12.821875)scale(0.7)"/>
      <use xlink:href="#STIXGeneral-Regular-25" transform="translate(79.889365 0.40625)"/>
     </g>
    </g>
   </g>
   <g id="matplotlib.axis_2">
    <g id="ytick_1">
     <g id="line2d_23">
      <defs>
       <path id="m3f89ccbc68" d="M 0 0 
L 3.5 0 
" style="stroke: #000000; stroke-width: 0.8"/>
      </defs>
      <g>
       <use xlink:href="#m3f89ccbc68" x="54.44" y="176.565675" style="stroke: #000000; stroke-width: 0.8"/>
      </g>
     </g>
     <g id="line2d_24">
      <defs>
       <path id="m46360edd33" d="M 0 0 
L -3.5 0 
" style="stroke: #000000; stroke-width: 0.8"/>
      </defs>
      <g>
       <use xlink:href="#m46360edd33" x="250.883465" y="176.565675" style="stroke: #000000; stroke-width: 0.8"/>
      </g>
     </g>
     <g id="text_7">
      <!-- −60 -->
      <g transform="translate(22.727812 181.424113)scale(0.14 -0.14)">
       <defs>
        <path id="LMRoman7-Regular-36" d="M 3290 1306 
C 3290 2118 2643 2720 1894 2720 
C 1382 2720 1101 2381 960 2093 
C 960 2618 1005 3091 1248 3482 
C 1466 3827 1811 4064 2221 4064 
C 2413 4064 2669 4013 2797 3840 
C 2637 3827 2502 3718 2502 3533 
C 2502 3373 2611 3232 2803 3232 
C 2995 3232 3110 3360 3110 3546 
C 3110 3917 2842 4250 2208 4250 
C 1286 4250 346 3405 346 2029 
C 346 371 1126 -128 1830 -128 
C 2611 -128 3290 467 3290 1306 
z
M 2675 1306 
C 2675 941 2675 672 2502 422 
C 2349 198 2144 77 1830 77 
C 1510 77 1261 262 1126 544 
C 1030 736 979 1056 979 1440 
C 979 2061 1350 2541 1862 2541 
C 2157 2541 2355 2426 2515 2189 
C 2669 1946 2675 1677 2675 1306 
z
" transform="scale(0.015625)"/>
       </defs>
       <use xlink:href="#LMRoman7-Regular-2212"/>
       <use xlink:href="#LMRoman7-Regular-36" x="87.699982"/>
       <use xlink:href="#LMRoman7-Regular-30" x="144.599976"/>
      </g>
     </g>
    </g>
    <g id="ytick_2">
     <g id="line2d_25">
      <g>
       <use xlink:href="#m3f89ccbc68" x="54.44" y="148.208583" style="stroke: #000000; stroke-width: 0.8"/>
      </g>
     </g>
     <g id="line2d_26">
      <g>
       <use xlink:href="#m46360edd33" x="250.883465" y="148.208583" style="stroke: #000000; stroke-width: 0.8"/>
      </g>
     </g>
     <g id="text_8">
      <!-- −40 -->
      <g transform="translate(22.727812 153.067021)scale(0.14 -0.14)">
       <use xlink:href="#LMRoman7-Regular-2212"/>
       <use xlink:href="#LMRoman7-Regular-34" x="87.699982"/>
       <use xlink:href="#LMRoman7-Regular-30" x="144.599976"/>
      </g>
     </g>
    </g>
    <g id="ytick_3">
     <g id="line2d_27">
      <g>
       <use xlink:href="#m3f89ccbc68" x="54.44" y="119.851492" style="stroke: #000000; stroke-width: 0.8"/>
      </g>
     </g>
     <g id="line2d_28">
      <g>
       <use xlink:href="#m46360edd33" x="250.883465" y="119.851492" style="stroke: #000000; stroke-width: 0.8"/>
      </g>
     </g>
     <g id="text_9">
      <!-- −20 -->
      <g transform="translate(22.727812 124.709929)scale(0.14 -0.14)">
       <defs>
        <path id="LMRoman7-Regular-32" d="M 3232 1165 
L 3014 1165 
C 2995 1024 2931 646 2848 582 
C 2797 544 2304 544 2214 544 
L 1037 544 
C 1709 1139 1933 1318 2317 1619 
C 2790 1997 3232 2394 3232 3002 
C 3232 3776 2554 4250 1734 4250 
C 941 4250 403 3693 403 3104 
C 403 2778 678 2746 742 2746 
C 896 2746 1082 2854 1082 3085 
C 1082 3200 1037 3424 704 3424 
C 902 3878 1338 4019 1638 4019 
C 2278 4019 2611 3520 2611 3002 
C 2611 2445 2214 2003 2010 1773 
L 467 250 
C 403 192 403 179 403 0 
L 3040 0 
L 3232 1165 
z
" transform="scale(0.015625)"/>
       </defs>
       <use xlink:href="#LMRoman7-Regular-2212"/>
       <use xlink:href="#LMRoman7-Regular-32" x="87.699982"/>
       <use xlink:href="#LMRoman7-Regular-30" x="144.599976"/>
      </g>
     </g>
    </g>
    <g id="ytick_4">
     <g id="line2d_29">
      <g>
       <use xlink:href="#m3f89ccbc68" x="54.44" y="91.4944" style="stroke: #000000; stroke-width: 0.8"/>
      </g>
     </g>
     <g id="line2d_30">
      <g>
       <use xlink:href="#m46360edd33" x="250.883465" y="91.4944" style="stroke: #000000; stroke-width: 0.8"/>
      </g>
     </g>
     <g id="text_10">
      <!-- 0 -->
      <g transform="translate(42.973125 96.352838)scale(0.14 -0.14)">
       <use xlink:href="#LMRoman7-Regular-30"/>
      </g>
     </g>
    </g>
    <g id="ytick_5">
     <g id="line2d_31">
      <g>
       <use xlink:href="#m3f89ccbc68" x="54.44" y="63.137308" style="stroke: #000000; stroke-width: 0.8"/>
      </g>
     </g>
     <g id="line2d_32">
      <g>
       <use xlink:href="#m46360edd33" x="250.883465" y="63.137308" style="stroke: #000000; stroke-width: 0.8"/>
      </g>
     </g>
     <g id="text_11">
      <!-- 20 -->
      <g transform="translate(35.00625 67.995746)scale(0.14 -0.14)">
       <use xlink:href="#LMRoman7-Regular-32"/>
       <use xlink:href="#LMRoman7-Regular-30" x="56.899994"/>
      </g>
     </g>
    </g>
    <g id="ytick_6">
     <g id="line2d_33">
      <g>
       <use xlink:href="#m3f89ccbc68" x="54.44" y="34.780217" style="stroke: #000000; stroke-width: 0.8"/>
      </g>
     </g>
     <g id="line2d_34">
      <g>
       <use xlink:href="#m46360edd33" x="250.883465" y="34.780217" style="stroke: #000000; stroke-width: 0.8"/>
      </g>
     </g>
     <g id="text_12">
      <!-- 40 -->
      <g transform="translate(35.00625 39.638654)scale(0.14 -0.14)">
       <use xlink:href="#LMRoman7-Regular-34"/>
       <use xlink:href="#LMRoman7-Regular-30" x="56.899994"/>
      </g>
     </g>
    </g>
    <g id="ytick_7">
     <g id="line2d_35">
      <g>
       <use xlink:href="#m3f89ccbc68" x="54.44" y="6.423125" style="stroke: #000000; stroke-width: 0.8"/>
      </g>
     </g>
     <g id="line2d_36">
      <g>
       <use xlink:href="#m46360edd33" x="250.883465" y="6.423125" style="stroke: #000000; stroke-width: 0.8"/>
      </g>
     </g>
     <g id="text_13">
      <!-- 60 -->
      <g transform="translate(35.00625 11.281563)scale(0.14 -0.14)">
       <use xlink:href="#LMRoman7-Regular-36"/>
       <use xlink:href="#LMRoman7-Regular-30" x="56.899994"/>
      </g>
     </g>
    </g>
    <g id="ytick_8">
     <g id="line2d_37">
      <defs>
       <path id="m4a9192edba" d="M 0 0 
L 2 0 
" style="stroke: #000000; stroke-width: 0.6"/>
      </defs>
      <g>
       <use xlink:href="#m4a9192edba" x="54.44" y="162.387129" style="stroke: #000000; stroke-width: 0.6"/>
      </g>
     </g>
     <g id="line2d_38">
      <defs>
       <path id="m7359217dcf" d="M 0 0 
L -2 0 
" style="stroke: #000000; stroke-width: 0.6"/>
      </defs>
      <g>
       <use xlink:href="#m7359217dcf" x="250.883465" y="162.387129" style="stroke: #000000; stroke-width: 0.6"/>
      </g>
     </g>
    </g>
    <g id="ytick_9">
     <g id="line2d_39">
      <g>
       <use xlink:href="#m4a9192edba" x="54.44" y="134.030038" style="stroke: #000000; stroke-width: 0.6"/>
      </g>
     </g>
     <g id="line2d_40">
      <g>
       <use xlink:href="#m7359217dcf" x="250.883465" y="134.030038" style="stroke: #000000; stroke-width: 0.6"/>
      </g>
     </g>
    </g>
    <g id="ytick_10">
     <g id="line2d_41">
      <g>
       <use xlink:href="#m4a9192edba" x="54.44" y="105.672946" style="stroke: #000000; stroke-width: 0.6"/>
      </g>
     </g>
     <g id="line2d_42">
      <g>
       <use xlink:href="#m7359217dcf" x="250.883465" y="105.672946" style="stroke: #000000; stroke-width: 0.6"/>
      </g>
     </g>
    </g>
    <g id="ytick_11">
     <g id="line2d_43">
      <g>
       <use xlink:href="#m4a9192edba" x="54.44" y="77.315854" style="stroke: #000000; stroke-width: 0.6"/>
      </g>
     </g>
     <g id="line2d_44">
      <g>
       <use xlink:href="#m7359217dcf" x="250.883465" y="77.315854" style="stroke: #000000; stroke-width: 0.6"/>
      </g>
     </g>
    </g>
    <g id="ytick_12">
     <g id="line2d_45">
      <g>
       <use xlink:href="#m4a9192edba" x="54.44" y="48.958763" style="stroke: #000000; stroke-width: 0.6"/>
      </g>
     </g>
     <g id="line2d_46">
      <g>
       <use xlink:href="#m7359217dcf" x="250.883465" y="48.958763" style="stroke: #000000; stroke-width: 0.6"/>
      </g>
     </g>
    </g>
    <g id="ytick_13">
     <g id="line2d_47">
      <g>
       <use xlink:href="#m4a9192edba" x="54.44" y="20.601671" style="stroke: #000000; stroke-width: 0.6"/>
      </g>
     </g>
     <g id="line2d_48">
      <g>
       <use xlink:href="#m7359217dcf" x="250.883465" y="20.601671" style="stroke: #000000; stroke-width: 0.6"/>
      </g>
     </g>
    </g>
    <g id="text_14">
     <!-- 2D $\Delta$P (pC/m) -->
     <g transform="translate(15.227812 144.2744)rotate(-90)scale(0.14 -0.14)">
      <defs>
       <path id="LMRoman7-Regular-44" d="M 5050 2150 
C 5050 3366 4083 4371 2893 4371 
L 371 4371 
L 371 4141 
L 525 4141 
C 1018 4141 1030 4077 1030 3853 
L 1030 518 
C 1030 301 1018 230 525 230 
L 371 230 
L 371 0 
L 2893 0 
C 4070 0 5050 947 5050 2150 
z
M 4390 2150 
C 4390 1408 4205 1024 3981 755 
C 3693 429 3232 230 2720 230 
L 1920 230 
C 1619 230 1613 282 1613 480 
L 1613 3891 
C 1613 4090 1619 4141 1920 4141 
L 2714 4141 
C 3258 4141 3731 3917 4026 3539 
C 4288 3194 4390 2707 4390 2150 
z
" transform="scale(0.015625)"/>
       <path id="LMRoman7-Regular-20" transform="scale(0.015625)"/>
       <path id="STIXGeneral-Regular-394" d="M 4320 0 
L 307 0 
L 2221 4314 
L 2349 4314 
L 4320 0 
z
M 3354 589 
L 2118 3405 
L 870 589 
L 3354 589 
z
" transform="scale(0.015625)"/>
       <path id="LMRoman7-Regular-50" d="M 4461 3168 
C 4461 3802 3744 4371 2803 4371 
L 371 4371 
L 371 4141 
L 525 4141 
C 1018 4141 1030 4077 1030 3853 
L 1030 518 
C 1030 301 1018 230 525 230 
L 371 230 
L 371 0 
L 1331 26 
L 2298 0 
L 2298 230 
L 2144 230 
C 1651 230 1638 294 1638 518 
L 1638 1984 
L 2803 1984 
C 3731 1984 4461 2522 4461 3168 
z
M 3776 3168 
C 3776 2886 3776 2189 2643 2189 
L 1613 2189 
L 1613 3891 
C 1613 4090 1619 4141 1920 4141 
L 2643 4141 
C 3712 4141 3776 3539 3776 3168 
z
" transform="scale(0.015625)"/>
       <path id="LMRoman7-Regular-28" d="M 2400 -1517 
C 2400 -1478 2381 -1466 2336 -1421 
C 1485 -653 1171 435 1171 1600 
C 1171 3328 1830 4173 2355 4646 
C 2381 4672 2400 4691 2400 4723 
C 2400 4800 2323 4800 2272 4800 
C 1056 3942 736 2586 736 1606 
C 736 704 1005 -698 2272 -1594 
C 2323 -1594 2400 -1594 2400 -1517 
z
" transform="scale(0.015625)"/>
       <path id="LMRoman7-Regular-70" d="M 3738 1382 
C 3738 2170 3085 2822 2272 2822 
C 1907 2822 1536 2688 1274 2432 
L 1274 2822 
L 314 2752 
L 314 2522 
C 762 2522 794 2490 794 2221 
L 794 -736 
C 794 -1011 730 -1011 314 -1011 
L 314 -1242 
C 314 -1242 774 -1216 1043 -1216 
C 1280 -1216 1722 -1235 1779 -1242 
L 1779 -1011 
C 1363 -1011 1299 -1011 1299 -736 
L 1299 307 
C 1331 275 1632 -64 2170 -64 
C 3014 -64 3738 570 3738 1382 
z
M 3155 1382 
C 3155 653 2675 115 2131 115 
C 1568 115 1318 608 1299 646 
L 1299 2131 
C 1491 2451 1862 2618 2202 2618 
C 2739 2618 3155 2054 3155 1382 
z
" transform="scale(0.015625)"/>
       <path id="LMRoman7-Regular-43" d="M 4762 1498 
C 4762 1568 4755 1619 4653 1619 
C 4614 1619 4550 1619 4544 1536 
C 4493 506 3622 102 2989 102 
C 2304 102 1133 518 1133 2182 
C 1133 3917 2374 4269 2976 4269 
C 3610 4269 4365 3846 4531 2746 
C 4544 2669 4602 2669 4646 2669 
C 4762 2669 4762 2707 4762 2835 
L 4762 4333 
C 4762 4442 4762 4499 4672 4499 
C 4646 4499 4614 4499 4563 4422 
L 4224 3936 
C 3955 4205 3514 4499 2899 4499 
C 1555 4499 448 3462 448 2189 
C 448 890 1574 -128 2899 -128 
C 4032 -128 4762 717 4762 1498 
z
" transform="scale(0.015625)"/>
       <path id="LMRoman7-Regular-2f" d="M 3187 4640 
C 3187 4749 3098 4800 3034 4800 
C 2925 4800 2893 4723 2861 4640 
L 480 -1325 
C 448 -1402 448 -1440 448 -1440 
C 448 -1549 538 -1600 602 -1600 
C 710 -1600 742 -1523 774 -1440 
L 3155 4525 
C 3187 4602 3187 4640 3187 4640 
z
" transform="scale(0.015625)"/>
       <path id="LMRoman7-Regular-6d" d="M 5741 0 
L 5741 230 
C 5325 230 5261 230 5261 506 
L 5261 1939 
C 5261 2496 4986 2822 4301 2822 
C 3795 2822 3450 2547 3277 2227 
C 3149 2682 2803 2822 2336 2822 
C 1811 2822 1472 2534 1293 2202 
L 1286 2202 
L 1286 2822 
L 346 2752 
L 346 2522 
C 774 2522 826 2477 826 2163 
L 826 506 
C 826 230 762 230 346 230 
L 346 0 
C 346 0 806 26 1075 26 
C 1312 26 1754 6 1811 0 
L 1811 230 
C 1395 230 1331 230 1331 506 
L 1331 1658 
C 1331 2330 1862 2643 2285 2643 
C 2733 2643 2790 2291 2790 1965 
L 2790 506 
C 2790 230 2726 230 2310 230 
L 2310 0 
C 2310 0 2771 26 3040 26 
C 3277 26 3718 6 3776 0 
L 3776 230 
C 3360 230 3296 230 3296 506 
L 3296 1658 
C 3296 2330 3827 2643 4250 2643 
C 4698 2643 4755 2291 4755 1965 
L 4755 506 
C 4755 230 4691 230 4275 230 
L 4275 0 
C 4275 0 4736 26 5005 26 
C 5242 26 5683 6 5741 0 
z
" transform="scale(0.015625)"/>
       <path id="LMRoman7-Regular-29" d="M 2112 1600 
C 2112 2502 1843 3904 576 4800 
C 531 4800 454 4800 454 4723 
C 454 4691 474 4672 512 4627 
C 1062 4122 1677 3258 1677 1606 
C 1677 269 1261 -742 570 -1370 
C 461 -1478 454 -1485 454 -1517 
C 454 -1549 474 -1594 538 -1594 
C 614 -1594 1222 -1171 1645 -371 
C 1926 160 2112 851 2112 1600 
z
" transform="scale(0.015625)"/>
      </defs>
      <use xlink:href="#LMRoman7-Regular-32"/>
      <use xlink:href="#LMRoman7-Regular-44" transform="translate(56.899994 0)"/>
      <use xlink:href="#LMRoman7-Regular-20" transform="translate(142.899979 0)"/>
      <use xlink:href="#STIXGeneral-Regular-394" transform="translate(181.399963 0)"/>
      <use xlink:href="#LMRoman7-Regular-50" transform="translate(253.599945 0)"/>
      <use xlink:href="#LMRoman7-Regular-20" transform="translate(330.399933 0)"/>
      <use xlink:href="#LMRoman7-Regular-28" transform="translate(368.899918 0)"/>
      <use xlink:href="#LMRoman7-Regular-70" transform="translate(413.499908 0)"/>
      <use xlink:href="#LMRoman7-Regular-43" transform="translate(476.599899 0)"/>
      <use xlink:href="#LMRoman7-Regular-2f" transform="translate(558.19989 0)"/>
      <use xlink:href="#LMRoman7-Regular-6d" transform="translate(615.099884 0)"/>
      <use xlink:href="#LMRoman7-Regular-29" transform="translate(708.999878 0)"/>
     </g>
    </g>
   </g>
   <g id="line2d_49">
    <defs>
     <path id="ma3e4607742" d="M 0 3 
C 0.795609 3 1.55874 2.683901 2.12132 2.12132 
C 2.683901 1.55874 3 0.795609 3 0 
C 3 -0.795609 2.683901 -1.55874 2.12132 -2.12132 
C 1.55874 -2.683901 0.795609 -3 0 -3 
C -0.795609 -3 -1.55874 -2.683901 -2.12132 -2.12132 
C -2.683901 -1.55874 -3 -0.795609 -3 0 
C -3 0.795609 -2.683901 1.55874 -2.12132 2.12132 
C -1.55874 2.683901 -0.795609 3 0 3 
z
" style="stroke: #1f77b4"/>
    </defs>
    <g clip-path="url(#p8267d82285)">
     <use xlink:href="#ma3e4607742" x="54.44" y="133.344363" style="fill-opacity: 0; stroke: #1f77b4"/>
     <use xlink:href="#ma3e4607742" x="74.084346" y="124.189276" style="fill-opacity: 0; stroke: #1f77b4"/>
     <use xlink:href="#ma3e4607742" x="93.728693" y="114.974356" style="fill-opacity: 0; stroke: #1f77b4"/>
     <use xlink:href="#ma3e4607742" x="113.373039" y="106.78823" style="fill-opacity: 0; stroke: #1f77b4"/>
     <use xlink:href="#ma3e4607742" x="133.017386" y="98.899571" style="fill-opacity: 0; stroke: #1f77b4"/>
     <use xlink:href="#ma3e4607742" x="152.661732" y="91.4944" style="fill-opacity: 0; stroke: #1f77b4"/>
     <use xlink:href="#ma3e4607742" x="172.306079" y="84.276953" style="fill-opacity: 0; stroke: #1f77b4"/>
     <use xlink:href="#ma3e4607742" x="191.950425" y="77.190232" style="fill-opacity: 0; stroke: #1f77b4"/>
     <use xlink:href="#ma3e4607742" x="211.594772" y="70.428484" style="fill-opacity: 0; stroke: #1f77b4"/>
     <use xlink:href="#ma3e4607742" x="231.239118" y="63.67581" style="fill-opacity: 0; stroke: #1f77b4"/>
     <use xlink:href="#ma3e4607742" x="250.883465" y="57.160201" style="fill-opacity: 0; stroke: #1f77b4"/>
    </g>
   </g>
   <g id="line2d_50">
    <path d="M 54.44 133.001167 
L 74.084346 124.067677 
L 93.728693 115.441768 
L 113.373039 107.123441 
L 133.017386 99.112697 
L 152.661732 91.409534 
L 172.306079 84.013953 
L 191.950425 76.925954 
L 211.594772 70.145537 
L 231.239118 63.672701 
L 250.883465 57.507448 
" clip-path="url(#p8267d82285)" style="fill: none; stroke-dasharray: 5.55,2.4; stroke-dashoffset: 0; stroke: #1f77b4; stroke-width: 1.5"/>
   </g>
   <g id="patch_3">
    <path d="M 54.44 176.565675 
L 54.44 6.423125 
" style="fill: none; stroke: #000000; stroke-width: 0.8; stroke-linejoin: miter; stroke-linecap: square"/>
   </g>
   <g id="patch_4">
    <path d="M 250.883465 176.565675 
L 250.883465 6.423125 
" style="fill: none; stroke: #000000; stroke-width: 0.8; stroke-linejoin: miter; stroke-linecap: square"/>
   </g>
   <g id="patch_5">
    <path d="M 54.44 176.565675 
L 250.883465 176.565675 
" style="fill: none; stroke: #000000; stroke-width: 0.8; stroke-linejoin: miter; stroke-linecap: square"/>
   </g>
   <g id="patch_6">
    <path d="M 54.44 6.423125 
L 250.883465 6.423125 
" style="fill: none; stroke: #000000; stroke-width: 0.8; stroke-linejoin: miter; stroke-linecap: square"/>
   </g>
   <g id="text_15">
    <!-- $\mathrm{e_{11}}$=27 ÅC/m -->
    <g transform="translate(113.373039 148.208583)scale(0.14 -0.14)">
     <defs>
      <path id="STIXGeneral-Regular-65" d="M 2611 1050 
L 2714 1005 
Q 2330 -64 1376 -64 
Q 813 -64 486 329 
Q 160 723 160 1389 
Q 160 2074 525 2509 
Q 890 2944 1485 2944 
Q 2061 2944 2374 2502 
Q 2560 2246 2592 1773 
L 621 1773 
Q 646 1370 700 1158 
Q 755 947 915 730 
Q 1184 378 1626 378 
Q 1939 378 2153 531 
Q 2368 685 2611 1050 
z
M 634 1978 
L 1939 1978 
Q 1882 2381 1750 2547 
Q 1619 2714 1312 2714 
Q 1043 2714 864 2525 
Q 685 2336 634 1978 
z
" transform="scale(0.015625)"/>
      <path id="STIXGeneral-Regular-31" d="M 2522 0 
L 755 0 
L 755 96 
Q 1107 115 1235 227 
Q 1363 339 1363 608 
L 1363 3482 
Q 1363 3795 1171 3795 
Q 1082 3795 883 3718 
L 710 3654 
L 710 3744 
L 1856 4326 
L 1914 4307 
L 1914 486 
Q 1914 275 2042 185 
Q 2170 96 2522 96 
L 2522 0 
z
" transform="scale(0.015625)"/>
      <path id="LMRoman7-Regular-3d" d="M 5158 2310 
C 5158 2464 5005 2464 4922 2464 
L 685 2464 
C 602 2464 448 2464 448 2310 
C 448 2150 595 2150 691 2150 
L 4915 2150 
C 5011 2150 5158 2150 5158 2310 
z
M 5158 896 
C 5158 1056 5011 1056 4915 1056 
L 691 1056 
C 595 1056 448 1056 448 896 
C 448 742 602 742 685 742 
L 4922 742 
C 5005 742 5158 742 5158 896 
z
" transform="scale(0.015625)"/>
      <path id="LMRoman7-Regular-37" d="M 3488 4122 
L 1811 4122 
C 1555 4122 1485 4128 1254 4147 
C 922 4173 909 4218 890 4326 
L 672 4326 
L 448 2957 
L 666 2957 
C 678 3053 742 3475 845 3539 
C 896 3578 1414 3578 1510 3578 
L 2906 3578 
L 2240 2733 
C 1402 1632 1325 614 1325 237 
C 1325 166 1325 -128 1626 -128 
C 1933 -128 1933 160 1933 243 
L 1933 499 
C 1933 1741 2189 2310 2464 2656 
L 3424 3866 
C 3488 3942 3488 3955 3488 4122 
z
" transform="scale(0.015625)"/>
      <path id="LMRoman7-Regular-c5" d="M 5101 0 
L 5101 230 
L 4973 230 
C 4544 230 4499 294 4429 474 
L 2874 4416 
C 2835 4518 2816 4563 2694 4563 
C 2573 4563 2554 4518 2515 4416 
L 1037 672 
C 973 512 864 230 288 230 
L 288 0 
C 506 19 730 26 947 26 
C 1203 26 1677 0 1715 0 
L 1715 230 
C 1434 230 1254 358 1254 538 
C 1254 589 1261 602 1286 666 
L 1594 1453 
L 3411 1453 
L 3782 518 
C 3795 486 3814 442 3814 410 
C 3814 230 3469 230 3296 230 
L 3296 0 
L 4250 26 
C 4550 26 5030 6 5101 0 
z
M 3322 1683 
L 1683 1683 
L 2502 3763 
L 3322 1683 
z
M 3130 5126 
C 3130 4800 2848 4787 2701 4787 
C 2554 4787 2272 4800 2272 5126 
C 2272 5440 2515 5466 2701 5466 
C 2886 5466 3130 5440 3130 5126 
z
M 3398 5120 
C 3398 5440 3085 5690 2701 5690 
C 2298 5690 2003 5421 2003 5133 
C 2003 4813 2317 4563 2701 4563 
C 3104 4563 3398 4832 3398 5120 
z
" transform="scale(0.015625)"/>
     </defs>
     <use xlink:href="#STIXGeneral-Regular-65" transform="translate(0 0.09375)"/>
     <use xlink:href="#STIXGeneral-Regular-31" transform="translate(45.974994 -13.40625)scale(0.7)"/>
     <use xlink:href="#STIXGeneral-Regular-31" transform="translate(80.974983 -13.40625)scale(0.7)"/>
     <use xlink:href="#LMRoman7-Regular-3d" transform="translate(120.474973 0.09375)"/>
     <use xlink:href="#LMRoman7-Regular-32" transform="translate(208.174954 0.09375)"/>
     <use xlink:href="#LMRoman7-Regular-37" transform="translate(265.074948 0.09375)"/>
     <use xlink:href="#LMRoman7-Regular-20" transform="translate(321.974942 0.09375)"/>
     <use xlink:href="#LMRoman7-Regular-c5" transform="translate(360.474927 0.09375)"/>
     <use xlink:href="#LMRoman7-Regular-43" transform="translate(444.774915 0.09375)"/>
     <use xlink:href="#LMRoman7-Regular-2f" transform="translate(526.374905 0.09375)"/>
     <use xlink:href="#LMRoman7-Regular-6d" transform="translate(583.274899 0.09375)"/>
    </g>
   </g>
   <g id="legend_1">
    <g id="patch_7">
     <path d="M 112.51534 46.156875 
L 241.083465 46.156875 
Q 243.883465 46.156875 243.883465 43.356875 
L 243.883465 16.223125 
Q 243.883465 13.423125 241.083465 13.423125 
L 112.51534 13.423125 
Q 109.71534 13.423125 109.71534 16.223125 
L 109.71534 43.356875 
Q 109.71534 46.156875 112.51534 46.156875 
z
" style="fill: #ffffff; opacity: 0.8; stroke: #cccccc; stroke-linejoin: miter"/>
    </g>
    <g id="line2d_51">
     <g>
      <use xlink:href="#ma3e4607742" x="126.51534" y="21.123125" style="fill-opacity: 0; stroke: #1f77b4"/>
     </g>
    </g>
    <g id="text_16">
     <!-- SnSe Pristine -->
     <g transform="translate(147.51534 26.023125)scale(0.14 -0.14)">
      <defs>
       <path id="LMRoman7-Regular-53" d="M 3584 1184 
C 3584 1760 3181 2304 2541 2451 
L 1594 2669 
C 1030 2797 858 3200 858 3469 
C 858 3891 1248 4294 1830 4294 
C 2694 4294 3066 3718 3168 3046 
C 3181 2950 3187 2918 3283 2918 
C 3392 2918 3392 2963 3392 3085 
L 3392 4333 
C 3392 4442 3392 4499 3302 4499 
C 3251 4499 3238 4480 3194 4410 
L 2963 4051 
C 2541 4480 2010 4499 1830 4499 
C 1024 4499 448 3923 448 3277 
C 448 2918 608 2643 838 2426 
C 1094 2176 1306 2131 1997 1978 
C 2579 1850 2707 1824 2893 1645 
C 3040 1498 3174 1293 3174 1005 
C 3174 557 2803 102 2189 102 
C 1568 102 710 346 666 1312 
C 659 1414 659 1453 557 1453 
C 448 1453 448 1408 448 1280 
L 448 38 
C 448 -70 448 -128 538 -128 
C 589 -128 602 -109 640 -51 
C 698 26 826 230 877 314 
C 1280 -38 1773 -128 2189 -128 
C 3034 -128 3584 506 3584 1184 
z
" transform="scale(0.015625)"/>
       <path id="LMRoman7-Regular-6e" d="M 3776 0 
L 3776 230 
C 3360 230 3296 230 3296 506 
L 3296 1939 
C 3296 2496 3021 2822 2336 2822 
C 1811 2822 1472 2534 1293 2202 
L 1286 2202 
L 1286 2822 
L 346 2752 
L 346 2522 
C 774 2522 826 2477 826 2163 
L 826 506 
C 826 230 762 230 346 230 
L 346 0 
C 346 0 806 26 1075 26 
C 1312 26 1754 6 1811 0 
L 1811 230 
C 1395 230 1331 230 1331 506 
L 1331 1658 
C 1331 2330 1862 2643 2285 2643 
C 2733 2643 2790 2291 2790 1965 
L 2790 506 
C 2790 230 2726 230 2310 230 
L 2310 0 
C 2310 0 2771 26 3040 26 
C 3277 26 3718 6 3776 0 
z
" transform="scale(0.015625)"/>
       <path id="LMRoman7-Regular-65" d="M 2995 768 
C 2995 794 2982 858 2886 858 
C 2803 858 2790 819 2771 755 
C 2573 237 2086 141 1856 141 
C 1555 141 1267 275 1075 518 
C 838 819 832 1210 832 1459 
L 2816 1459 
C 2950 1459 2995 1459 2995 1600 
C 2995 2163 2682 2854 1728 2854 
C 890 2854 250 2189 250 1402 
C 250 589 960 -64 1811 -64 
C 2675 -64 2995 627 2995 768 
z
M 2547 1626 
L 838 1626 
C 909 2528 1485 2675 1728 2675 
C 2515 2675 2541 1786 2547 1626 
z
" transform="scale(0.015625)"/>
       <path id="LMRoman7-Regular-72" d="M 2605 2413 
C 2605 2630 2400 2822 2099 2822 
C 1779 2822 1427 2624 1235 2138 
L 1229 2138 
L 1229 2822 
L 314 2752 
L 314 2522 
C 742 2522 794 2477 794 2163 
L 794 506 
C 794 230 730 230 314 230 
L 314 0 
C 346 0 781 26 1043 26 
L 1875 0 
L 1875 230 
L 1747 230 
C 1274 230 1274 301 1274 518 
L 1274 1459 
C 1274 1997 1523 2643 2131 2643 
C 2074 2598 2022 2515 2022 2413 
C 2022 2202 2189 2118 2310 2118 
C 2464 2118 2605 2221 2605 2413 
z
" transform="scale(0.015625)"/>
       <path id="LMRoman7-Regular-69" d="M 1754 0 
L 1754 230 
C 1382 230 1318 230 1318 499 
L 1318 2822 
L 378 2752 
L 378 2522 
C 781 2522 838 2483 838 2170 
L 838 506 
C 838 230 774 230 358 230 
L 358 0 
C 358 0 819 26 1075 26 
C 1299 26 1530 19 1754 0 
z
M 1402 3853 
C 1402 4058 1242 4224 1037 4224 
C 819 4224 672 4045 672 3859 
C 672 3654 832 3488 1037 3488 
C 1254 3488 1402 3667 1402 3853 
z
" transform="scale(0.015625)"/>
       <path id="LMRoman7-Regular-73" d="M 2605 838 
C 2605 1082 2496 1274 2330 1427 
C 2086 1651 1792 1702 1568 1741 
C 1056 1830 640 1907 640 2246 
C 640 2451 813 2701 1421 2701 
C 2163 2701 2195 2182 2208 1997 
C 2214 1926 2291 1926 2317 1926 
C 2426 1926 2426 1971 2426 2093 
L 2426 2688 
C 2426 2797 2426 2854 2336 2854 
C 2304 2854 2291 2854 2208 2778 
C 2195 2771 2131 2714 2093 2682 
C 1901 2816 1658 2854 1421 2854 
C 506 2854 288 2374 288 2054 
C 288 1850 378 1683 531 1555 
C 774 1344 1018 1299 1414 1235 
C 1734 1178 2253 1088 2253 659 
C 2253 410 2080 115 1466 115 
C 851 115 627 518 512 954 
C 493 1037 486 1062 397 1062 
C 288 1062 288 1018 288 890 
L 288 102 
C 288 -6 288 -64 378 -64 
C 435 -64 557 70 685 211 
C 966 -51 1312 -64 1466 -64 
C 2298 -64 2605 384 2605 838 
z
" transform="scale(0.015625)"/>
       <path id="LMRoman7-Regular-74" d="M 2400 806 
L 2400 1158 
L 2182 1158 
L 2182 813 
C 2182 378 1978 141 1728 141 
C 1286 141 1286 678 1286 794 
L 1286 2528 
L 2285 2528 
L 2285 2758 
L 1286 2758 
L 1286 3936 
L 1069 3936 
C 1062 3360 800 2726 186 2707 
L 186 2528 
L 781 2528 
L 781 800 
C 781 83 1318 -64 1677 -64 
C 2106 -64 2400 301 2400 806 
z
" transform="scale(0.015625)"/>
      </defs>
      <use xlink:href="#LMRoman7-Regular-53"/>
      <use xlink:href="#LMRoman7-Regular-6e" x="63.099991"/>
      <use xlink:href="#LMRoman7-Regular-53" x="126.199982"/>
      <use xlink:href="#LMRoman7-Regular-65" x="189.299973"/>
      <use xlink:href="#LMRoman7-Regular-20" x="240.09996"/>
      <use xlink:href="#LMRoman7-Regular-50" x="278.599945"/>
      <use xlink:href="#LMRoman7-Regular-72" x="355.399933"/>
      <use xlink:href="#LMRoman7-Regular-69" x="399.999924"/>
      <use xlink:href="#LMRoman7-Regular-73" x="432.299911"/>
      <use xlink:href="#LMRoman7-Regular-74" x="477.599899"/>
      <use xlink:href="#LMRoman7-Regular-69" x="522.19989"/>
      <use xlink:href="#LMRoman7-Regular-6e" x="554.499878"/>
      <use xlink:href="#LMRoman7-Regular-65" x="617.599869"/>
     </g>
    </g>
    <g id="line2d_52">
     <path d="M 112.51534 35.74 
L 126.51534 35.74 
L 140.51534 35.74 
" style="fill: none; stroke-dasharray: 5.55,2.4; stroke-dashoffset: 0; stroke: #1f77b4; stroke-width: 1.5"/>
    </g>
    <g id="text_17">
     <!-- fitted -->
     <g transform="translate(147.51534 40.64)scale(0.14 -0.14)">
      <defs>
       <path id="LMRoman7-Regular-66" d="M 2547 4038 
C 2547 4314 2272 4506 1920 4506 
C 1414 4506 838 4147 838 3475 
L 838 2758 
L 288 2758 
L 288 2528 
L 838 2528 
L 838 506 
C 838 230 774 230 358 230 
L 358 0 
C 390 0 826 26 1088 26 
L 1920 0 
L 1920 230 
L 1792 230 
C 1318 230 1318 301 1318 518 
L 1318 2528 
L 2118 2528 
L 2118 2758 
L 1293 2758 
L 1293 3475 
C 1293 4058 1638 4326 1914 4326 
C 1971 4326 2035 4314 2099 4294 
C 2010 4243 1958 4141 1958 4038 
C 1958 3866 2080 3744 2253 3744 
C 2426 3744 2547 3866 2547 4038 
z
" transform="scale(0.015625)"/>
       <path id="LMRoman7-Regular-64" d="M 3718 0 
L 3718 230 
C 3290 230 3238 275 3238 589 
L 3238 4442 
L 2278 4371 
L 2278 4141 
C 2707 4141 2758 4096 2758 3782 
L 2758 2458 
C 2522 2688 2214 2822 1862 2822 
C 1011 2822 294 2182 294 1376 
C 294 576 973 -64 1786 -64 
C 2310 -64 2624 218 2733 333 
L 2733 -64 
L 3718 0 
z
M 2733 672 
C 2566 371 2240 115 1824 115 
C 1466 115 1210 326 1082 512 
C 954 704 877 960 877 1370 
C 877 1517 877 1997 1139 2298 
C 1395 2586 1709 2643 1894 2643 
C 2202 2643 2477 2502 2656 2272 
C 2733 2170 2733 2163 2733 2042 
L 2733 672 
z
" transform="scale(0.015625)"/>
      </defs>
      <use xlink:href="#LMRoman7-Regular-66"/>
      <use xlink:href="#LMRoman7-Regular-69" x="35.399994"/>
      <use xlink:href="#LMRoman7-Regular-74" x="67.699982"/>
      <use xlink:href="#LMRoman7-Regular-74" x="112.299973"/>
      <use xlink:href="#LMRoman7-Regular-65" x="156.899963"/>
      <use xlink:href="#LMRoman7-Regular-64" x="207.699951"/>
     </g>
    </g>
   </g>
  </g>
 </g>
 <defs>
  <clipPath id="p8267d82285">
   <rect x="54.44" y="6.423125" width="196.443465" height="170.14255"/>
  </clipPath>
 </defs>
</svg>
