<?xml version="1.0" encoding="utf-8" standalone="no"?>
<!DOCTYPE svg PUBLIC "-//W3C//DTD SVG 1.1//EN"
  "http://www.w3.org/Graphics/SVG/1.1/DTD/svg11.dtd">
<svg xmlns:xlink="http://www.w3.org/1999/xlink" width="126.141732pt" height="116.220472pt" viewBox="0 0 126.141732 116.220472" xmlns="http://www.w3.org/2000/svg" version="1.1">
 <metadata>
  <rdf:RDF xmlns:dc="http://purl.org/dc/elements/1.1/" xmlns:cc="http://creativecommons.org/ns#" xmlns:rdf="http://www.w3.org/1999/02/22-rdf-syntax-ns#">
   <cc:Work>
    <dc:type rdf:resource="http://purl.org/dc/dcmitype/StillImage"/>
    <dc:date>2025-02-19T15:26:56.217004</dc:date>
    <dc:format>image/svg+xml</dc:format>
    <dc:creator>
     <cc:Agent>
      <dc:title>Matplotlib v3.7.2, https://matplotlib.org/</dc:title>
     </cc:Agent>
    </dc:creator>
   </cc:Work>
  </rdf:RDF>
 </metadata>
 <defs>
  <style type="text/css">*{stroke-linejoin: round; stroke-linecap: butt}</style>
 </defs>
 <g id="figure_1">
  <g id="patch_1">
   <path d="M 0 116.220472 
L 126.141732 116.220472 
L 126.141732 0 
L 0 0 
z
" style="fill: #ffffff"/>
  </g>
  <g id="axes_1">
   <g id="patch_2">
    <path d="M 32.25 87.199222 
L 124.735361 87.199222 
L 124.735361 0 
L 32.25 0 
z
" style="fill: #ffffff"/>
   </g>
   <g id="matplotlib.axis_1">
    <g id="xtick_1">
     <g id="line2d_1">
      <defs>
       <path id="mcbbd61a42d" d="M 0 0 
L 0 -3.5 
" style="stroke: #000000; stroke-width: 0.8"/>
      </defs>
      <g>
       <use xlink:href="#mcbbd61a42d" x="36.45388" y="87.199222" style="stroke: #000000; stroke-width: 0.8"/>
      </g>
     </g>
     <g id="line2d_2">
      <defs>
       <path id="m1409740483" d="M 0 0 
L 0 3.5 
" style="stroke: #000000; stroke-width: 0.8"/>
      </defs>
      <g>
       <use xlink:href="#m1409740483" x="36.45388" y="0" style="stroke: #000000; stroke-width: 0.8"/>
      </g>
     </g>
     <g id="text_1">
      <!-- −0.5 -->
      <g transform="translate(27.013255 97.639847) scale(0.1 -0.1)">
       <defs>
        <path id="LMRoman17-Regular-2212" d="M 4307 1600 
C 4307 1715 4198 1715 4090 1715 
L 512 1715 
C 403 1715 294 1715 294 1600 
C 294 1491 390 1491 486 1491 
L 4115 1491 
C 4211 1491 4307 1491 4307 1600 
z
" transform="scale(0.015625)"/>
        <path id="LMRoman17-Regular-30" d="M 2688 2054 
C 2688 2445 2682 3110 2413 3622 
C 2176 4070 1798 4230 1466 4230 
C 1158 4230 768 4090 525 3629 
C 269 3149 243 2554 243 2054 
C 243 1690 250 1133 448 646 
C 723 -13 1216 -102 1466 -102 
C 1760 -102 2208 19 2470 627 
C 2662 1069 2688 1587 2688 2054 
z
M 2278 2125 
C 2278 1709 2278 1197 2202 819 
C 2067 122 1690 0 1466 0 
C 1056 0 813 352 723 838 
C 653 1216 653 1766 653 2125 
C 653 2618 653 3027 736 3418 
C 858 3962 1216 4128 1466 4128 
C 1728 4128 2067 3955 2189 3430 
C 2272 3066 2278 2637 2278 2125 
z
" transform="scale(0.015625)"/>
        <path id="LMRoman17-Regular-2e" d="M 1062 262 
C 1062 422 934 525 800 525 
C 672 525 538 422 538 262 
C 538 102 666 0 800 0 
C 928 0 1062 102 1062 262 
z
" transform="scale(0.015625)"/>
        <path id="LMRoman17-Regular-35" d="M 2669 1293 
C 2669 2061 2170 2656 1549 2656 
C 1222 2656 947 2534 730 2304 
L 730 3744 
C 794 3718 1056 3635 1325 3635 
C 1920 3635 2246 3955 2432 4141 
C 2432 4192 2432 4224 2394 4224 
C 2394 4224 2374 4224 2323 4198 
C 2099 4102 1837 4026 1517 4026 
C 1325 4026 1037 4051 723 4192 
C 653 4224 634 4224 634 4224 
C 602 4224 595 4218 595 4090 
L 595 2234 
C 595 2118 595 2086 659 2086 
C 691 2086 704 2099 736 2144 
C 941 2432 1222 2554 1542 2554 
C 1766 2554 2246 2413 2246 1318 
C 2246 1114 2246 742 2054 448 
C 1894 186 1645 51 1370 51 
C 947 51 518 346 403 838 
C 429 832 480 819 506 819 
C 589 819 749 864 749 1062 
C 749 1235 627 1306 506 1306 
C 358 1306 262 1216 262 1037 
C 262 480 704 -102 1382 -102 
C 2042 -102 2669 467 2669 1293 
z
" transform="scale(0.015625)"/>
       </defs>
       <use xlink:href="#LMRoman17-Regular-2212"/>
       <use xlink:href="#LMRoman17-Regular-30" x="71.999985"/>
       <use xlink:href="#LMRoman17-Regular-2e" x="117.899979"/>
       <use xlink:href="#LMRoman17-Regular-35" x="142.899963"/>
      </g>
     </g>
    </g>
    <g id="xtick_2">
     <g id="line2d_3">
      <g>
       <use xlink:href="#mcbbd61a42d" x="78.492681" y="87.199222" style="stroke: #000000; stroke-width: 0.8"/>
      </g>
     </g>
     <g id="line2d_4">
      <g>
       <use xlink:href="#m1409740483" x="78.492681" y="0" style="stroke: #000000; stroke-width: 0.8"/>
      </g>
     </g>
     <g id="text_2">
      <!-- 0.0 -->
      <g transform="translate(72.652056 97.639847) scale(0.1 -0.1)">
       <use xlink:href="#LMRoman17-Regular-30"/>
       <use xlink:href="#LMRoman17-Regular-2e" x="45.899994"/>
       <use xlink:href="#LMRoman17-Regular-30" x="70.899979"/>
      </g>
     </g>
    </g>
    <g id="xtick_3">
     <g id="line2d_5">
      <g>
       <use xlink:href="#mcbbd61a42d" x="120.531481" y="87.199222" style="stroke: #000000; stroke-width: 0.8"/>
      </g>
     </g>
     <g id="line2d_6">
      <g>
       <use xlink:href="#m1409740483" x="120.531481" y="0" style="stroke: #000000; stroke-width: 0.8"/>
      </g>
     </g>
     <g id="text_3">
      <!-- 0.5 -->
      <g transform="translate(114.690856 97.639847) scale(0.1 -0.1)">
       <use xlink:href="#LMRoman17-Regular-30"/>
       <use xlink:href="#LMRoman17-Regular-2e" x="45.899994"/>
       <use xlink:href="#LMRoman17-Regular-35" x="70.899979"/>
      </g>
     </g>
    </g>
    <g id="text_4">
     <!-- $\epsilon_{22}\ (\%)$ -->
     <g transform="translate(64.242681 110.539847) scale(0.1 -0.1)">
      <defs>
       <path id="STIXGeneral-Italic-3b5" d="M 2304 627 
L 2406 563 
Q 1907 -70 1133 -70 
Q 192 -70 192 640 
Q 192 928 403 1158 
Q 614 1389 934 1472 
Q 774 1498 684 1616 
Q 595 1734 595 1882 
Q 602 2266 995 2544 
Q 1389 2822 2029 2822 
Q 2336 2822 2528 2672 
Q 2720 2522 2720 2291 
Q 2720 2163 2617 2080 
Q 2515 1997 2413 1997 
Q 2298 1997 2230 2067 
Q 2163 2138 2163 2253 
Q 2163 2317 2211 2409 
Q 2259 2502 2259 2560 
Q 2259 2688 2022 2688 
Q 1683 2688 1401 2496 
Q 1120 2304 1120 1907 
Q 1120 1741 1251 1654 
Q 1382 1568 1594 1568 
Q 1613 1568 1728 1590 
Q 1843 1613 1932 1613 
Q 2022 1613 2086 1574 
Q 2150 1536 2150 1478 
Q 2150 1306 1862 1306 
Q 1805 1306 1721 1334 
Q 1638 1363 1568 1363 
Q 1286 1363 1014 1184 
Q 742 1005 742 678 
Q 742 410 908 285 
Q 1075 160 1312 160 
Q 1869 160 2304 627 
z
" transform="scale(0.015625)"/>
       <path id="STIXGeneral-Regular-32" d="M 3034 877 
L 2688 0 
L 186 0 
L 186 77 
L 1325 1286 
Q 1773 1754 1965 2144 
Q 2157 2534 2157 2950 
Q 2157 3379 1920 3616 
Q 1683 3853 1267 3853 
Q 922 3853 720 3673 
Q 518 3494 326 3021 
L 192 3053 
Q 301 3648 630 3987 
Q 960 4326 1523 4326 
Q 2054 4326 2380 4006 
Q 2707 3686 2707 3200 
Q 2707 2477 1888 1613 
L 832 486 
L 2330 486 
Q 2541 486 2665 569 
Q 2790 653 2944 915 
L 3034 877 
z
" transform="scale(0.015625)"/>
       <path id="STIXGeneral-Regular-28" d="M 1946 -1030 
L 1869 -1133 
Q 1126 -710 716 32 
Q 307 774 307 1613 
Q 307 3386 1888 4326 
L 1946 4224 
Q 1293 3667 1075 3126 
Q 858 2586 858 1632 
Q 858 685 1082 96 
Q 1306 -493 1946 -1030 
z
" transform="scale(0.015625)"/>
       <path id="STIXGeneral-Regular-25" d="M 4390 1363 
Q 4390 781 4070 329 
Q 3750 -122 3341 -122 
Q 3014 -122 2790 134 
Q 2566 390 2566 762 
Q 2566 1274 2940 1693 
Q 3315 2112 3776 2112 
Q 4070 2112 4230 1917 
Q 4390 1722 4390 1363 
z
M 4243 1376 
Q 4243 1626 4131 1779 
Q 4019 1933 3840 1933 
Q 3654 1933 3526 1786 
Q 3315 1562 3171 1187 
Q 3027 813 3027 486 
Q 3027 301 3129 176 
Q 3232 51 3386 51 
Q 3718 51 3980 457 
Q 4243 864 4243 1376 
z
M 3974 4518 
L 1222 -115 
L 922 -115 
L 3443 4096 
Q 3264 3891 3094 3811 
Q 2925 3731 2669 3731 
Q 2445 3731 2182 3821 
Q 2208 3674 2208 3539 
Q 2208 3206 2067 2873 
Q 1926 2541 1696 2323 
Q 1453 2086 1146 2086 
Q 826 2086 608 2339 
Q 390 2592 390 2963 
Q 390 3507 761 3916 
Q 1133 4326 1626 4326 
Q 1792 4326 2010 4147 
Q 2310 3898 2624 3898 
Q 2918 3898 3084 3994 
Q 3251 4090 3693 4518 
L 3974 4518 
z
M 2054 3642 
Q 2054 3782 2025 3833 
Q 1997 3885 1894 3936 
Q 1747 4006 1613 4154 
Q 1414 4058 1331 3984 
Q 1248 3910 1152 3750 
Q 845 3264 845 2707 
Q 845 2509 944 2384 
Q 1043 2259 1210 2259 
Q 1549 2259 1801 2675 
Q 2054 3091 2054 3642 
z
" transform="scale(0.015625)"/>
       <path id="STIXGeneral-Regular-29" d="M 186 4224 
L 262 4326 
Q 992 3891 1408 3148 
Q 1824 2406 1824 1581 
Q 1824 -166 243 -1133 
L 186 -1030 
Q 845 -486 1059 54 
Q 1274 595 1274 1562 
Q 1274 2534 1059 3120 
Q 845 3706 186 4224 
z
" transform="scale(0.015625)"/>
      </defs>
      <use xlink:href="#STIXGeneral-Italic-3b5" transform="translate(0 0.40625)"/>
      <use xlink:href="#STIXGeneral-Regular-32" transform="translate(44.399994 -12.821875) scale(0.7)"/>
      <use xlink:href="#STIXGeneral-Regular-32" transform="translate(79.399983 -12.821875) scale(0.7)"/>
      <use xlink:href="#STIXGeneral-Regular-28" transform="translate(142.875767 0.40625)"/>
      <use xlink:href="#STIXGeneral-Regular-25" transform="translate(176.175755 0.40625)"/>
      <use xlink:href="#STIXGeneral-Regular-29" transform="translate(250.875737 0.40625)"/>
     </g>
    </g>
   </g>
   <g id="matplotlib.axis_2">
    <g id="ytick_1">
     <g id="line2d_7">
      <defs>
       <path id="m68803143ff" d="M 0 0 
L 3.5 0 
" style="stroke: #000000; stroke-width: 0.8"/>
      </defs>
      <g>
       <use xlink:href="#m68803143ff" x="32.25" y="77.090424" style="stroke: #000000; stroke-width: 0.8"/>
      </g>
     </g>
     <g id="line2d_8">
      <defs>
       <path id="mbac4427522" d="M 0 0 
L -3.5 0 
" style="stroke: #000000; stroke-width: 0.8"/>
      </defs>
      <g>
       <use xlink:href="#mbac4427522" x="124.735361" y="77.090424" style="stroke: #000000; stroke-width: 0.8"/>
      </g>
     </g>
     <g id="text_5">
      <!-- −2 -->
      <g transform="translate(16.959375 80.560737) scale(0.1 -0.1)">
       <defs>
        <path id="LMRoman17-Regular-32" d="M 2669 992 
L 2554 992 
C 2490 538 2438 461 2413 422 
C 2381 371 1920 371 1830 371 
L 602 371 
L 1824 1600 
C 2214 1971 2669 2406 2669 3040 
C 2669 3795 2067 4230 1395 4230 
C 691 4230 262 3610 262 3034 
C 262 2784 448 2752 525 2752 
C 589 2752 781 2790 781 3014 
C 781 3213 614 3270 525 3270 
C 486 3270 448 3264 422 3251 
C 544 3795 915 4064 1306 4064 
C 1862 4064 2227 3622 2227 3040 
C 2227 2483 1901 2003 1536 1587 
L 262 147 
L 262 0 
L 2515 0 
L 2669 992 
z
" transform="scale(0.015625)"/>
       </defs>
       <use xlink:href="#LMRoman17-Regular-2212"/>
       <use xlink:href="#LMRoman17-Regular-32" x="71.999985"/>
      </g>
     </g>
    </g>
    <g id="ytick_2">
     <g id="line2d_9">
      <g>
       <use xlink:href="#m68803143ff" x="32.25" y="43.147837" style="stroke: #000000; stroke-width: 0.8"/>
      </g>
     </g>
     <g id="line2d_10">
      <g>
       <use xlink:href="#mbac4427522" x="124.735361" y="43.147837" style="stroke: #000000; stroke-width: 0.8"/>
      </g>
     </g>
     <g id="text_6">
      <!-- 0 -->
      <g transform="translate(24.159375 46.61815) scale(0.1 -0.1)">
       <use xlink:href="#LMRoman17-Regular-30"/>
      </g>
     </g>
    </g>
    <g id="ytick_3">
     <g id="line2d_11">
      <g>
       <use xlink:href="#m68803143ff" x="32.25" y="9.20525" style="stroke: #000000; stroke-width: 0.8"/>
      </g>
     </g>
     <g id="line2d_12">
      <g>
       <use xlink:href="#mbac4427522" x="124.735361" y="9.20525" style="stroke: #000000; stroke-width: 0.8"/>
      </g>
     </g>
     <g id="text_7">
      <!-- 2 -->
      <g transform="translate(24.159375 12.675562) scale(0.1 -0.1)">
       <use xlink:href="#LMRoman17-Regular-32"/>
      </g>
     </g>
    </g>
    <g id="text_8">
     <!-- $\Delta P_{2}\ \mathrm{(pC/m)}$ -->
     <g transform="translate(10.759375 67.899611) rotate(-90) scale(0.1 -0.1)">
      <defs>
       <path id="STIXGeneral-Regular-394" d="M 4320 0 
L 307 0 
L 2221 4314 
L 2349 4314 
L 4320 0 
z
M 3354 589 
L 2118 3405 
L 870 589 
L 3354 589 
z
" transform="scale(0.015625)"/>
       <path id="STIXGeneral-Italic-50" d="M 934 4179 
L 2477 4179 
Q 3872 4179 3872 3232 
Q 3872 2976 3753 2729 
Q 3635 2483 3437 2317 
Q 2995 1952 2125 1952 
Q 1773 1952 1549 2003 
L 1210 768 
Q 1120 422 1120 365 
Q 1120 250 1216 189 
Q 1312 128 1562 102 
L 1562 0 
L 0 0 
L 0 102 
Q 275 141 361 227 
Q 448 314 538 627 
L 1280 3277 
Q 1389 3667 1389 3808 
Q 1389 3936 1299 3990 
Q 1210 4045 934 4077 
L 934 4179 
z
M 2048 3789 
L 1606 2221 
Q 1792 2189 1939 2189 
Q 2496 2189 2758 2342 
Q 3213 2598 3213 3200 
Q 3213 3987 2381 3987 
Q 2099 3987 2048 3789 
z
" transform="scale(0.015625)"/>
       <path id="STIXGeneral-Regular-70" d="M 1018 2931 
L 1018 2438 
Q 1421 2944 1939 2944 
Q 2406 2944 2707 2560 
Q 3008 2176 3008 1581 
Q 3008 883 2621 409 
Q 2234 -64 1664 -64 
Q 1466 -64 1328 -6 
Q 1190 51 1018 211 
L 1018 -794 
Q 1018 -1094 1120 -1180 
Q 1222 -1267 1581 -1274 
L 1581 -1389 
L 32 -1389 
L 32 -1280 
Q 314 -1254 397 -1171 
Q 480 -1088 480 -838 
L 480 2157 
Q 480 2381 429 2451 
Q 378 2522 218 2522 
Q 115 2522 58 2515 
L 58 2618 
Q 506 2752 979 2944 
L 1018 2931 
z
M 1018 2138 
L 1018 563 
Q 1018 422 1238 281 
Q 1459 141 1683 141 
Q 2029 141 2243 467 
Q 2458 794 2458 1325 
Q 2458 1888 2243 2224 
Q 2029 2560 1670 2560 
Q 1446 2560 1232 2419 
Q 1018 2278 1018 2138 
z
" transform="scale(0.015625)"/>
       <path id="STIXGeneral-Regular-43" d="M 3930 838 
L 4051 723 
Q 3482 -90 2304 -90 
Q 1376 -90 794 480 
Q 179 1082 179 2080 
Q 179 3014 755 3661 
Q 1357 4326 2310 4326 
Q 2720 4326 3072 4230 
Q 3475 4115 3514 4115 
Q 3725 4115 3782 4326 
L 3910 4326 
L 3968 2874 
L 3821 2874 
Q 3718 3334 3488 3584 
Q 3034 4070 2458 4070 
Q 1747 4070 1334 3548 
Q 922 3027 922 2182 
Q 922 1152 1382 653 
Q 1811 192 2522 192 
Q 2944 192 3251 339 
Q 3558 486 3930 838 
z
" transform="scale(0.015625)"/>
       <path id="STIXGeneral-Regular-2f" d="M 1837 4326 
L 378 -90 
L -58 -90 
L 1408 4326 
L 1837 4326 
z
" transform="scale(0.015625)"/>
       <path id="STIXGeneral-Regular-6d" d="M 4960 0 
L 3565 0 
L 3565 96 
Q 3834 122 3907 208 
Q 3981 294 3981 576 
L 3981 1894 
Q 3981 2278 3869 2444 
Q 3757 2611 3488 2611 
Q 3264 2611 3107 2521 
Q 2950 2432 2803 2221 
L 2803 608 
Q 2803 301 2896 201 
Q 2989 102 3264 96 
L 3264 0 
L 1830 0 
L 1830 96 
Q 2112 115 2189 188 
Q 2266 262 2266 550 
L 2266 1901 
Q 2266 2611 1850 2611 
Q 1670 2611 1468 2531 
Q 1267 2451 1171 2336 
Q 1088 2240 1088 2227 
L 1088 448 
Q 1088 243 1177 176 
Q 1267 109 1523 96 
L 1523 0 
L 102 0 
L 102 96 
Q 371 102 460 195 
Q 550 288 550 563 
L 550 2150 
Q 550 2387 499 2480 
Q 448 2573 326 2573 
Q 230 2573 122 2547 
L 122 2656 
Q 557 2778 1011 2944 
L 1062 2925 
L 1062 2451 
L 1075 2451 
Q 1363 2752 1584 2848 
Q 1805 2944 2054 2944 
Q 2560 2944 2733 2406 
Q 3232 2944 3776 2944 
Q 4518 2944 4518 1792 
L 4518 493 
Q 4518 282 4582 202 
Q 4646 122 4794 109 
L 4960 96 
L 4960 0 
z
" transform="scale(0.015625)"/>
      </defs>
      <use xlink:href="#STIXGeneral-Regular-394" transform="translate(0 0.40625)"/>
      <use xlink:href="#STIXGeneral-Italic-50" transform="translate(72.199982 0.40625)"/>
      <use xlink:href="#STIXGeneral-Regular-32" transform="translate(133.299973 -12.821875) scale(0.7)"/>
      <use xlink:href="#STIXGeneral-Regular-28" transform="translate(196.775757 0.40625)"/>
      <use xlink:href="#STIXGeneral-Regular-70" transform="translate(230.075745 0.40625)"/>
      <use xlink:href="#STIXGeneral-Regular-43" transform="translate(280.075729 0.40625)"/>
      <use xlink:href="#STIXGeneral-Regular-2f" transform="translate(346.775726 0.40625)"/>
      <use xlink:href="#STIXGeneral-Regular-6d" transform="translate(374.575714 0.40625)"/>
      <use xlink:href="#STIXGeneral-Regular-29" transform="translate(452.375702 0.40625)"/>
     </g>
    </g>
   </g>
   <g id="line2d_13">
    <defs>
     <path id="m5e33f16ba8" d="M 0 2.5 
C 0.663008 2.5 1.29895 2.236584 1.767767 1.767767 
C 2.236584 1.29895 2.5 0.663008 2.5 0 
C 2.5 -0.663008 2.236584 -1.29895 1.767767 -1.767767 
C 1.29895 -2.236584 0.663008 -2.5 0 -2.5 
C -0.663008 -2.5 -1.29895 -2.236584 -1.767767 -1.767767 
C -2.236584 -1.29895 -2.5 -0.663008 -2.5 0 
C -2.5 0.663008 -2.236584 1.29895 -1.767767 1.767767 
C -1.29895 2.236584 -0.663008 2.5 0 2.5 
z
" style="stroke: #1f77b4"/>
    </defs>
    <g clip-path="url(#pdb5b396200)">
     <use xlink:href="#m5e33f16ba8" x="36.45388" y="83.235621" style="fill-opacity: 0; stroke: #1f77b4"/>
     <use xlink:href="#m5e33f16ba8" x="44.86164" y="74.975563" style="fill-opacity: 0; stroke: #1f77b4"/>
     <use xlink:href="#m5e33f16ba8" x="53.2694" y="67.017409" style="fill-opacity: 0; stroke: #1f77b4"/>
     <use xlink:href="#m5e33f16ba8" x="61.67716" y="59.005907" style="fill-opacity: 0; stroke: #1f77b4"/>
     <use xlink:href="#m5e33f16ba8" x="70.084921" y="51.071893" style="fill-opacity: 0; stroke: #1f77b4"/>
     <use xlink:href="#m5e33f16ba8" x="78.492681" y="43.147837" style="fill-opacity: 0; stroke: #1f77b4"/>
     <use xlink:href="#m5e33f16ba8" x="86.900441" y="34.990564" style="fill-opacity: 0; stroke: #1f77b4"/>
     <use xlink:href="#m5e33f16ba8" x="95.308201" y="27.679445" style="fill-opacity: 0; stroke: #1f77b4"/>
     <use xlink:href="#m5e33f16ba8" x="103.715961" y="19.572951" style="fill-opacity: 0; stroke: #1f77b4"/>
     <use xlink:href="#m5e33f16ba8" x="112.123721" y="11.794945" style="fill-opacity: 0; stroke: #1f77b4"/>
     <use xlink:href="#m5e33f16ba8" x="120.531481" y="3.963601" style="fill-opacity: 0; stroke: #1f77b4"/>
    </g>
   </g>
   <g id="line2d_14">
    <path d="M 36.45388 83.14386 
L 44.86164 75.066951 
L 53.2694 67.027032 
L 61.67716 59.024103 
L 70.084921 51.058162 
L 78.492681 43.129211 
L 86.900441 35.237249 
L 95.308201 27.382277 
L 103.715961 19.564294 
L 112.123721 11.783301 
L 120.531481 4.039296 
" clip-path="url(#pdb5b396200)" style="fill: none; stroke-dasharray: 5.55,2.4; stroke-dashoffset: 0; stroke: #1f77b4; stroke-width: 1.5"/>
   </g>
   <g id="patch_3">
    <path d="M 32.25 87.199222 
L 32.25 0 
" style="fill: none; stroke: #000000; stroke-width: 0.8; stroke-linejoin: miter; stroke-linecap: square"/>
   </g>
   <g id="patch_4">
    <path d="M 124.735361 87.199222 
L 124.735361 0 
" style="fill: none; stroke: #000000; stroke-width: 0.8; stroke-linejoin: miter; stroke-linecap: square"/>
   </g>
   <g id="patch_5">
    <path d="M 32.25 87.199222 
L 124.735361 87.199222 
" style="fill: none; stroke: #000000; stroke-width: 0.8; stroke-linejoin: miter; stroke-linecap: square"/>
   </g>
   <g id="patch_6">
    <path d="M 32.25 0 
L 124.735361 0 
" style="fill: none; stroke: #000000; stroke-width: 0.8; stroke-linejoin: miter; stroke-linecap: square"/>
   </g>
   <g id="text_9">
    <!-- $e_{22}$ -->
    <g transform="translate(72.542681 14.795782) scale(0.1 -0.1)">
     <defs>
      <path id="STIXGeneral-Italic-65" d="M 2291 698 
L 2368 621 
Q 1805 -70 1062 -70 
Q 672 -70 435 170 
Q 198 410 198 806 
Q 198 1555 796 2188 
Q 1395 2822 2112 2822 
Q 2362 2822 2499 2707 
Q 2637 2592 2637 2387 
Q 2637 1965 2147 1632 
Q 1658 1299 819 1190 
Q 755 1062 755 800 
Q 755 538 918 378 
Q 1082 218 1350 218 
Q 1562 218 1754 317 
Q 1946 416 2291 698 
z
M 973 1613 
L 864 1331 
Q 1581 1504 1894 1805 
Q 2214 2112 2214 2426 
Q 2214 2675 1990 2675 
Q 1722 2675 1430 2364 
Q 1139 2054 973 1613 
z
" transform="scale(0.015625)"/>
     </defs>
     <use xlink:href="#STIXGeneral-Italic-65" transform="translate(0 0.90625)"/>
     <use xlink:href="#STIXGeneral-Regular-32" transform="translate(44.399994 -12.321875) scale(0.7)"/>
     <use xlink:href="#STIXGeneral-Regular-32" transform="translate(79.399983 -12.321875) scale(0.7)"/>
    </g>
    <!-- $4.66 \times 10^{-10}\ \mathrm{C/m}$ -->
    <g transform="translate(44.042681 25.074532) scale(0.1 -0.1)">
     <defs>
      <path id="STIXGeneral-Regular-34" d="M 3027 1069 
L 2368 1069 
L 2368 0 
L 1869 0 
L 1869 1069 
L 77 1069 
L 77 1478 
L 2086 4326 
L 2368 4326 
L 2368 1478 
L 3027 1478 
L 3027 1069 
z
M 1869 1478 
L 1869 3674 
L 333 1478 
L 1869 1478 
z
" transform="scale(0.015625)"/>
      <path id="STIXGeneral-Regular-2e" d="M 1158 275 
Q 1158 134 1052 32 
Q 947 -70 800 -70 
Q 653 -70 550 32 
Q 448 134 448 281 
Q 448 429 553 534 
Q 659 640 806 640 
Q 947 640 1052 531 
Q 1158 422 1158 275 
z
" transform="scale(0.015625)"/>
      <path id="STIXGeneral-Regular-36" d="M 2854 4378 
L 2867 4275 
Q 2112 4154 1606 3664 
Q 1101 3174 973 2451 
Q 1344 2739 1786 2739 
Q 2349 2739 2672 2380 
Q 2995 2022 2995 1402 
Q 2995 774 2669 378 
Q 2291 -90 1651 -90 
Q 870 -90 518 557 
Q 218 1107 218 1786 
Q 218 2835 915 3552 
Q 1312 3962 1731 4131 
Q 2150 4301 2854 4378 
z
M 2419 1203 
Q 2419 2445 1555 2445 
Q 1235 2445 1024 2275 
Q 813 2106 813 1702 
Q 813 954 1046 522 
Q 1280 90 1722 90 
Q 2061 90 2240 394 
Q 2419 698 2419 1203 
z
" transform="scale(0.015625)"/>
      <path id="STIXGeneral-Regular-d7" d="M 3821 141 
L 3526 -160 
L 2048 1312 
L 570 -160 
L 275 134 
L 1747 1613 
L 275 3091 
L 576 3386 
L 2048 1914 
L 3526 3386 
L 3821 3098 
L 2349 1613 
L 3821 141 
z
" transform="scale(0.015625)"/>
      <path id="STIXGeneral-Regular-31" d="M 2522 0 
L 755 0 
L 755 96 
Q 1107 115 1235 227 
Q 1363 339 1363 608 
L 1363 3482 
Q 1363 3795 1171 3795 
Q 1082 3795 883 3718 
L 710 3654 
L 710 3744 
L 1856 4326 
L 1914 4307 
L 1914 486 
Q 1914 275 2042 185 
Q 2170 96 2522 96 
L 2522 0 
z
" transform="scale(0.015625)"/>
      <path id="STIXGeneral-Regular-30" d="M 3046 2112 
Q 3046 1683 2963 1302 
Q 2880 922 2717 602 
Q 2554 282 2266 96 
Q 1978 -90 1600 -90 
Q 1210 -90 915 108 
Q 621 307 461 640 
Q 301 973 227 1350 
Q 154 1728 154 2150 
Q 154 2746 301 3222 
Q 448 3699 790 4012 
Q 1133 4326 1626 4326 
Q 2253 4326 2649 3712 
Q 3046 3098 3046 2112 
z
M 2432 2080 
Q 2432 3091 2217 3625 
Q 2003 4160 1587 4160 
Q 1190 4160 979 3622 
Q 768 3085 768 2106 
Q 768 1120 979 598 
Q 1190 77 1600 77 
Q 2003 77 2217 598 
Q 2432 1120 2432 2080 
z
" transform="scale(0.015625)"/>
      <path id="STIXGeneral-Regular-2212" d="M 3974 1408 
L 410 1408 
L 410 1830 
L 3974 1830 
L 3974 1408 
z
" transform="scale(0.015625)"/>
     </defs>
     <use xlink:href="#STIXGeneral-Regular-34" transform="translate(0 0.409375)"/>
     <use xlink:href="#STIXGeneral-Regular-2e" transform="translate(49.999985 0.409375)"/>
     <use xlink:href="#STIXGeneral-Regular-36" transform="translate(74.999969 0.409375)"/>
     <use xlink:href="#STIXGeneral-Regular-36" transform="translate(124.999954 0.409375)"/>
     <use xlink:href="#STIXGeneral-Regular-d7" transform="translate(189.439935 0.409375)"/>
     <use xlink:href="#STIXGeneral-Regular-31" transform="translate(267.879916 0.409375)"/>
     <use xlink:href="#STIXGeneral-Regular-30" transform="translate(317.879901 0.409375)"/>
     <use xlink:href="#STIXGeneral-Regular-2212" transform="translate(369.423167 35.684375) scale(0.7)"/>
     <use xlink:href="#STIXGeneral-Regular-31" transform="translate(417.373156 35.684375) scale(0.7)"/>
     <use xlink:href="#STIXGeneral-Regular-30" transform="translate(452.373146 35.684375) scale(0.7)"/>
     <use xlink:href="#STIXGeneral-Regular-43" transform="translate(515.84893 0.409375)"/>
     <use xlink:href="#STIXGeneral-Regular-2f" transform="translate(582.548927 0.409375)"/>
     <use xlink:href="#STIXGeneral-Regular-6d" transform="translate(610.348915 0.409375)"/>
    </g>
   </g>
   <g id="legend_1">
    <g id="patch_7">
     <path d="M 39.25 9 
L 39.25 9 
Q 41.25 9 41.25 7 
L 41.25 7 
Q 41.25 5 39.25 5 
L 39.25 5 
Q 37.25 5 37.25 7 
L 37.25 7 
Q 37.25 9 39.25 9 
z
" style="fill: #ffffff; opacity: 0.8; stroke: #cccccc; stroke-linejoin: miter"/>
    </g>
   </g>
  </g>
 </g>
 <defs>
  <clipPath id="pdb5b396200">
   <rect x="32.25" y="0" width="92.485361" height="87.199222"/>
  </clipPath>
 </defs>
</svg>
