<?xml version="1.0" encoding="utf-8" standalone="no"?>
<!DOCTYPE svg PUBLIC "-//W3C//DTD SVG 1.1//EN"
  "http://www.w3.org/Graphics/SVG/1.1/DTD/svg11.dtd">
<svg xmlns:xlink="http://www.w3.org/1999/xlink" width="255.11811pt" height="255.11811pt" viewBox="0 0 255.11811 255.11811" xmlns="http://www.w3.org/2000/svg" version="1.1">
 <metadata>
  <rdf:RDF xmlns:dc="http://purl.org/dc/elements/1.1/" xmlns:cc="http://creativecommons.org/ns#" xmlns:rdf="http://www.w3.org/1999/02/22-rdf-syntax-ns#">
   <cc:Work>
    <dc:type rdf:resource="http://purl.org/dc/dcmitype/StillImage"/>
    <dc:date>2022-10-11T16:46:13.176311</dc:date>
    <dc:format>image/svg+xml</dc:format>
    <dc:creator>
     <cc:Agent>
      <dc:title>Matplotlib v3.5.2, https://matplotlib.org/</dc:title>
     </cc:Agent>
    </dc:creator>
   </cc:Work>
  </rdf:RDF>
 </metadata>
 <defs>
  <style type="text/css">*{stroke-linejoin: round; stroke-linecap: butt}</style>
 </defs>
 <g id="figure_1">
  <g id="patch_1">
   <path d="M 0 255.11811 
L 255.11811 255.11811 
L 255.11811 0 
L 0 0 
z
" style="fill: #ffffff"/>
  </g>
  <g id="axes_1">
   <g id="patch_2">
    <path d="M 55.36063 228.585827 
L 238.535433 228.585827 
L 238.535433 13.011024 
L 55.36063 13.011024 
z
" style="fill: #ffffff"/>
   </g>
   <g id="matplotlib.axis_1">
    <g id="xtick_1">
     <g id="line2d_1">
      <defs>
       <path id="me493ecf929" d="M 0 0 
L 0 -3.5 
" style="stroke: #000000; stroke-width: 0.8"/>
      </defs>
      <g>
       <use xlink:href="#me493ecf929" x="55.36063" y="228.585827" style="stroke: #000000; stroke-width: 0.8"/>
      </g>
     </g>
     <g id="line2d_2">
      <defs>
       <path id="m9d4930b596" d="M 0 0 
L 0 3.5 
" style="stroke: #000000; stroke-width: 0.8"/>
      </defs>
      <g>
       <use xlink:href="#m9d4930b596" x="55.36063" y="13.011024" style="stroke: #000000; stroke-width: 0.8"/>
      </g>
     </g>
     <g id="text_1">
      <!-- $\Gamma$ -->
      <g transform="translate(52.21063 239.684264)scale(0.1 -0.1)">
       <defs>
        <path id="Cmr10-a1" d="M 197 0 
L 197 225 
Q 856 225 856 428 
L 856 3944 
Q 856 4147 197 4147 
L 197 4372 
L 3547 4372 
L 3725 2906 
L 3541 2906 
Q 3494 3313 3433 3534 
Q 3372 3756 3247 3892 
Q 3122 4028 2897 4087 
Q 2672 4147 2272 4147 
L 1778 4147 
Q 1663 4147 1598 4137 
Q 1534 4128 1493 4083 
Q 1453 4038 1453 3944 
L 1453 428 
Q 1453 225 2272 225 
L 2272 0 
L 197 0 
z
" transform="scale(0.015625)"/>
       </defs>
       <use xlink:href="#Cmr10-a1" transform="translate(0 0.6875)"/>
      </g>
     </g>
    </g>
    <g id="xtick_2">
     <g id="line2d_3">
      <g>
       <use xlink:href="#me493ecf929" x="132.779407" y="228.585827" style="stroke: #000000; stroke-width: 0.8"/>
      </g>
     </g>
     <g id="line2d_4">
      <g>
       <use xlink:href="#m9d4930b596" x="132.779407" y="13.011024" style="stroke: #000000; stroke-width: 0.8"/>
      </g>
     </g>
     <g id="text_2">
      <!-- K -->
      <g transform="translate(129.500501 239.684264)scale(0.1 -0.1)">
       <defs>
        <path id="DejaVuSans-4b" d="M 628 4666 
L 1259 4666 
L 1259 2694 
L 3353 4666 
L 4166 4666 
L 1850 2491 
L 4331 0 
L 3500 0 
L 1259 2247 
L 1259 0 
L 628 0 
L 628 4666 
z
" transform="scale(0.015625)"/>
       </defs>
       <use xlink:href="#DejaVuSans-4b"/>
      </g>
     </g>
    </g>
    <g id="xtick_3">
     <g id="line2d_5">
      <g>
       <use xlink:href="#me493ecf929" x="171.488796" y="228.585827" style="stroke: #000000; stroke-width: 0.8"/>
      </g>
     </g>
     <g id="line2d_6">
      <g>
       <use xlink:href="#m9d4930b596" x="171.488796" y="13.011024" style="stroke: #000000; stroke-width: 0.8"/>
      </g>
     </g>
     <g id="text_3">
      <!-- M -->
      <g transform="translate(167.174734 239.684264)scale(0.1 -0.1)">
       <defs>
        <path id="DejaVuSans-4d" d="M 628 4666 
L 1569 4666 
L 2759 1491 
L 3956 4666 
L 4897 4666 
L 4897 0 
L 4281 0 
L 4281 4097 
L 3078 897 
L 2444 897 
L 1241 4097 
L 1241 0 
L 628 0 
L 628 4666 
z
" transform="scale(0.015625)"/>
       </defs>
       <use xlink:href="#DejaVuSans-4d"/>
      </g>
     </g>
    </g>
    <g id="xtick_4">
     <g id="line2d_7">
      <g>
       <use xlink:href="#me493ecf929" x="238.535433" y="228.585827" style="stroke: #000000; stroke-width: 0.8"/>
      </g>
     </g>
     <g id="line2d_8">
      <g>
       <use xlink:href="#m9d4930b596" x="238.535433" y="13.011024" style="stroke: #000000; stroke-width: 0.8"/>
      </g>
     </g>
     <g id="text_4">
      <!-- $\Gamma$ -->
      <g transform="translate(235.385433 239.684264)scale(0.1 -0.1)">
       <use xlink:href="#Cmr10-a1" transform="translate(0 0.6875)"/>
      </g>
     </g>
    </g>
   </g>
   <g id="matplotlib.axis_2">
    <g id="ytick_1">
     <g id="line2d_9">
      <defs>
       <path id="m0019588f9d" d="M 0 0 
L 3.5 0 
" style="stroke: #000000; stroke-width: 0.8"/>
      </defs>
      <g>
       <use xlink:href="#m0019588f9d" x="55.36063" y="228.585827" style="stroke: #000000; stroke-width: 0.8"/>
      </g>
     </g>
     <g id="line2d_10">
      <defs>
       <path id="m02f996287b" d="M 0 0 
L -3.5 0 
" style="stroke: #000000; stroke-width: 0.8"/>
      </defs>
      <g>
       <use xlink:href="#m02f996287b" x="238.535433" y="228.585827" style="stroke: #000000; stroke-width: 0.8"/>
      </g>
     </g>
     <g id="text_5">
      <!-- 0 -->
      <g transform="translate(45.49813 232.385046)scale(0.1 -0.1)">
       <defs>
        <path id="DejaVuSans-30" d="M 2034 4250 
Q 1547 4250 1301 3770 
Q 1056 3291 1056 2328 
Q 1056 1369 1301 889 
Q 1547 409 2034 409 
Q 2525 409 2770 889 
Q 3016 1369 3016 2328 
Q 3016 3291 2770 3770 
Q 2525 4250 2034 4250 
z
M 2034 4750 
Q 2819 4750 3233 4129 
Q 3647 3509 3647 2328 
Q 3647 1150 3233 529 
Q 2819 -91 2034 -91 
Q 1250 -91 836 529 
Q 422 1150 422 2328 
Q 422 3509 836 4129 
Q 1250 4750 2034 4750 
z
" transform="scale(0.015625)"/>
       </defs>
       <use xlink:href="#DejaVuSans-30"/>
      </g>
     </g>
    </g>
    <g id="ytick_2">
     <g id="line2d_11">
      <g>
       <use xlink:href="#m0019588f9d" x="55.36063" y="196.88365" style="stroke: #000000; stroke-width: 0.8"/>
      </g>
     </g>
     <g id="line2d_12">
      <g>
       <use xlink:href="#m02f996287b" x="238.535433" y="196.88365" style="stroke: #000000; stroke-width: 0.8"/>
      </g>
     </g>
     <g id="text_6">
      <!-- 50 -->
      <g transform="translate(39.13563 200.682869)scale(0.1 -0.1)">
       <defs>
        <path id="DejaVuSans-35" d="M 691 4666 
L 3169 4666 
L 3169 4134 
L 1269 4134 
L 1269 2991 
Q 1406 3038 1543 3061 
Q 1681 3084 1819 3084 
Q 2600 3084 3056 2656 
Q 3513 2228 3513 1497 
Q 3513 744 3044 326 
Q 2575 -91 1722 -91 
Q 1428 -91 1123 -41 
Q 819 9 494 109 
L 494 744 
Q 775 591 1075 516 
Q 1375 441 1709 441 
Q 2250 441 2565 725 
Q 2881 1009 2881 1497 
Q 2881 1984 2565 2268 
Q 2250 2553 1709 2553 
Q 1456 2553 1204 2497 
Q 953 2441 691 2322 
L 691 4666 
z
" transform="scale(0.015625)"/>
       </defs>
       <use xlink:href="#DejaVuSans-35"/>
       <use xlink:href="#DejaVuSans-30" x="63.623047"/>
      </g>
     </g>
    </g>
    <g id="ytick_3">
     <g id="line2d_13">
      <g>
       <use xlink:href="#m0019588f9d" x="55.36063" y="165.181473" style="stroke: #000000; stroke-width: 0.8"/>
      </g>
     </g>
     <g id="line2d_14">
      <g>
       <use xlink:href="#m02f996287b" x="238.535433" y="165.181473" style="stroke: #000000; stroke-width: 0.8"/>
      </g>
     </g>
     <g id="text_7">
      <!-- 100 -->
      <g transform="translate(32.77313 168.980692)scale(0.1 -0.1)">
       <defs>
        <path id="DejaVuSans-31" d="M 794 531 
L 1825 531 
L 1825 4091 
L 703 3866 
L 703 4441 
L 1819 4666 
L 2450 4666 
L 2450 531 
L 3481 531 
L 3481 0 
L 794 0 
L 794 531 
z
" transform="scale(0.015625)"/>
       </defs>
       <use xlink:href="#DejaVuSans-31"/>
       <use xlink:href="#DejaVuSans-30" x="63.623047"/>
       <use xlink:href="#DejaVuSans-30" x="127.246094"/>
      </g>
     </g>
    </g>
    <g id="ytick_4">
     <g id="line2d_15">
      <g>
       <use xlink:href="#m0019588f9d" x="55.36063" y="133.479296" style="stroke: #000000; stroke-width: 0.8"/>
      </g>
     </g>
     <g id="line2d_16">
      <g>
       <use xlink:href="#m02f996287b" x="238.535433" y="133.479296" style="stroke: #000000; stroke-width: 0.8"/>
      </g>
     </g>
     <g id="text_8">
      <!-- 150 -->
      <g transform="translate(32.77313 137.278515)scale(0.1 -0.1)">
       <use xlink:href="#DejaVuSans-31"/>
       <use xlink:href="#DejaVuSans-35" x="63.623047"/>
       <use xlink:href="#DejaVuSans-30" x="127.246094"/>
      </g>
     </g>
    </g>
    <g id="ytick_5">
     <g id="line2d_17">
      <g>
       <use xlink:href="#m0019588f9d" x="55.36063" y="101.777119" style="stroke: #000000; stroke-width: 0.8"/>
      </g>
     </g>
     <g id="line2d_18">
      <g>
       <use xlink:href="#m02f996287b" x="238.535433" y="101.777119" style="stroke: #000000; stroke-width: 0.8"/>
      </g>
     </g>
     <g id="text_9">
      <!-- 200 -->
      <g transform="translate(32.77313 105.576338)scale(0.1 -0.1)">
       <defs>
        <path id="DejaVuSans-32" d="M 1228 531 
L 3431 531 
L 3431 0 
L 469 0 
L 469 531 
Q 828 903 1448 1529 
Q 2069 2156 2228 2338 
Q 2531 2678 2651 2914 
Q 2772 3150 2772 3378 
Q 2772 3750 2511 3984 
Q 2250 4219 1831 4219 
Q 1534 4219 1204 4116 
Q 875 4013 500 3803 
L 500 4441 
Q 881 4594 1212 4672 
Q 1544 4750 1819 4750 
Q 2544 4750 2975 4387 
Q 3406 4025 3406 3419 
Q 3406 3131 3298 2873 
Q 3191 2616 2906 2266 
Q 2828 2175 2409 1742 
Q 1991 1309 1228 531 
z
" transform="scale(0.015625)"/>
       </defs>
       <use xlink:href="#DejaVuSans-32"/>
       <use xlink:href="#DejaVuSans-30" x="63.623047"/>
       <use xlink:href="#DejaVuSans-30" x="127.246094"/>
      </g>
     </g>
    </g>
    <g id="ytick_6">
     <g id="line2d_19">
      <g>
       <use xlink:href="#m0019588f9d" x="55.36063" y="70.074942" style="stroke: #000000; stroke-width: 0.8"/>
      </g>
     </g>
     <g id="line2d_20">
      <g>
       <use xlink:href="#m02f996287b" x="238.535433" y="70.074942" style="stroke: #000000; stroke-width: 0.8"/>
      </g>
     </g>
     <g id="text_10">
      <!-- 250 -->
      <g transform="translate(32.77313 73.874161)scale(0.1 -0.1)">
       <use xlink:href="#DejaVuSans-32"/>
       <use xlink:href="#DejaVuSans-35" x="63.623047"/>
       <use xlink:href="#DejaVuSans-30" x="127.246094"/>
      </g>
     </g>
    </g>
    <g id="ytick_7">
     <g id="line2d_21">
      <g>
       <use xlink:href="#m0019588f9d" x="55.36063" y="38.372765" style="stroke: #000000; stroke-width: 0.8"/>
      </g>
     </g>
     <g id="line2d_22">
      <g>
       <use xlink:href="#m02f996287b" x="238.535433" y="38.372765" style="stroke: #000000; stroke-width: 0.8"/>
      </g>
     </g>
     <g id="text_11">
      <!-- 300 -->
      <g transform="translate(32.77313 42.171984)scale(0.1 -0.1)">
       <defs>
        <path id="DejaVuSans-33" d="M 2597 2516 
Q 3050 2419 3304 2112 
Q 3559 1806 3559 1356 
Q 3559 666 3084 287 
Q 2609 -91 1734 -91 
Q 1441 -91 1130 -33 
Q 819 25 488 141 
L 488 750 
Q 750 597 1062 519 
Q 1375 441 1716 441 
Q 2309 441 2620 675 
Q 2931 909 2931 1356 
Q 2931 1769 2642 2001 
Q 2353 2234 1838 2234 
L 1294 2234 
L 1294 2753 
L 1863 2753 
Q 2328 2753 2575 2939 
Q 2822 3125 2822 3475 
Q 2822 3834 2567 4026 
Q 2313 4219 1838 4219 
Q 1578 4219 1281 4162 
Q 984 4106 628 3988 
L 628 4550 
Q 988 4650 1302 4700 
Q 1616 4750 1894 4750 
Q 2613 4750 3031 4423 
Q 3450 4097 3450 3541 
Q 3450 3153 3228 2886 
Q 3006 2619 2597 2516 
z
" transform="scale(0.015625)"/>
       </defs>
       <use xlink:href="#DejaVuSans-33"/>
       <use xlink:href="#DejaVuSans-30" x="63.623047"/>
       <use xlink:href="#DejaVuSans-30" x="127.246094"/>
      </g>
     </g>
    </g>
    <g id="text_12">
     <!-- Frequency ($cm^{-1}$) -->
     <g transform="translate(26.25313 172.938425)rotate(-90)scale(0.12 -0.12)">
      <defs>
       <path id="DejaVuSans-46" d="M 628 4666 
L 3309 4666 
L 3309 4134 
L 1259 4134 
L 1259 2759 
L 3109 2759 
L 3109 2228 
L 1259 2228 
L 1259 0 
L 628 0 
L 628 4666 
z
" transform="scale(0.015625)"/>
       <path id="DejaVuSans-72" d="M 2631 2963 
Q 2534 3019 2420 3045 
Q 2306 3072 2169 3072 
Q 1681 3072 1420 2755 
Q 1159 2438 1159 1844 
L 1159 0 
L 581 0 
L 581 3500 
L 1159 3500 
L 1159 2956 
Q 1341 3275 1631 3429 
Q 1922 3584 2338 3584 
Q 2397 3584 2469 3576 
Q 2541 3569 2628 3553 
L 2631 2963 
z
" transform="scale(0.015625)"/>
       <path id="DejaVuSans-65" d="M 3597 1894 
L 3597 1613 
L 953 1613 
Q 991 1019 1311 708 
Q 1631 397 2203 397 
Q 2534 397 2845 478 
Q 3156 559 3463 722 
L 3463 178 
Q 3153 47 2828 -22 
Q 2503 -91 2169 -91 
Q 1331 -91 842 396 
Q 353 884 353 1716 
Q 353 2575 817 3079 
Q 1281 3584 2069 3584 
Q 2775 3584 3186 3129 
Q 3597 2675 3597 1894 
z
M 3022 2063 
Q 3016 2534 2758 2815 
Q 2500 3097 2075 3097 
Q 1594 3097 1305 2825 
Q 1016 2553 972 2059 
L 3022 2063 
z
" transform="scale(0.015625)"/>
       <path id="DejaVuSans-71" d="M 947 1747 
Q 947 1113 1208 752 
Q 1469 391 1925 391 
Q 2381 391 2643 752 
Q 2906 1113 2906 1747 
Q 2906 2381 2643 2742 
Q 2381 3103 1925 3103 
Q 1469 3103 1208 2742 
Q 947 2381 947 1747 
z
M 2906 525 
Q 2725 213 2448 61 
Q 2172 -91 1784 -91 
Q 1150 -91 751 415 
Q 353 922 353 1747 
Q 353 2572 751 3078 
Q 1150 3584 1784 3584 
Q 2172 3584 2448 3432 
Q 2725 3281 2906 2969 
L 2906 3500 
L 3481 3500 
L 3481 -1331 
L 2906 -1331 
L 2906 525 
z
" transform="scale(0.015625)"/>
       <path id="DejaVuSans-75" d="M 544 1381 
L 544 3500 
L 1119 3500 
L 1119 1403 
Q 1119 906 1312 657 
Q 1506 409 1894 409 
Q 2359 409 2629 706 
Q 2900 1003 2900 1516 
L 2900 3500 
L 3475 3500 
L 3475 0 
L 2900 0 
L 2900 538 
Q 2691 219 2414 64 
Q 2138 -91 1772 -91 
Q 1169 -91 856 284 
Q 544 659 544 1381 
z
M 1991 3584 
L 1991 3584 
z
" transform="scale(0.015625)"/>
       <path id="DejaVuSans-6e" d="M 3513 2113 
L 3513 0 
L 2938 0 
L 2938 2094 
Q 2938 2591 2744 2837 
Q 2550 3084 2163 3084 
Q 1697 3084 1428 2787 
Q 1159 2491 1159 1978 
L 1159 0 
L 581 0 
L 581 3500 
L 1159 3500 
L 1159 2956 
Q 1366 3272 1645 3428 
Q 1925 3584 2291 3584 
Q 2894 3584 3203 3211 
Q 3513 2838 3513 2113 
z
" transform="scale(0.015625)"/>
       <path id="DejaVuSans-63" d="M 3122 3366 
L 3122 2828 
Q 2878 2963 2633 3030 
Q 2388 3097 2138 3097 
Q 1578 3097 1268 2742 
Q 959 2388 959 1747 
Q 959 1106 1268 751 
Q 1578 397 2138 397 
Q 2388 397 2633 464 
Q 2878 531 3122 666 
L 3122 134 
Q 2881 22 2623 -34 
Q 2366 -91 2075 -91 
Q 1284 -91 818 406 
Q 353 903 353 1747 
Q 353 2603 823 3093 
Q 1294 3584 2113 3584 
Q 2378 3584 2631 3529 
Q 2884 3475 3122 3366 
z
" transform="scale(0.015625)"/>
       <path id="DejaVuSans-79" d="M 2059 -325 
Q 1816 -950 1584 -1140 
Q 1353 -1331 966 -1331 
L 506 -1331 
L 506 -850 
L 844 -850 
Q 1081 -850 1212 -737 
Q 1344 -625 1503 -206 
L 1606 56 
L 191 3500 
L 800 3500 
L 1894 763 
L 2988 3500 
L 3597 3500 
L 2059 -325 
z
" transform="scale(0.015625)"/>
       <path id="DejaVuSans-20" transform="scale(0.015625)"/>
       <path id="DejaVuSans-28" d="M 1984 4856 
Q 1566 4138 1362 3434 
Q 1159 2731 1159 2009 
Q 1159 1288 1364 580 
Q 1569 -128 1984 -844 
L 1484 -844 
Q 1016 -109 783 600 
Q 550 1309 550 2009 
Q 550 2706 781 3412 
Q 1013 4119 1484 4856 
L 1984 4856 
z
" transform="scale(0.015625)"/>
       <path id="Cmmi10-63" d="M 750 763 
Q 750 484 892 290 
Q 1034 97 1300 97 
Q 1681 97 2032 272 
Q 2384 447 2606 756 
Q 2625 775 2656 775 
Q 2688 775 2720 739 
Q 2753 703 2753 672 
Q 2753 647 2741 634 
Q 2506 306 2109 117 
Q 1713 -72 1288 -72 
Q 981 -72 747 73 
Q 513 219 384 462 
Q 256 706 256 1013 
Q 256 1444 497 1869 
Q 738 2294 1138 2561 
Q 1538 2828 1978 2828 
Q 2266 2828 2495 2689 
Q 2725 2550 2725 2278 
Q 2725 2103 2623 1979 
Q 2522 1856 2350 1856 
Q 2247 1856 2176 1920 
Q 2106 1984 2106 2088 
Q 2106 2238 2215 2344 
Q 2325 2450 2472 2450 
L 2484 2450 
Q 2409 2559 2267 2611 
Q 2125 2663 1972 2663 
Q 1597 2663 1315 2342 
Q 1034 2022 892 1576 
Q 750 1131 750 763 
z
" transform="scale(0.015625)"/>
       <path id="Cmmi10-6d" d="M 494 109 
Q 494 147 500 166 
L 978 2075 
Q 1025 2253 1025 2388 
Q 1025 2663 838 2663 
Q 638 2663 541 2423 
Q 444 2184 353 1819 
Q 353 1800 334 1789 
Q 316 1778 300 1778 
L 225 1778 
Q 203 1778 187 1801 
Q 172 1825 172 1844 
Q 241 2122 305 2315 
Q 369 2509 505 2668 
Q 641 2828 844 2828 
Q 1084 2828 1268 2676 
Q 1453 2525 1453 2291 
Q 1644 2541 1900 2684 
Q 2156 2828 2444 2828 
Q 2747 2828 2967 2673 
Q 3188 2519 3188 2234 
Q 3384 2513 3648 2670 
Q 3913 2828 4225 2828 
Q 4556 2828 4757 2648 
Q 4959 2469 4959 2138 
Q 4959 1875 4842 1503 
Q 4725 1131 4550 672 
Q 4459 450 4459 288 
Q 4459 97 4609 97 
Q 4859 97 5025 365 
Q 5191 634 5259 941 
Q 5278 978 5313 978 
L 5388 978 
Q 5413 978 5430 961 
Q 5447 944 5447 922 
Q 5447 916 5441 903 
Q 5353 541 5136 234 
Q 4919 -72 4594 -72 
Q 4369 -72 4209 83 
Q 4050 238 4050 459 
Q 4050 572 4103 709 
Q 4284 1191 4404 1569 
Q 4525 1947 4525 2234 
Q 4525 2413 4453 2538 
Q 4381 2663 4213 2663 
Q 3863 2663 3606 2448 
Q 3350 2234 3163 1881 
Q 3150 1819 3144 1784 
L 2731 141 
Q 2709 53 2632 -9 
Q 2556 -72 2463 -72 
Q 2388 -72 2330 -22 
Q 2272 28 2272 109 
Q 2272 147 2278 166 
L 2688 1797 
Q 2753 2059 2753 2234 
Q 2753 2413 2679 2538 
Q 2606 2663 2431 2663 
Q 2197 2663 2000 2559 
Q 1803 2456 1656 2286 
Q 1509 2116 1388 1881 
L 953 141 
Q 931 53 854 -9 
Q 778 -72 684 -72 
Q 606 -72 550 -22 
Q 494 28 494 109 
z
" transform="scale(0.015625)"/>
       <path id="Cmsy10-a1" d="M 653 1472 
Q 600 1472 565 1512 
Q 531 1553 531 1600 
Q 531 1647 565 1687 
Q 600 1728 653 1728 
L 4325 1728 
Q 4375 1728 4408 1687 
Q 4441 1647 4441 1600 
Q 4441 1553 4408 1512 
Q 4375 1472 4325 1472 
L 653 1472 
z
" transform="scale(0.015625)"/>
       <path id="Cmr10-31" d="M 594 0 
L 594 225 
Q 1394 225 1394 428 
L 1394 3788 
Q 1063 3628 556 3628 
L 556 3853 
Q 1341 3853 1741 4263 
L 1831 4263 
Q 1853 4263 1873 4245 
Q 1894 4228 1894 4206 
L 1894 428 
Q 1894 225 2694 225 
L 2694 0 
L 594 0 
z
" transform="scale(0.015625)"/>
       <path id="DejaVuSans-29" d="M 513 4856 
L 1013 4856 
Q 1481 4119 1714 3412 
Q 1947 2706 1947 2009 
Q 1947 1309 1714 600 
Q 1481 -109 1013 -844 
L 513 -844 
Q 928 -128 1133 580 
Q 1338 1288 1338 2009 
Q 1338 2731 1133 3434 
Q 928 4138 513 4856 
z
" transform="scale(0.015625)"/>
      </defs>
      <use xlink:href="#DejaVuSans-46" transform="translate(0 0.109375)"/>
      <use xlink:href="#DejaVuSans-72" transform="translate(57.519531 0.109375)"/>
      <use xlink:href="#DejaVuSans-65" transform="translate(98.632812 0.109375)"/>
      <use xlink:href="#DejaVuSans-71" transform="translate(160.15625 0.109375)"/>
      <use xlink:href="#DejaVuSans-75" transform="translate(223.632812 0.109375)"/>
      <use xlink:href="#DejaVuSans-65" transform="translate(287.011719 0.109375)"/>
      <use xlink:href="#DejaVuSans-6e" transform="translate(348.535156 0.109375)"/>
      <use xlink:href="#DejaVuSans-63" transform="translate(411.914062 0.109375)"/>
      <use xlink:href="#DejaVuSans-79" transform="translate(466.894531 0.109375)"/>
      <use xlink:href="#DejaVuSans-20" transform="translate(526.074219 0.109375)"/>
      <use xlink:href="#DejaVuSans-28" transform="translate(557.861328 0.109375)"/>
      <use xlink:href="#Cmmi10-63" transform="translate(596.875 0.109375)"/>
      <use xlink:href="#Cmmi10-6d" transform="translate(640.087891 0.109375)"/>
      <use xlink:href="#Cmsy10-a1" transform="translate(734.184141 38.373438)scale(0.7)"/>
      <use xlink:href="#Cmr10-31" transform="translate(788.564023 38.373438)scale(0.7)"/>
      <use xlink:href="#DejaVuSans-29" transform="translate(829.941367 0.109375)"/>
     </g>
    </g>
   </g>
   <g id="line2d_23">
    <path d="M 55.36063 228.628277 
L 63.102524 217.486297 
L 72.392764 204.411412 
L 80.134659 193.931302 
L 86.328166 185.959279 
L 90.973286 180.29338 
L 95.618406 174.954652 
L 100.263526 170.003363 
L 103.3603 166.951287 
L 106.457033 164.124328 
L 109.553766 161.546708 
L 112.65054 159.243696 
L 115.747273 157.240421 
L 117.29566 156.35853 
L 118.844047 155.981411 
L 152.908316 155.981411 
L 158.32763 157.242022 
L 162.198556 157.954846 
L 166.069483 158.449796 
L 169.94045 158.692046 
L 172.829764 158.762839 
L 175.511618 159.152977 
L 178.193472 159.922964 
L 180.875326 161.053676 
L 183.557221 162.519598 
L 186.239075 164.291578 
L 188.920929 166.339299 
L 191.602824 168.633131 
L 194.284678 171.14531 
L 198.307459 175.268338 
L 202.330281 179.751913 
L 206.353062 184.533881 
L 211.716811 191.285522 
L 217.080519 198.374764 
L 223.785195 207.584662 
L 233.171725 220.885553 
L 238.535433 228.628277 
L 238.535433 228.628277 
" clip-path="url(#pb5dc5a65fd)" style="fill: none; stroke: #0000ff; stroke-width: 1.5; stroke-linecap: square"/>
   </g>
   <g id="line2d_24">
    <path d="M 55.36063 228.628277 
L 63.102524 217.486297 
L 72.392764 204.411412 
L 80.134659 193.931302 
L 86.328166 185.959279 
L 90.973286 180.29338 
L 95.618406 174.954652 
L 100.263526 170.003363 
L 103.3603 166.951287 
L 106.457033 164.124328 
L 109.553766 161.546708 
L 112.65054 159.243696 
L 115.747273 157.240421 
L 117.29566 156.35853 
L 118.844047 155.981411 
L 152.908316 155.981411 
L 158.32763 157.242022 
L 162.198556 157.954846 
L 166.069483 158.449796 
L 169.94045 158.692046 
L 172.829764 158.762839 
L 175.511618 159.152977 
L 178.193472 159.922964 
L 180.875326 161.053676 
L 183.557221 162.519598 
L 186.239075 164.291578 
L 188.920929 166.339299 
L 191.602824 168.633131 
L 194.284678 171.14531 
L 198.307459 175.268338 
L 202.330281 179.751913 
L 206.353062 184.533881 
L 211.716811 191.285522 
L 217.080519 198.374764 
L 223.785195 207.584662 
L 233.171725 220.885553 
L 238.535433 228.628277 
L 238.535433 228.628277 
" clip-path="url(#pb5dc5a65fd)" style="fill: none; stroke: #0000ff; stroke-width: 1.5; stroke-linecap: square"/>
   </g>
   <g id="line2d_25">
    <path d="M 55.36063 228.592818 
L 67.747644 206.682123 
L 75.489497 193.386212 
L 81.683004 183.153422 
L 87.876512 173.418138 
L 92.521632 166.528897 
L 97.166793 160.068638 
L 100.263526 156.03817 
L 103.3603 155.981411 
L 117.29566 155.981411 
L 118.844047 155.559894 
L 121.94078 154.220207 
L 125.037554 153.231181 
L 128.134287 152.591148 
L 131.231062 152.284829 
L 134.327795 152.2831 
L 137.424528 152.544878 
L 140.521302 153.020538 
L 144.392228 153.833207 
L 151.359929 155.586357 
L 152.908316 155.980245 
L 192.943751 155.981411 
L 194.284678 157.452346 
L 198.307459 162.558259 
L 202.330281 168.110663 
L 206.353062 174.032588 
L 211.716811 182.393717 
L 217.080519 191.172919 
L 223.785195 202.57829 
L 233.171725 219.049798 
L 238.535433 228.592818 
L 238.535433 228.592818 
" clip-path="url(#pb5dc5a65fd)" style="fill: none; stroke: #0000ff; stroke-width: 1.5; stroke-linecap: square"/>
   </g>
   <g id="line2d_26">
    <path d="M 55.36063 155.981411 
L 117.29566 155.981411 
L 118.844047 155.559894 
L 121.94078 154.220207 
L 125.037554 153.231181 
L 128.134287 152.591148 
L 131.231062 152.284829 
L 134.327795 152.2831 
L 137.424528 152.544878 
L 140.521302 153.020538 
L 144.392228 153.833207 
L 151.359929 155.586357 
L 152.908316 155.980245 
L 226.467049 155.981411 
L 238.535433 155.981411 
L 238.535433 155.981411 
" clip-path="url(#pb5dc5a65fd)" style="fill: none; stroke: #0000ff; stroke-width: 1.5; stroke-linecap: square"/>
   </g>
   <g id="line2d_27">
    <path d="M 55.36063 155.981411 
L 100.263526 155.981411 
L 104.908646 150.47138 
L 108.00542 147.121024 
L 111.102153 144.094998 
L 114.198927 141.424749 
L 117.29566 139.140461 
L 120.392393 137.268076 
L 123.489167 135.825413 
L 126.5859 134.817966 
L 129.682675 134.235442 
L 132.779407 134.050213 
L 132.779407 134.050213 
L 135.101988 134.146129 
L 138.198721 134.542602 
L 141.295495 135.187514 
L 145.166422 136.239697 
L 160.650169 140.793469 
L 164.521137 141.520741 
L 167.61787 141.889514 
L 170.714644 142.050514 
L 172.829764 142.117962 
L 174.170691 142.299653 
L 175.511618 142.601109 
L 178.193472 143.554661 
L 180.875326 144.954932 
L 183.557221 146.770325 
L 186.239075 148.964737 
L 188.920929 151.500622 
L 191.602824 154.341286 
L 192.943751 155.865052 
L 194.284678 155.981411 
L 238.535433 155.981411 
L 238.535433 155.981411 
" clip-path="url(#pb5dc5a65fd)" style="fill: none; stroke: #0000ff; stroke-width: 1.5; stroke-linecap: square"/>
   </g>
   <g id="line2d_28">
    <path d="M 55.36063 120.773347 
L 238.535433 120.773347 
L 238.535433 120.773347 
" clip-path="url(#pb5dc5a65fd)" style="fill: none; stroke: #0000ff; stroke-width: 1.5; stroke-linecap: square"/>
   </g>
   <g id="line2d_29">
    <path d="M 55.36063 82.562007 
L 60.00575 82.714459 
L 64.65087 83.169353 
L 69.296031 83.919229 
L 73.941151 84.951354 
L 78.586271 86.247252 
L 83.231391 87.781991 
L 87.876512 89.523181 
L 94.070019 92.093244 
L 112.65054 100.076594 
L 117.29566 101.675734 
L 120.392393 102.548213 
L 123.489167 103.237032 
L 126.5859 103.726749 
L 129.682675 104.013214 
L 133.553601 104.099396 
L 137.424528 103.92337 
L 142.069689 103.452827 
L 149.037348 102.466019 
L 158.32763 101.176975 
L 163.746943 100.655537 
L 168.392063 100.411297 
L 175.511618 100.125586 
L 178.193472 99.71238 
L 180.875326 99.116284 
L 184.898148 97.934579 
L 188.920929 96.493723 
L 195.625605 93.772774 
L 206.353062 89.36521 
L 211.716811 87.406362 
L 217.080519 85.721396 
L 221.103341 84.67021 
L 225.126122 83.819724 
L 229.148903 83.181922 
L 233.171725 82.765184 
L 237.194506 82.574727 
L 238.535433 82.562007 
L 238.535433 82.562007 
" clip-path="url(#pb5dc5a65fd)" style="fill: none; stroke: #0000ff; stroke-width: 1.5; stroke-linecap: square"/>
   </g>
   <g id="line2d_30">
    <path d="M 55.36063 82.562007 
L 60.00575 82.714459 
L 64.65087 83.169353 
L 69.296031 83.919229 
L 73.941151 84.951354 
L 78.586271 86.247252 
L 83.231391 87.781991 
L 87.876512 89.523181 
L 94.070019 92.093244 
L 112.65054 100.076594 
L 117.29566 101.675734 
L 120.392393 102.548213 
L 123.489167 103.237032 
L 126.5859 103.726749 
L 129.682675 104.013214 
L 133.553601 104.099396 
L 137.424528 103.92337 
L 142.069689 103.452827 
L 149.037348 102.466019 
L 158.32763 101.176975 
L 163.746943 100.655537 
L 168.392063 100.411297 
L 175.511618 100.125586 
L 178.193472 99.71238 
L 180.875326 99.116284 
L 184.898148 97.934579 
L 188.920929 96.493723 
L 195.625605 93.772774 
L 206.353062 89.36521 
L 211.716811 87.406362 
L 217.080519 85.721396 
L 221.103341 84.67021 
L 225.126122 83.819724 
L 229.148903 83.181922 
L 233.171725 82.765184 
L 237.194506 82.574727 
L 238.535433 82.562007 
L 238.535433 82.562007 
" clip-path="url(#pb5dc5a65fd)" style="fill: none; stroke: #0000ff; stroke-width: 1.5; stroke-linecap: square"/>
   </g>
   <g id="line2d_31">
    <path d="M 55.36063 47.75375 
L 58.457363 47.837721 
L 61.554137 48.089034 
L 64.65087 48.505882 
L 67.747644 49.08522 
L 70.844377 49.82272 
L 75.489497 51.212697 
L 80.134659 52.91998 
L 84.779779 54.910773 
L 89.424899 57.141539 
L 95.618406 60.392038 
L 109.553766 67.93756 
L 114.198927 70.145975 
L 117.29566 71.424233 
L 120.392393 72.504731 
L 123.489167 73.357782 
L 126.5859 73.964262 
L 129.682675 74.319029 
L 133.553601 74.425759 
L 136.650375 74.273947 
L 140.521302 73.849983 
L 145.166422 73.110966 
L 159.875976 70.593359 
L 164.521137 70.093206 
L 169.166257 69.832703 
L 174.170691 69.667809 
L 176.852545 69.278616 
L 179.534399 68.650199 
L 182.216294 67.809935 
L 186.239075 66.225973 
L 190.261856 64.361481 
L 196.966532 60.938413 
L 205.012135 56.828016 
L 210.375884 54.330748 
L 214.398665 52.662559 
L 218.421446 51.205893 
L 222.444268 49.985005 
L 226.467049 49.018149 
L 230.489871 48.318604 
L 234.512652 47.895392 
L 238.535433 47.75375 
L 238.535433 47.75375 
" clip-path="url(#pb5dc5a65fd)" style="fill: none; stroke: #0000ff; stroke-width: 1.5; stroke-linecap: square"/>
   </g>
   <g id="patch_3">
    <path d="M 55.36063 228.585827 
L 55.36063 13.011024 
" style="fill: none; stroke: #000000; stroke-width: 0.8; stroke-linejoin: miter; stroke-linecap: square"/>
   </g>
   <g id="patch_4">
    <path d="M 238.535433 228.585827 
L 238.535433 13.011024 
" style="fill: none; stroke: #000000; stroke-width: 0.8; stroke-linejoin: miter; stroke-linecap: square"/>
   </g>
   <g id="patch_5">
    <path d="M 55.36063 228.585827 
L 238.535433 228.585827 
" style="fill: none; stroke: #000000; stroke-width: 0.8; stroke-linejoin: miter; stroke-linecap: square"/>
   </g>
   <g id="patch_6">
    <path d="M 55.36063 13.011024 
L 238.535433 13.011024 
" style="fill: none; stroke: #000000; stroke-width: 0.8; stroke-linejoin: miter; stroke-linecap: square"/>
   </g>
  </g>
 </g>
 <defs>
  <clipPath id="pb5dc5a65fd">
   <rect x="55.36063" y="13.011024" width="183.174803" height="215.574803"/>
  </clipPath>
 </defs>
</svg>
